<ttFont>
    <TTGlyph name="A" xMin="2" yMin="0" xMax="703" yMax="720">
      <contour>
        <pt x="82" y="132" on="1"/>
        <pt x="290" y="720" on="1"/>
        <pt x="409" y="720" on="1"/>
        <pt x="621" y="132" on="1"/>
        <pt x="630" y="106" on="0"/>
        <pt x="648" y="90" on="0"/>
        <pt x="669" y="86" on="1"/>
        <pt x="703" y="79" on="1"/>
        <pt x="703" y="0" on="1"/>
        <pt x="414" y="0" on="1"/>
        <pt x="414" y="77" on="1"/>
        <pt x="464" y="86" on="1"/>
        <pt x="491" y="90" on="0"/>
        <pt x="491" y="107" on="1"/>
        <pt x="491" y="113" on="0"/>
        <pt x="486" y="130" on="1"/>
        <pt x="455" y="218" on="1"/>
        <pt x="231" y="218" on="1"/>
        <pt x="203" y="133" on="1"/>
        <pt x="198" y="118" on="0"/>
        <pt x="198" y="110" on="1"/>
        <pt x="198" y="90" on="0"/>
        <pt x="226" y="86" on="1"/>
        <pt x="275" y="77" on="1"/>
        <pt x="275" y="0" on="1"/>
        <pt x="2" y="0" on="1"/>
        <pt x="2" y="79" on="1"/>
        <pt x="35" y="86" on="1"/>
        <pt x="55" y="90" on="0"/>
        <pt x="73" y="106" on="0"/>
      </contour>
      <contour>
        <pt x="420" y="316" on="1"/>
        <pt x="353" y="508" on="1"/>
        <pt x="340" y="559" on="1"/>
        <pt x="330" y="510" on="1"/>
        <pt x="264" y="316" on="1"/>
      </contour>
    </TTGlyph>
    <TTGlyph name="AE" xMin="2" yMin="0" xMax="892" yMax="720">
      <contour>
        <pt x="236" y="645" on="1"/>
        <pt x="236" y="720" on="1"/>
        <pt x="873" y="720" on="1"/>
        <pt x="866" y="522" on="1"/>
        <pt x="777" y="522" on="1"/>
        <pt x="772" y="587" on="1"/>
        <pt x="771" y="605" on="0"/>
        <pt x="753" y="616" on="0"/>
        <pt x="734" y="616" on="1"/>
        <pt x="572" y="616" on="1"/>
        <pt x="572" y="426" on="1"/>
        <pt x="770" y="426" on="1"/>
        <pt x="770" y="322" on="1"/>
        <pt x="572" y="322" on="1"/>
        <pt x="572" y="104" on="1"/>
        <pt x="754" y="104" on="1"/>
        <pt x="773" y="104" on="0"/>
        <pt x="791" y="115" on="0"/>
        <pt x="792" y="133" on="1"/>
        <pt x="798" y="208" on="1"/>
        <pt x="885" y="208" on="1"/>
        <pt x="892" y="0" on="1"/>
        <pt x="367" y="0" on="1"/>
        <pt x="367" y="80" on="1"/>
        <pt x="416" y="89" on="1"/>
        <pt x="434" y="91" on="0"/>
        <pt x="445" y="107" on="0"/>
        <pt x="445" y="127" on="1"/>
        <pt x="445" y="322" on="1"/>
        <pt x="275" y="322" on="1"/>
        <pt x="204" y="133" on="1"/>
        <pt x="199" y="121" on="0"/>
        <pt x="199" y="112" on="1"/>
        <pt x="199" y="91" on="0"/>
        <pt x="227" y="86" on="1"/>
        <pt x="276" y="77" on="1"/>
        <pt x="276" y="0" on="1"/>
        <pt x="2" y="0" on="1"/>
        <pt x="2" y="79" on="1"/>
        <pt x="39" y="86" on="1"/>
        <pt x="58" y="89" on="0"/>
        <pt x="76" y="106" on="0"/>
        <pt x="86" y="132" on="1"/>
        <pt x="283" y="641" on="1"/>
      </contour>
      <contour>
        <pt x="445" y="426" on="1"/>
        <pt x="445" y="588" on="1"/>
        <pt x="445" y="608" on="0"/>
        <pt x="434" y="627" on="0"/>
        <pt x="416" y="628" on="1"/>
        <pt x="390" y="630" on="1"/>
        <pt x="314" y="426" on="1"/>
      </contour>
    </TTGlyph>
    <TTGlyph name="AEacute" xMin="2" yMin="0" xMax="892" yMax="944">
      <contour>
        <pt x="236" y="720" on="1"/>
        <pt x="873" y="720" on="1"/>
        <pt x="866" y="522" on="1"/>
        <pt x="777" y="522" on="1"/>
        <pt x="772" y="587" on="1"/>
        <pt x="771" y="605" on="0"/>
        <pt x="753" y="616" on="0"/>
        <pt x="734" y="616" on="1"/>
        <pt x="572" y="616" on="1"/>
        <pt x="572" y="426" on="1"/>
        <pt x="770" y="426" on="1"/>
        <pt x="770" y="322" on="1"/>
        <pt x="572" y="322" on="1"/>
        <pt x="572" y="104" on="1"/>
        <pt x="754" y="104" on="1"/>
        <pt x="773" y="104" on="0"/>
        <pt x="791" y="115" on="0"/>
        <pt x="792" y="133" on="1"/>
        <pt x="798" y="208" on="1"/>
        <pt x="885" y="208" on="1"/>
        <pt x="892" y="0" on="1"/>
        <pt x="367" y="0" on="1"/>
        <pt x="367" y="80" on="1"/>
        <pt x="416" y="89" on="1"/>
        <pt x="434" y="91" on="0"/>
        <pt x="445" y="107" on="0"/>
        <pt x="445" y="127" on="1"/>
        <pt x="445" y="322" on="1"/>
        <pt x="275" y="322" on="1"/>
        <pt x="204" y="133" on="1"/>
        <pt x="199" y="121" on="0"/>
        <pt x="199" y="112" on="1"/>
        <pt x="199" y="91" on="0"/>
        <pt x="227" y="86" on="1"/>
        <pt x="276" y="77" on="1"/>
        <pt x="276" y="0" on="1"/>
        <pt x="2" y="0" on="1"/>
        <pt x="2" y="79" on="1"/>
        <pt x="39" y="86" on="1"/>
        <pt x="58" y="89" on="0"/>
        <pt x="76" y="106" on="0"/>
        <pt x="86" y="132" on="1"/>
        <pt x="283" y="641" on="1"/>
        <pt x="236" y="645" on="1"/>
      </contour>
      <contour>
        <pt x="445" y="588" on="1"/>
        <pt x="445" y="608" on="0"/>
        <pt x="434" y="627" on="0"/>
        <pt x="416" y="628" on="1"/>
        <pt x="390" y="630" on="1"/>
        <pt x="314" y="426" on="1"/>
        <pt x="445" y="426" on="1"/>
      </contour>
      <contour>
        <pt x="605" y="944" on="1"/>
        <pt x="668" y="858" on="1"/>
        <pt x="526" y="764" on="1"/>
        <pt x="510" y="754" on="0"/>
        <pt x="496" y="754" on="1"/>
        <pt x="463" y="754" on="0"/>
        <pt x="434" y="796" on="1"/>
      </contour>
    </TTGlyph>
    <TTGlyph name="Aacute" xMin="2" yMin="0" xMax="703" yMax="944">
      <contour>
        <pt x="82" y="132" on="1"/>
        <pt x="290" y="720" on="1"/>
        <pt x="409" y="720" on="1"/>
        <pt x="621" y="132" on="1"/>
        <pt x="630" y="106" on="0"/>
        <pt x="648" y="90" on="0"/>
        <pt x="669" y="86" on="1"/>
        <pt x="703" y="79" on="1"/>
        <pt x="703" y="0" on="1"/>
        <pt x="414" y="0" on="1"/>
        <pt x="414" y="77" on="1"/>
        <pt x="464" y="86" on="1"/>
        <pt x="491" y="90" on="0"/>
        <pt x="491" y="107" on="1"/>
        <pt x="491" y="113" on="0"/>
        <pt x="486" y="130" on="1"/>
        <pt x="455" y="218" on="1"/>
        <pt x="231" y="218" on="1"/>
        <pt x="203" y="133" on="1"/>
        <pt x="198" y="118" on="0"/>
        <pt x="198" y="110" on="1"/>
        <pt x="198" y="90" on="0"/>
        <pt x="226" y="86" on="1"/>
        <pt x="275" y="77" on="1"/>
        <pt x="275" y="0" on="1"/>
        <pt x="2" y="0" on="1"/>
        <pt x="2" y="79" on="1"/>
        <pt x="35" y="86" on="1"/>
        <pt x="55" y="90" on="0"/>
        <pt x="73" y="106" on="0"/>
      </contour>
      <contour>
        <pt x="420" y="316" on="1"/>
        <pt x="353" y="508" on="1"/>
        <pt x="340" y="559" on="1"/>
        <pt x="330" y="510" on="1"/>
        <pt x="264" y="316" on="1"/>
      </contour>
      <contour>
        <pt x="448" y="944" on="1"/>
        <pt x="511" y="858" on="1"/>
        <pt x="369" y="764" on="1"/>
        <pt x="353" y="754" on="0"/>
        <pt x="339" y="754" on="1"/>
        <pt x="306" y="754" on="0"/>
        <pt x="277" y="796" on="1"/>
      </contour>
    </TTGlyph>
    <TTGlyph name="Abreve" xMin="2" yMin="0" xMax="703" yMax="913">
      <component glyphName="A" x="0" y="0" flags="0x1004"/>
      <component glyphName="breve" x="157" y="190" flags="0x1004"/>
    </TTGlyph>
    <TTGlyph name="Acircumflex" xMin="2" yMin="0" xMax="703" yMax="918">
      <contour>
        <pt x="82" y="132" on="1"/>
        <pt x="290" y="720" on="1"/>
        <pt x="409" y="720" on="1"/>
        <pt x="621" y="132" on="1"/>
        <pt x="630" y="106" on="0"/>
        <pt x="648" y="90" on="0"/>
        <pt x="669" y="86" on="1"/>
        <pt x="703" y="79" on="1"/>
        <pt x="703" y="0" on="1"/>
        <pt x="414" y="0" on="1"/>
        <pt x="414" y="77" on="1"/>
        <pt x="464" y="86" on="1"/>
        <pt x="491" y="90" on="0"/>
        <pt x="491" y="107" on="1"/>
        <pt x="491" y="113" on="0"/>
        <pt x="486" y="130" on="1"/>
        <pt x="455" y="218" on="1"/>
        <pt x="231" y="218" on="1"/>
        <pt x="203" y="133" on="1"/>
        <pt x="198" y="118" on="0"/>
        <pt x="198" y="110" on="1"/>
        <pt x="198" y="90" on="0"/>
        <pt x="226" y="86" on="1"/>
        <pt x="275" y="77" on="1"/>
        <pt x="275" y="0" on="1"/>
        <pt x="2" y="0" on="1"/>
        <pt x="2" y="79" on="1"/>
        <pt x="35" y="86" on="1"/>
        <pt x="55" y="90" on="0"/>
        <pt x="73" y="106" on="0"/>
      </contour>
      <contour>
        <pt x="420" y="316" on="1"/>
        <pt x="353" y="508" on="1"/>
        <pt x="340" y="559" on="1"/>
        <pt x="330" y="510" on="1"/>
        <pt x="264" y="316" on="1"/>
      </contour>
      <contour>
        <pt x="296" y="918" on="1"/>
        <pt x="405" y="918" on="1"/>
        <pt x="523" y="792" on="1"/>
        <pt x="464" y="744" on="1"/>
        <pt x="350" y="842" on="1"/>
        <pt x="236" y="744" on="1"/>
        <pt x="177" y="792" on="1"/>
      </contour>
    </TTGlyph>
    <TTGlyph name="Adieresis" xMin="2" yMin="0" xMax="703" yMax="888">
      <contour>
        <pt x="82" y="132" on="1"/>
        <pt x="290" y="720" on="1"/>
        <pt x="409" y="720" on="1"/>
        <pt x="621" y="132" on="1"/>
        <pt x="630" y="106" on="0"/>
        <pt x="648" y="90" on="0"/>
        <pt x="669" y="86" on="1"/>
        <pt x="703" y="79" on="1"/>
        <pt x="703" y="0" on="1"/>
        <pt x="414" y="0" on="1"/>
        <pt x="414" y="77" on="1"/>
        <pt x="464" y="86" on="1"/>
        <pt x="491" y="90" on="0"/>
        <pt x="491" y="107" on="1"/>
        <pt x="491" y="113" on="0"/>
        <pt x="486" y="130" on="1"/>
        <pt x="455" y="218" on="1"/>
        <pt x="231" y="218" on="1"/>
        <pt x="203" y="133" on="1"/>
        <pt x="198" y="118" on="0"/>
        <pt x="198" y="110" on="1"/>
        <pt x="198" y="90" on="0"/>
        <pt x="226" y="86" on="1"/>
        <pt x="275" y="77" on="1"/>
        <pt x="275" y="0" on="1"/>
        <pt x="2" y="0" on="1"/>
        <pt x="2" y="79" on="1"/>
        <pt x="35" y="86" on="1"/>
        <pt x="55" y="90" on="0"/>
        <pt x="73" y="106" on="0"/>
      </contour>
      <contour>
        <pt x="420" y="316" on="1"/>
        <pt x="353" y="508" on="1"/>
        <pt x="340" y="559" on="1"/>
        <pt x="330" y="510" on="1"/>
        <pt x="264" y="316" on="1"/>
      </contour>
      <contour>
        <pt x="287" y="888" on="0"/>
        <pt x="311" y="855" on="0"/>
        <pt x="311" y="786" on="0"/>
        <pt x="276" y="757" on="0"/>
        <pt x="204" y="757" on="0"/>
        <pt x="170" y="783" on="0"/>
        <pt x="170" y="854" on="0"/>
        <pt x="201" y="888" on="0"/>
      </contour>
      <contour>
        <pt x="502" y="888" on="0"/>
        <pt x="526" y="855" on="0"/>
        <pt x="526" y="786" on="0"/>
        <pt x="491" y="757" on="0"/>
        <pt x="419" y="757" on="0"/>
        <pt x="385" y="783" on="0"/>
        <pt x="385" y="854" on="0"/>
        <pt x="416" y="888" on="0"/>
      </contour>
    </TTGlyph>
    <TTGlyph name="Agrave" xMin="2" yMin="0" xMax="703" yMax="945">
      <contour>
        <pt x="82" y="132" on="1"/>
        <pt x="290" y="720" on="1"/>
        <pt x="409" y="720" on="1"/>
        <pt x="621" y="132" on="1"/>
        <pt x="630" y="106" on="0"/>
        <pt x="648" y="90" on="0"/>
        <pt x="669" y="86" on="1"/>
        <pt x="703" y="79" on="1"/>
        <pt x="703" y="0" on="1"/>
        <pt x="414" y="0" on="1"/>
        <pt x="414" y="77" on="1"/>
        <pt x="464" y="86" on="1"/>
        <pt x="491" y="90" on="0"/>
        <pt x="491" y="107" on="1"/>
        <pt x="491" y="113" on="0"/>
        <pt x="486" y="130" on="1"/>
        <pt x="455" y="218" on="1"/>
        <pt x="231" y="218" on="1"/>
        <pt x="203" y="133" on="1"/>
        <pt x="198" y="118" on="0"/>
        <pt x="198" y="110" on="1"/>
        <pt x="198" y="90" on="0"/>
        <pt x="226" y="86" on="1"/>
        <pt x="275" y="77" on="1"/>
        <pt x="275" y="0" on="1"/>
        <pt x="2" y="0" on="1"/>
        <pt x="2" y="79" on="1"/>
        <pt x="35" y="86" on="1"/>
        <pt x="55" y="90" on="0"/>
        <pt x="73" y="106" on="0"/>
      </contour>
      <contour>
        <pt x="420" y="316" on="1"/>
        <pt x="353" y="508" on="1"/>
        <pt x="340" y="559" on="1"/>
        <pt x="330" y="510" on="1"/>
        <pt x="264" y="316" on="1"/>
      </contour>
      <contour>
        <pt x="186" y="859" on="1"/>
        <pt x="249" y="945" on="1"/>
        <pt x="420" y="797" on="1"/>
        <pt x="391" y="755" on="0"/>
        <pt x="358" y="755" on="1"/>
        <pt x="344" y="755" on="0"/>
        <pt x="328" y="765" on="1"/>
      </contour>
    </TTGlyph>
    <TTGlyph name="Amacron" xMin="2" yMin="0" xMax="703" yMax="889">
      <component glyphName="A" x="0" y="0" flags="0x1004"/>
      <component glyphName="macron" x="157" y="190" flags="0x1004"/>
    </TTGlyph>
    <TTGlyph name="Aogonek" xMin="2" yMin="-230" xMax="706" yMax="720">
      <component glyphName="A" x="0" y="0" flags="0x1004"/>
      <component glyphName="ogonek" x="475" y="0" flags="0x1004"/>
    </TTGlyph>
    <TTGlyph name="Aring" xMin="2" yMin="0" xMax="703" yMax="950">
      <component glyphName="A" x="0" y="0" flags="0x1004"/>
      <component glyphName="ring" x="194" y="190" flags="0x1004"/>
    </TTGlyph>
    <TTGlyph name="Aringacute" xMin="2" yMin="0" xMax="703" yMax="1077">
      <contour>
        <pt x="82" y="132" on="1"/>
        <pt x="290" y="684" on="1"/>
        <pt x="409" y="684" on="1"/>
        <pt x="621" y="132" on="1"/>
        <pt x="630" y="106" on="0"/>
        <pt x="648" y="90" on="0"/>
        <pt x="669" y="86" on="1"/>
        <pt x="703" y="79" on="1"/>
        <pt x="703" y="0" on="1"/>
        <pt x="414" y="0" on="1"/>
        <pt x="414" y="77" on="1"/>
        <pt x="464" y="86" on="1"/>
        <pt x="491" y="90" on="0"/>
        <pt x="491" y="107" on="1"/>
        <pt x="491" y="113" on="0"/>
        <pt x="486" y="130" on="1"/>
        <pt x="451" y="218" on="1"/>
        <pt x="235" y="218" on="1"/>
        <pt x="203" y="133" on="1"/>
        <pt x="198" y="118" on="0"/>
        <pt x="198" y="110" on="1"/>
        <pt x="198" y="90" on="0"/>
        <pt x="226" y="86" on="1"/>
        <pt x="275" y="77" on="1"/>
        <pt x="275" y="0" on="1"/>
        <pt x="2" y="0" on="1"/>
        <pt x="2" y="79" on="1"/>
        <pt x="35" y="86" on="1"/>
        <pt x="55" y="90" on="0"/>
        <pt x="73" y="106" on="0"/>
      </contour>
      <contour>
        <pt x="418" y="316" on="1"/>
        <pt x="353" y="483" on="1"/>
        <pt x="340" y="534" on="1"/>
        <pt x="330" y="485" on="1"/>
        <pt x="266" y="316" on="1"/>
      </contour>
      <contour>
        <pt x="460" y="730" on="0"/>
        <pt x="460" y="810" on="0"/>
        <pt x="403" y="870" on="0"/>
        <pt x="302" y="870" on="0"/>
        <pt x="239" y="807" on="0"/>
        <pt x="239" y="727" on="0"/>
        <pt x="296" y="667" on="0"/>
        <pt x="397" y="667" on="0"/>
      </contour>
      <contour>
        <pt x="390" y="772" on="1"/>
        <pt x="390" y="729" on="0"/>
        <pt x="350" y="729" on="1"/>
        <pt x="333" y="729" on="0"/>
        <pt x="309" y="748" on="0"/>
        <pt x="309" y="764" on="1"/>
        <pt x="309" y="807" on="0"/>
        <pt x="349" y="807" on="1"/>
        <pt x="366" y="807" on="0"/>
        <pt x="390" y="788" on="0"/>
      </contour>
      <contour>
        <pt x="452" y="1077" on="1"/>
        <pt x="515" y="991" on="1"/>
        <pt x="373" y="897" on="1"/>
        <pt x="357" y="887" on="0"/>
        <pt x="343" y="887" on="1"/>
        <pt x="310" y="887" on="0"/>
        <pt x="281" y="929" on="1"/>
      </contour>
    </TTGlyph>
    <TTGlyph name="Atilde" xMin="2" yMin="0" xMax="703" yMax="899">
      <component glyphName="A" x="0" y="0" flags="0x1004"/>
      <component glyphName="tilde" x="147" y="190" flags="0x1004"/>
    </TTGlyph>
    <TTGlyph name="B" xMin="48" yMin="0" xMax="610" yMax="720">
      <contour>
        <pt x="125" y="126" on="1"/>
        <pt x="125" y="594" on="1"/>
        <pt x="125" y="613" on="0"/>
        <pt x="114" y="628" on="0"/>
        <pt x="96" y="632" on="1"/>
        <pt x="48" y="641" on="1"/>
        <pt x="48" y="720" on="1"/>
        <pt x="320" y="720" on="1"/>
        <pt x="440" y="720" on="0"/>
        <pt x="560" y="652" on="0"/>
        <pt x="560" y="558" on="1"/>
        <pt x="560" y="489" on="0"/>
        <pt x="488" y="392" on="0"/>
        <pt x="447" y="382" on="1"/>
        <pt x="521" y="375" on="0"/>
        <pt x="610" y="296" on="0"/>
        <pt x="610" y="217" on="1"/>
        <pt x="610" y="116" on="0"/>
        <pt x="472" y="0" on="0"/>
        <pt x="354" y="0" on="1"/>
        <pt x="48" y="0" on="1"/>
        <pt x="48" y="79" on="1"/>
        <pt x="96" y="88" on="1"/>
        <pt x="114" y="92" on="0"/>
        <pt x="125" y="107" on="0"/>
      </contour>
      <contour>
        <pt x="252" y="620" on="1"/>
        <pt x="252" y="418" on="1"/>
        <pt x="310" y="418" on="1"/>
        <pt x="369" y="418" on="0"/>
        <pt x="389" y="431" on="1"/>
        <pt x="426" y="452" on="0"/>
        <pt x="426" y="529" on="1"/>
        <pt x="426" y="582" on="0"/>
        <pt x="362" y="620" on="0"/>
        <pt x="302" y="620" on="1"/>
      </contour>
      <contour>
        <pt x="252" y="320" on="1"/>
        <pt x="252" y="100" on="1"/>
        <pt x="345" y="100" on="1"/>
        <pt x="476" y="100" on="0"/>
        <pt x="476" y="215" on="1"/>
        <pt x="476" y="320" on="0"/>
        <pt x="340" y="320" on="1"/>
      </contour>
    </TTGlyph>
    <TTGlyph name="C" xMin="39" yMin="-10" xMax="619" yMax="730">
      <contour>
        <pt x="592" y="140" on="1"/>
        <pt x="619" y="51" on="1"/>
        <pt x="589" y="36" on="0"/>
        <pt x="525" y="18" on="1"/>
        <pt x="425" y="-10" on="0"/>
        <pt x="354" y="-10" on="1"/>
        <pt x="39" y="-10" on="0"/>
        <pt x="39" y="352" on="1"/>
        <pt x="39" y="514" on="0"/>
        <pt x="119" y="620" on="1"/>
        <pt x="159" y="672" on="0"/>
        <pt x="292" y="730" on="0"/>
        <pt x="441" y="730" on="0"/>
        <pt x="546" y="709" on="0"/>
        <pt x="614" y="673" on="1"/>
        <pt x="598" y="500" on="1"/>
        <pt x="501" y="500" on="1"/>
        <pt x="480" y="605" on="1"/>
        <pt x="417" y="625" on="0"/>
        <pt x="273" y="625" on="0"/>
        <pt x="232" y="591" on="1"/>
        <pt x="207" y="570" on="0"/>
        <pt x="176" y="421" on="0"/>
        <pt x="176" y="359" on="1"/>
        <pt x="176" y="237" on="0"/>
        <pt x="276" y="98" on="0"/>
        <pt x="474" y="98" on="0"/>
      </contour>
    </TTGlyph>
    <TTGlyph name="Cacute" xMin="39" yMin="-10" xMax="619" yMax="944">
      <contour>
        <pt x="592" y="140" on="1"/>
        <pt x="619" y="51" on="1"/>
        <pt x="589" y="36" on="0"/>
        <pt x="525" y="18" on="1"/>
        <pt x="425" y="-10" on="0"/>
        <pt x="354" y="-10" on="1"/>
        <pt x="39" y="-10" on="0"/>
        <pt x="39" y="352" on="1"/>
        <pt x="39" y="514" on="0"/>
        <pt x="119" y="620" on="1"/>
        <pt x="159" y="672" on="0"/>
        <pt x="292" y="730" on="0"/>
        <pt x="441" y="730" on="0"/>
        <pt x="546" y="709" on="0"/>
        <pt x="614" y="673" on="1"/>
        <pt x="598" y="500" on="1"/>
        <pt x="501" y="500" on="1"/>
        <pt x="480" y="605" on="1"/>
        <pt x="417" y="625" on="0"/>
        <pt x="273" y="625" on="0"/>
        <pt x="232" y="591" on="1"/>
        <pt x="207" y="570" on="0"/>
        <pt x="176" y="421" on="0"/>
        <pt x="176" y="359" on="1"/>
        <pt x="176" y="237" on="0"/>
        <pt x="276" y="98" on="0"/>
        <pt x="474" y="98" on="0"/>
      </contour>
      <contour>
        <pt x="428" y="944" on="1"/>
        <pt x="491" y="858" on="1"/>
        <pt x="349" y="764" on="1"/>
        <pt x="333" y="754" on="0"/>
        <pt x="319" y="754" on="1"/>
        <pt x="286" y="754" on="0"/>
        <pt x="257" y="796" on="1"/>
      </contour>
    </TTGlyph>
    <TTGlyph name="Ccaron" xMin="39" yMin="-10" xMax="619" yMax="928">
      <contour>
        <pt x="592" y="140" on="1"/>
        <pt x="619" y="51" on="1"/>
        <pt x="589" y="36" on="0"/>
        <pt x="525" y="18" on="1"/>
        <pt x="425" y="-10" on="0"/>
        <pt x="354" y="-10" on="1"/>
        <pt x="39" y="-10" on="0"/>
        <pt x="39" y="352" on="1"/>
        <pt x="39" y="514" on="0"/>
        <pt x="119" y="620" on="1"/>
        <pt x="159" y="672" on="0"/>
        <pt x="292" y="730" on="0"/>
        <pt x="441" y="730" on="0"/>
        <pt x="546" y="709" on="0"/>
        <pt x="614" y="673" on="1"/>
        <pt x="598" y="500" on="1"/>
        <pt x="501" y="500" on="1"/>
        <pt x="480" y="605" on="1"/>
        <pt x="417" y="625" on="0"/>
        <pt x="273" y="625" on="0"/>
        <pt x="232" y="591" on="1"/>
        <pt x="207" y="570" on="0"/>
        <pt x="176" y="421" on="0"/>
        <pt x="176" y="359" on="1"/>
        <pt x="176" y="237" on="0"/>
        <pt x="276" y="98" on="0"/>
        <pt x="474" y="98" on="0"/>
      </contour>
      <contour>
        <pt x="405" y="754" on="1"/>
        <pt x="296" y="754" on="1"/>
        <pt x="177" y="880" on="1"/>
        <pt x="236" y="928" on="1"/>
        <pt x="350" y="830" on="1"/>
        <pt x="464" y="928" on="1"/>
        <pt x="523" y="880" on="1"/>
      </contour>
    </TTGlyph>
    <TTGlyph name="Ccedilla" xMin="39" yMin="-235" xMax="619" yMax="730">
      <component glyphName="C" x="0" y="0" flags="0x1004"/>
      <component glyphName="cedilla" x="187" y="0" flags="0x1004"/>
    </TTGlyph>
    <TTGlyph name="Ccircumflex" xMin="39" yMin="-10" xMax="619" yMax="918">
      <contour>
        <pt x="592" y="140" on="1"/>
        <pt x="619" y="51" on="1"/>
        <pt x="589" y="36" on="0"/>
        <pt x="525" y="18" on="1"/>
        <pt x="425" y="-10" on="0"/>
        <pt x="354" y="-10" on="1"/>
        <pt x="39" y="-10" on="0"/>
        <pt x="39" y="352" on="1"/>
        <pt x="39" y="514" on="0"/>
        <pt x="119" y="620" on="1"/>
        <pt x="159" y="672" on="0"/>
        <pt x="292" y="730" on="0"/>
        <pt x="441" y="730" on="0"/>
        <pt x="546" y="709" on="0"/>
        <pt x="614" y="673" on="1"/>
        <pt x="598" y="500" on="1"/>
        <pt x="501" y="500" on="1"/>
        <pt x="480" y="605" on="1"/>
        <pt x="417" y="625" on="0"/>
        <pt x="273" y="625" on="0"/>
        <pt x="232" y="591" on="1"/>
        <pt x="207" y="570" on="0"/>
        <pt x="176" y="421" on="0"/>
        <pt x="176" y="359" on="1"/>
        <pt x="176" y="237" on="0"/>
        <pt x="276" y="98" on="0"/>
        <pt x="474" y="98" on="0"/>
      </contour>
      <contour>
        <pt x="297" y="918" on="1"/>
        <pt x="406" y="918" on="1"/>
        <pt x="524" y="792" on="1"/>
        <pt x="465" y="744" on="1"/>
        <pt x="351" y="842" on="1"/>
        <pt x="237" y="744" on="1"/>
        <pt x="178" y="792" on="1"/>
      </contour>
    </TTGlyph>
    <TTGlyph name="Cdotaccent" xMin="39" yMin="-10" xMax="619" yMax="922">
      <component glyphName="C" x="0" y="0" flags="0x1004"/>
      <component glyphName="dotaccent" x="206" y="212" flags="0x1004"/>
    </TTGlyph>
    <TTGlyph name="D" xMin="48" yMin="0" xMax="688" yMax="720">
      <contour>
        <pt x="456" y="102" on="0"/>
        <pt x="551" y="228" on="0"/>
        <pt x="551" y="509" on="0"/>
        <pt x="458" y="618" on="0"/>
        <pt x="353" y="618" on="1"/>
        <pt x="252" y="618" on="1"/>
        <pt x="252" y="102" on="1"/>
        <pt x="353" y="102" on="1"/>
      </contour>
      <contour>
        <pt x="48" y="720" on="1"/>
        <pt x="363" y="720" on="1"/>
        <pt x="534" y="720" on="0"/>
        <pt x="688" y="540" on="0"/>
        <pt x="688" y="205" on="0"/>
        <pt x="526" y="0" on="0"/>
        <pt x="363" y="0" on="1"/>
        <pt x="48" y="0" on="1"/>
        <pt x="48" y="80" on="1"/>
        <pt x="96" y="89" on="1"/>
        <pt x="114" y="93" on="0"/>
        <pt x="125" y="109" on="0"/>
        <pt x="125" y="129" on="1"/>
        <pt x="125" y="598" on="1"/>
        <pt x="125" y="618" on="0"/>
        <pt x="114" y="636" on="0"/>
        <pt x="96" y="638" on="1"/>
        <pt x="48" y="644" on="1"/>
      </contour>
    </TTGlyph>
    <TTGlyph name="Dcaron" xMin="48" yMin="0" xMax="688" yMax="928">
      <contour>
        <pt x="456" y="102" on="0"/>
        <pt x="551" y="228" on="0"/>
        <pt x="551" y="509" on="0"/>
        <pt x="458" y="618" on="0"/>
        <pt x="353" y="618" on="1"/>
        <pt x="252" y="618" on="1"/>
        <pt x="252" y="102" on="1"/>
        <pt x="353" y="102" on="1"/>
      </contour>
      <contour>
        <pt x="48" y="720" on="1"/>
        <pt x="363" y="720" on="1"/>
        <pt x="534" y="720" on="0"/>
        <pt x="688" y="540" on="0"/>
        <pt x="688" y="205" on="0"/>
        <pt x="526" y="0" on="0"/>
        <pt x="363" y="0" on="1"/>
        <pt x="48" y="0" on="1"/>
        <pt x="48" y="80" on="1"/>
        <pt x="96" y="89" on="1"/>
        <pt x="114" y="93" on="0"/>
        <pt x="125" y="109" on="0"/>
        <pt x="125" y="129" on="1"/>
        <pt x="125" y="598" on="1"/>
        <pt x="125" y="618" on="0"/>
        <pt x="114" y="636" on="0"/>
        <pt x="96" y="638" on="1"/>
        <pt x="48" y="644" on="1"/>
      </contour>
      <contour>
        <pt x="349" y="754" on="1"/>
        <pt x="240" y="754" on="1"/>
        <pt x="121" y="880" on="1"/>
        <pt x="180" y="928" on="1"/>
        <pt x="294" y="830" on="1"/>
        <pt x="408" y="928" on="1"/>
        <pt x="467" y="880" on="1"/>
      </contour>
    </TTGlyph>
    <TTGlyph name="Dcroat" xMin="48" yMin="0" xMax="688" yMax="720">
      <contour>
        <pt x="456" y="102" on="0"/>
        <pt x="551" y="228" on="0"/>
        <pt x="551" y="509" on="0"/>
        <pt x="458" y="618" on="0"/>
        <pt x="353" y="618" on="1"/>
        <pt x="252" y="618" on="1"/>
        <pt x="252" y="102" on="1"/>
        <pt x="353" y="102" on="1"/>
      </contour>
      <contour>
        <pt x="48" y="720" on="1"/>
        <pt x="363" y="720" on="1"/>
        <pt x="534" y="720" on="0"/>
        <pt x="688" y="540" on="0"/>
        <pt x="688" y="205" on="0"/>
        <pt x="526" y="0" on="0"/>
        <pt x="363" y="0" on="1"/>
        <pt x="48" y="0" on="1"/>
        <pt x="48" y="80" on="1"/>
        <pt x="96" y="89" on="1"/>
        <pt x="114" y="93" on="0"/>
        <pt x="125" y="109" on="0"/>
        <pt x="125" y="129" on="1"/>
        <pt x="125" y="598" on="1"/>
        <pt x="125" y="618" on="0"/>
        <pt x="114" y="636" on="0"/>
        <pt x="96" y="638" on="1"/>
        <pt x="48" y="644" on="1"/>
      </contour>
      <contour>
        <pt x="48" y="304" on="1"/>
        <pt x="48" y="412" on="1"/>
        <pt x="419" y="412" on="1"/>
        <pt x="419" y="304" on="1"/>
      </contour>
    </TTGlyph>
    <TTGlyph name="E" xMin="48" yMin="0" xMax="579" yMax="720">
      <contour>
        <pt x="579" y="0" on="1"/>
        <pt x="48" y="0" on="1"/>
        <pt x="48" y="80" on="1"/>
        <pt x="96" y="89" on="1"/>
        <pt x="114" y="93" on="0"/>
        <pt x="125" y="108" on="0"/>
        <pt x="125" y="127" on="1"/>
        <pt x="125" y="598" on="1"/>
        <pt x="125" y="618" on="0"/>
        <pt x="114" y="636" on="0"/>
        <pt x="96" y="638" on="1"/>
        <pt x="48" y="644" on="1"/>
        <pt x="48" y="720" on="1"/>
        <pt x="575" y="720" on="1"/>
        <pt x="568" y="522" on="1"/>
        <pt x="484" y="522" on="1"/>
        <pt x="477" y="587" on="1"/>
        <pt x="475" y="605" on="0"/>
        <pt x="458" y="616" on="0"/>
        <pt x="439" y="616" on="1"/>
        <pt x="252" y="616" on="1"/>
        <pt x="252" y="426" on="1"/>
        <pt x="463" y="426" on="1"/>
        <pt x="463" y="322" on="1"/>
        <pt x="252" y="322" on="1"/>
        <pt x="252" y="104" on="1"/>
        <pt x="440" y="104" on="1"/>
        <pt x="459" y="104" on="0"/>
        <pt x="477" y="115" on="0"/>
        <pt x="478" y="133" on="1"/>
        <pt x="485" y="203" on="1"/>
        <pt x="572" y="203" on="1"/>
      </contour>
    </TTGlyph>
    <TTGlyph name="Eacute" xMin="48" yMin="0" xMax="579" yMax="944">
      <contour>
        <pt x="579" y="0" on="1"/>
        <pt x="48" y="0" on="1"/>
        <pt x="48" y="80" on="1"/>
        <pt x="96" y="89" on="1"/>
        <pt x="114" y="93" on="0"/>
        <pt x="125" y="108" on="0"/>
        <pt x="125" y="127" on="1"/>
        <pt x="125" y="598" on="1"/>
        <pt x="125" y="618" on="0"/>
        <pt x="114" y="636" on="0"/>
        <pt x="96" y="638" on="1"/>
        <pt x="48" y="644" on="1"/>
        <pt x="48" y="720" on="1"/>
        <pt x="575" y="720" on="1"/>
        <pt x="568" y="522" on="1"/>
        <pt x="484" y="522" on="1"/>
        <pt x="477" y="587" on="1"/>
        <pt x="475" y="605" on="0"/>
        <pt x="458" y="616" on="0"/>
        <pt x="439" y="616" on="1"/>
        <pt x="252" y="616" on="1"/>
        <pt x="252" y="426" on="1"/>
        <pt x="463" y="426" on="1"/>
        <pt x="463" y="322" on="1"/>
        <pt x="252" y="322" on="1"/>
        <pt x="252" y="104" on="1"/>
        <pt x="440" y="104" on="1"/>
        <pt x="459" y="104" on="0"/>
        <pt x="477" y="115" on="0"/>
        <pt x="478" y="133" on="1"/>
        <pt x="485" y="203" on="1"/>
        <pt x="572" y="203" on="1"/>
      </contour>
      <contour>
        <pt x="438" y="944" on="1"/>
        <pt x="501" y="858" on="1"/>
        <pt x="359" y="764" on="1"/>
        <pt x="343" y="754" on="0"/>
        <pt x="329" y="754" on="1"/>
        <pt x="296" y="754" on="0"/>
        <pt x="267" y="796" on="1"/>
      </contour>
    </TTGlyph>
    <TTGlyph name="Ebreve" xMin="48" yMin="0" xMax="579" yMax="913">
      <contour>
        <pt x="579" y="0" on="1"/>
        <pt x="48" y="0" on="1"/>
        <pt x="48" y="80" on="1"/>
        <pt x="96" y="89" on="1"/>
        <pt x="114" y="93" on="0"/>
        <pt x="125" y="108" on="0"/>
        <pt x="125" y="127" on="1"/>
        <pt x="125" y="598" on="1"/>
        <pt x="125" y="618" on="0"/>
        <pt x="114" y="636" on="0"/>
        <pt x="96" y="638" on="1"/>
        <pt x="48" y="644" on="1"/>
        <pt x="48" y="720" on="1"/>
        <pt x="575" y="720" on="1"/>
        <pt x="568" y="522" on="1"/>
        <pt x="484" y="522" on="1"/>
        <pt x="477" y="587" on="1"/>
        <pt x="475" y="605" on="0"/>
        <pt x="458" y="616" on="0"/>
        <pt x="439" y="616" on="1"/>
        <pt x="252" y="616" on="1"/>
        <pt x="252" y="426" on="1"/>
        <pt x="463" y="426" on="1"/>
        <pt x="463" y="322" on="1"/>
        <pt x="252" y="322" on="1"/>
        <pt x="252" y="104" on="1"/>
        <pt x="440" y="104" on="1"/>
        <pt x="459" y="104" on="0"/>
        <pt x="477" y="115" on="0"/>
        <pt x="478" y="133" on="1"/>
        <pt x="485" y="203" on="1"/>
        <pt x="572" y="203" on="1"/>
      </contour>
      <contour>
        <pt x="442" y="913" on="1"/>
        <pt x="501" y="894" on="1"/>
        <pt x="483" y="836" on="0"/>
        <pt x="401" y="763" on="0"/>
        <pt x="277" y="763" on="0"/>
        <pt x="193" y="836" on="0"/>
        <pt x="174" y="894" on="1"/>
        <pt x="238" y="913" on="1"/>
        <pt x="277" y="849" on="0"/>
        <pt x="403" y="849" on="0"/>
      </contour>
    </TTGlyph>
    <TTGlyph name="Ecaron" xMin="48" yMin="0" xMax="579" yMax="928">
      <contour>
        <pt x="579" y="0" on="1"/>
        <pt x="48" y="0" on="1"/>
        <pt x="48" y="80" on="1"/>
        <pt x="96" y="89" on="1"/>
        <pt x="114" y="93" on="0"/>
        <pt x="125" y="108" on="0"/>
        <pt x="125" y="127" on="1"/>
        <pt x="125" y="598" on="1"/>
        <pt x="125" y="618" on="0"/>
        <pt x="114" y="636" on="0"/>
        <pt x="96" y="638" on="1"/>
        <pt x="48" y="644" on="1"/>
        <pt x="48" y="720" on="1"/>
        <pt x="575" y="720" on="1"/>
        <pt x="568" y="522" on="1"/>
        <pt x="484" y="522" on="1"/>
        <pt x="477" y="587" on="1"/>
        <pt x="475" y="605" on="0"/>
        <pt x="458" y="616" on="0"/>
        <pt x="439" y="616" on="1"/>
        <pt x="252" y="616" on="1"/>
        <pt x="252" y="426" on="1"/>
        <pt x="463" y="426" on="1"/>
        <pt x="463" y="322" on="1"/>
        <pt x="252" y="322" on="1"/>
        <pt x="252" y="104" on="1"/>
        <pt x="440" y="104" on="1"/>
        <pt x="459" y="104" on="0"/>
        <pt x="477" y="115" on="0"/>
        <pt x="478" y="133" on="1"/>
        <pt x="485" y="203" on="1"/>
        <pt x="572" y="203" on="1"/>
      </contour>
      <contour>
        <pt x="394" y="754" on="1"/>
        <pt x="285" y="754" on="1"/>
        <pt x="166" y="880" on="1"/>
        <pt x="225" y="928" on="1"/>
        <pt x="339" y="830" on="1"/>
        <pt x="453" y="928" on="1"/>
        <pt x="512" y="880" on="1"/>
      </contour>
    </TTGlyph>
    <TTGlyph name="Ecircumflex" xMin="48" yMin="0" xMax="579" yMax="918">
      <contour>
        <pt x="579" y="0" on="1"/>
        <pt x="48" y="0" on="1"/>
        <pt x="48" y="80" on="1"/>
        <pt x="96" y="89" on="1"/>
        <pt x="114" y="93" on="0"/>
        <pt x="125" y="108" on="0"/>
        <pt x="125" y="127" on="1"/>
        <pt x="125" y="598" on="1"/>
        <pt x="125" y="618" on="0"/>
        <pt x="114" y="636" on="0"/>
        <pt x="96" y="638" on="1"/>
        <pt x="48" y="644" on="1"/>
        <pt x="48" y="720" on="1"/>
        <pt x="575" y="720" on="1"/>
        <pt x="568" y="522" on="1"/>
        <pt x="484" y="522" on="1"/>
        <pt x="477" y="587" on="1"/>
        <pt x="475" y="605" on="0"/>
        <pt x="458" y="616" on="0"/>
        <pt x="439" y="616" on="1"/>
        <pt x="252" y="616" on="1"/>
        <pt x="252" y="426" on="1"/>
        <pt x="463" y="426" on="1"/>
        <pt x="463" y="322" on="1"/>
        <pt x="252" y="322" on="1"/>
        <pt x="252" y="104" on="1"/>
        <pt x="440" y="104" on="1"/>
        <pt x="459" y="104" on="0"/>
        <pt x="477" y="115" on="0"/>
        <pt x="478" y="133" on="1"/>
        <pt x="485" y="203" on="1"/>
        <pt x="572" y="203" on="1"/>
      </contour>
      <contour>
        <pt x="286" y="918" on="1"/>
        <pt x="395" y="918" on="1"/>
        <pt x="513" y="792" on="1"/>
        <pt x="454" y="744" on="1"/>
        <pt x="340" y="842" on="1"/>
        <pt x="226" y="744" on="1"/>
        <pt x="167" y="792" on="1"/>
      </contour>
    </TTGlyph>
    <TTGlyph name="Edieresis" xMin="48" yMin="0" xMax="579" yMax="888">
      <contour>
        <pt x="579" y="0" on="1"/>
        <pt x="48" y="0" on="1"/>
        <pt x="48" y="80" on="1"/>
        <pt x="96" y="89" on="1"/>
        <pt x="114" y="93" on="0"/>
        <pt x="125" y="108" on="0"/>
        <pt x="125" y="127" on="1"/>
        <pt x="125" y="598" on="1"/>
        <pt x="125" y="618" on="0"/>
        <pt x="114" y="636" on="0"/>
        <pt x="96" y="638" on="1"/>
        <pt x="48" y="644" on="1"/>
        <pt x="48" y="720" on="1"/>
        <pt x="575" y="720" on="1"/>
        <pt x="568" y="522" on="1"/>
        <pt x="484" y="522" on="1"/>
        <pt x="477" y="587" on="1"/>
        <pt x="475" y="605" on="0"/>
        <pt x="458" y="616" on="0"/>
        <pt x="439" y="616" on="1"/>
        <pt x="252" y="616" on="1"/>
        <pt x="252" y="426" on="1"/>
        <pt x="463" y="426" on="1"/>
        <pt x="463" y="322" on="1"/>
        <pt x="252" y="322" on="1"/>
        <pt x="252" y="104" on="1"/>
        <pt x="440" y="104" on="1"/>
        <pt x="459" y="104" on="0"/>
        <pt x="477" y="115" on="0"/>
        <pt x="478" y="133" on="1"/>
        <pt x="485" y="203" on="1"/>
        <pt x="572" y="203" on="1"/>
      </contour>
      <contour>
        <pt x="279" y="888" on="0"/>
        <pt x="303" y="855" on="0"/>
        <pt x="303" y="786" on="0"/>
        <pt x="268" y="757" on="0"/>
        <pt x="196" y="757" on="0"/>
        <pt x="162" y="783" on="0"/>
        <pt x="162" y="854" on="0"/>
        <pt x="193" y="888" on="0"/>
      </contour>
      <contour>
        <pt x="494" y="888" on="0"/>
        <pt x="518" y="855" on="0"/>
        <pt x="518" y="786" on="0"/>
        <pt x="483" y="757" on="0"/>
        <pt x="411" y="757" on="0"/>
        <pt x="377" y="783" on="0"/>
        <pt x="377" y="854" on="0"/>
        <pt x="408" y="888" on="0"/>
      </contour>
    </TTGlyph>
    <TTGlyph name="Edotaccent" xMin="48" yMin="0" xMax="579" yMax="922">
      <contour>
        <pt x="579" y="0" on="1"/>
        <pt x="48" y="0" on="1"/>
        <pt x="48" y="80" on="1"/>
        <pt x="96" y="89" on="1"/>
        <pt x="114" y="93" on="0"/>
        <pt x="125" y="108" on="0"/>
        <pt x="125" y="127" on="1"/>
        <pt x="125" y="598" on="1"/>
        <pt x="125" y="618" on="0"/>
        <pt x="114" y="636" on="0"/>
        <pt x="96" y="638" on="1"/>
        <pt x="48" y="644" on="1"/>
        <pt x="48" y="720" on="1"/>
        <pt x="575" y="720" on="1"/>
        <pt x="568" y="522" on="1"/>
        <pt x="484" y="522" on="1"/>
        <pt x="477" y="587" on="1"/>
        <pt x="475" y="605" on="0"/>
        <pt x="458" y="616" on="0"/>
        <pt x="439" y="616" on="1"/>
        <pt x="252" y="616" on="1"/>
        <pt x="252" y="426" on="1"/>
        <pt x="463" y="426" on="1"/>
        <pt x="463" y="322" on="1"/>
        <pt x="252" y="322" on="1"/>
        <pt x="252" y="104" on="1"/>
        <pt x="440" y="104" on="1"/>
        <pt x="459" y="104" on="0"/>
        <pt x="477" y="115" on="0"/>
        <pt x="478" y="133" on="1"/>
        <pt x="485" y="203" on="1"/>
        <pt x="572" y="203" on="1"/>
      </contour>
      <contour>
        <pt x="396" y="922" on="0"/>
        <pt x="424" y="883" on="0"/>
        <pt x="424" y="801" on="0"/>
        <pt x="383" y="767" on="0"/>
        <pt x="299" y="767" on="0"/>
        <pt x="259" y="798" on="0"/>
        <pt x="259" y="882" on="0"/>
        <pt x="295" y="922" on="0"/>
      </contour>
    </TTGlyph>
    <TTGlyph name="Egrave" xMin="48" yMin="0" xMax="579" yMax="945">
      <contour>
        <pt x="579" y="0" on="1"/>
        <pt x="48" y="0" on="1"/>
        <pt x="48" y="80" on="1"/>
        <pt x="96" y="89" on="1"/>
        <pt x="114" y="93" on="0"/>
        <pt x="125" y="108" on="0"/>
        <pt x="125" y="127" on="1"/>
        <pt x="125" y="598" on="1"/>
        <pt x="125" y="618" on="0"/>
        <pt x="114" y="636" on="0"/>
        <pt x="96" y="638" on="1"/>
        <pt x="48" y="644" on="1"/>
        <pt x="48" y="720" on="1"/>
        <pt x="575" y="720" on="1"/>
        <pt x="568" y="522" on="1"/>
        <pt x="484" y="522" on="1"/>
        <pt x="477" y="587" on="1"/>
        <pt x="475" y="605" on="0"/>
        <pt x="458" y="616" on="0"/>
        <pt x="439" y="616" on="1"/>
        <pt x="252" y="616" on="1"/>
        <pt x="252" y="426" on="1"/>
        <pt x="463" y="426" on="1"/>
        <pt x="463" y="322" on="1"/>
        <pt x="252" y="322" on="1"/>
        <pt x="252" y="104" on="1"/>
        <pt x="440" y="104" on="1"/>
        <pt x="459" y="104" on="0"/>
        <pt x="477" y="115" on="0"/>
        <pt x="478" y="133" on="1"/>
        <pt x="485" y="203" on="1"/>
        <pt x="572" y="203" on="1"/>
      </contour>
      <contour>
        <pt x="176" y="859" on="1"/>
        <pt x="239" y="945" on="1"/>
        <pt x="410" y="797" on="1"/>
        <pt x="381" y="755" on="0"/>
        <pt x="348" y="755" on="1"/>
        <pt x="334" y="755" on="0"/>
        <pt x="318" y="765" on="1"/>
      </contour>
    </TTGlyph>
    <TTGlyph name="Emacron" xMin="48" yMin="0" xMax="579" yMax="889">
      <contour>
        <pt x="579" y="0" on="1"/>
        <pt x="48" y="0" on="1"/>
        <pt x="48" y="80" on="1"/>
        <pt x="96" y="89" on="1"/>
        <pt x="114" y="93" on="0"/>
        <pt x="125" y="108" on="0"/>
        <pt x="125" y="127" on="1"/>
        <pt x="125" y="598" on="1"/>
        <pt x="125" y="618" on="0"/>
        <pt x="114" y="636" on="0"/>
        <pt x="96" y="638" on="1"/>
        <pt x="48" y="644" on="1"/>
        <pt x="48" y="720" on="1"/>
        <pt x="575" y="720" on="1"/>
        <pt x="568" y="522" on="1"/>
        <pt x="484" y="522" on="1"/>
        <pt x="477" y="587" on="1"/>
        <pt x="475" y="605" on="0"/>
        <pt x="458" y="616" on="0"/>
        <pt x="439" y="616" on="1"/>
        <pt x="252" y="616" on="1"/>
        <pt x="252" y="426" on="1"/>
        <pt x="463" y="426" on="1"/>
        <pt x="463" y="322" on="1"/>
        <pt x="252" y="322" on="1"/>
        <pt x="252" y="104" on="1"/>
        <pt x="440" y="104" on="1"/>
        <pt x="459" y="104" on="0"/>
        <pt x="477" y="115" on="0"/>
        <pt x="478" y="133" on="1"/>
        <pt x="485" y="203" on="1"/>
        <pt x="572" y="203" on="1"/>
      </contour>
      <contour>
        <pt x="195" y="792" on="1"/>
        <pt x="210" y="889" on="1"/>
        <pt x="492" y="889" on="1"/>
        <pt x="477" y="792" on="1"/>
      </contour>
    </TTGlyph>
    <TTGlyph name="Eng" xMin="46" yMin="-164" xMax="678" yMax="730">
      <contour>
        <pt x="550" y="153" on="1"/>
        <pt x="550" y="498" on="1"/>
        <pt x="550" y="561" on="0"/>
        <pt x="481" y="625" on="0"/>
        <pt x="369" y="625" on="0"/>
        <pt x="278" y="572" on="0"/>
        <pt x="252" y="529" on="1"/>
        <pt x="252" y="133" on="1"/>
        <pt x="252" y="109" on="0"/>
        <pt x="261" y="92" on="0"/>
        <pt x="276" y="89" on="1"/>
        <pt x="335" y="78" on="1"/>
        <pt x="335" y="0" on="1"/>
        <pt x="46" y="0" on="1"/>
        <pt x="46" y="79" on="1"/>
        <pt x="100" y="89" on="1"/>
        <pt x="116" y="92" on="0"/>
        <pt x="125" y="109" on="0"/>
        <pt x="125" y="133" on="1"/>
        <pt x="125" y="594" on="1"/>
        <pt x="125" y="614" on="0"/>
        <pt x="113" y="633" on="0"/>
        <pt x="95" y="635" on="1"/>
        <pt x="49" y="641" on="1"/>
        <pt x="49" y="720" on="1"/>
        <pt x="242" y="720" on="1"/>
        <pt x="253" y="627" on="1"/>
        <pt x="300" y="677" on="0"/>
        <pt x="397" y="730" on="0"/>
        <pt x="467" y="730" on="1"/>
        <pt x="570" y="730" on="0"/>
        <pt x="678" y="626" on="0"/>
        <pt x="678" y="541" on="1"/>
        <pt x="678" y="129" on="1"/>
        <pt x="678" y="67" on="0"/>
        <pt x="651" y="-22" on="0"/>
        <pt x="587" y="-89" on="0"/>
        <pt x="510" y="-137" on="0"/>
        <pt x="447" y="-164" on="1"/>
        <pt x="395" y="-83" on="1"/>
        <pt x="492" y="-35" on="0"/>
        <pt x="550" y="62" on="0"/>
      </contour>
    </TTGlyph>
    <TTGlyph name="Eogonek" xMin="48" yMin="-230" xMax="582" yMax="720">
      <contour>
        <pt x="579" y="0" on="1"/>
        <pt x="48" y="0" on="1"/>
        <pt x="48" y="80" on="1"/>
        <pt x="96" y="89" on="1"/>
        <pt x="114" y="93" on="0"/>
        <pt x="125" y="108" on="0"/>
        <pt x="125" y="127" on="1"/>
        <pt x="125" y="598" on="1"/>
        <pt x="125" y="618" on="0"/>
        <pt x="114" y="636" on="0"/>
        <pt x="96" y="638" on="1"/>
        <pt x="48" y="644" on="1"/>
        <pt x="48" y="720" on="1"/>
        <pt x="575" y="720" on="1"/>
        <pt x="568" y="522" on="1"/>
        <pt x="484" y="522" on="1"/>
        <pt x="477" y="587" on="1"/>
        <pt x="475" y="605" on="0"/>
        <pt x="458" y="616" on="0"/>
        <pt x="439" y="616" on="1"/>
        <pt x="252" y="616" on="1"/>
        <pt x="252" y="426" on="1"/>
        <pt x="463" y="426" on="1"/>
        <pt x="463" y="322" on="1"/>
        <pt x="252" y="322" on="1"/>
        <pt x="252" y="104" on="1"/>
        <pt x="440" y="104" on="1"/>
        <pt x="459" y="104" on="0"/>
        <pt x="477" y="115" on="0"/>
        <pt x="478" y="133" on="1"/>
        <pt x="485" y="203" on="1"/>
        <pt x="572" y="203" on="1"/>
      </contour>
      <contour>
        <pt x="370" y="-98" on="0"/>
        <pt x="389" y="-70" on="0"/>
        <pt x="399" y="-56" on="0"/>
        <pt x="426" y="-35" on="0"/>
        <pt x="435" y="-27" on="0"/>
        <pt x="471" y="-3" on="0"/>
        <pt x="475" y="0" on="1"/>
        <pt x="579" y="0" on="1"/>
        <pt x="555" y="-11" on="0"/>
        <pt x="509" y="-50" on="1"/>
        <pt x="461" y="-87" on="0"/>
        <pt x="461" y="-117" on="1"/>
        <pt x="461" y="-132" on="0"/>
        <pt x="481" y="-155" on="0"/>
        <pt x="520" y="-155" on="0"/>
        <pt x="565" y="-142" on="1"/>
        <pt x="582" y="-200" on="1"/>
        <pt x="566" y="-207" on="1"/>
        <pt x="516" y="-230" on="0"/>
        <pt x="426" y="-230" on="0"/>
        <pt x="370" y="-169" on="0"/>
      </contour>
    </TTGlyph>
    <TTGlyph name="Eth" xMin="48" yMin="0" xMax="688" yMax="720">
      <contour>
        <pt x="456" y="102" on="0"/>
        <pt x="551" y="228" on="0"/>
        <pt x="551" y="509" on="0"/>
        <pt x="458" y="618" on="0"/>
        <pt x="353" y="618" on="1"/>
        <pt x="252" y="618" on="1"/>
        <pt x="252" y="102" on="1"/>
        <pt x="353" y="102" on="1"/>
      </contour>
      <contour>
        <pt x="48" y="720" on="1"/>
        <pt x="363" y="720" on="1"/>
        <pt x="534" y="720" on="0"/>
        <pt x="688" y="540" on="0"/>
        <pt x="688" y="205" on="0"/>
        <pt x="526" y="0" on="0"/>
        <pt x="363" y="0" on="1"/>
        <pt x="48" y="0" on="1"/>
        <pt x="48" y="80" on="1"/>
        <pt x="96" y="89" on="1"/>
        <pt x="114" y="93" on="0"/>
        <pt x="125" y="109" on="0"/>
        <pt x="125" y="129" on="1"/>
        <pt x="125" y="598" on="1"/>
        <pt x="125" y="618" on="0"/>
        <pt x="114" y="636" on="0"/>
        <pt x="96" y="638" on="1"/>
        <pt x="48" y="644" on="1"/>
      </contour>
      <contour>
        <pt x="48" y="304" on="1"/>
        <pt x="48" y="412" on="1"/>
        <pt x="419" y="412" on="1"/>
        <pt x="419" y="304" on="1"/>
      </contour>
    </TTGlyph>
    <TTGlyph name="F" xMin="48" yMin="0" xMax="565" yMax="720">
      <contour>
        <pt x="48" y="720" on="1"/>
        <pt x="565" y="720" on="1"/>
        <pt x="558" y="527" on="1"/>
        <pt x="474" y="527" on="1"/>
        <pt x="467" y="592" on="1"/>
        <pt x="465" y="610" on="0"/>
        <pt x="448" y="621" on="0"/>
        <pt x="429" y="621" on="1"/>
        <pt x="252" y="621" on="1"/>
        <pt x="252" y="419" on="1"/>
        <pt x="443" y="419" on="1"/>
        <pt x="443" y="315" on="1"/>
        <pt x="252" y="315" on="1"/>
        <pt x="252" y="126" on="1"/>
        <pt x="252" y="106" on="0"/>
        <pt x="264" y="90" on="0"/>
        <pt x="282" y="88" on="1"/>
        <pt x="348" y="80" on="1"/>
        <pt x="348" y="0" on="1"/>
        <pt x="48" y="0" on="1"/>
        <pt x="48" y="79" on="1"/>
        <pt x="96" y="88" on="1"/>
        <pt x="114" y="92" on="0"/>
        <pt x="125" y="107" on="0"/>
        <pt x="125" y="126" on="1"/>
        <pt x="125" y="602" on="1"/>
        <pt x="125" y="620" on="0"/>
        <pt x="113" y="636" on="0"/>
        <pt x="96" y="638" on="1"/>
        <pt x="48" y="644" on="1"/>
      </contour>
    </TTGlyph>
    <TTGlyph name="G" xMin="39" yMin="-10" xMax="678" yMax="730">
      <contour>
        <pt x="176" y="359" on="1"/>
        <pt x="176" y="242" on="0"/>
        <pt x="273" y="96" on="0"/>
        <pt x="370" y="96" on="1"/>
        <pt x="438" y="96" on="0"/>
        <pt x="493" y="116" on="1"/>
        <pt x="493" y="212" on="1"/>
        <pt x="493" y="231" on="0"/>
        <pt x="482" y="247" on="0"/>
        <pt x="464" y="250" on="1"/>
        <pt x="412" y="259" on="1"/>
        <pt x="412" y="338" on="1"/>
        <pt x="678" y="338" on="1"/>
        <pt x="678" y="259" on="1"/>
        <pt x="644" y="252" on="1"/>
        <pt x="625" y="248" on="0"/>
        <pt x="617" y="235" on="0"/>
        <pt x="617" y="214" on="1"/>
        <pt x="617" y="51" on="1"/>
        <pt x="471" y="-10" on="0"/>
        <pt x="355" y="-10" on="1"/>
        <pt x="191" y="-10" on="0"/>
        <pt x="39" y="174" on="0"/>
        <pt x="39" y="352" on="1"/>
        <pt x="39" y="514" on="0"/>
        <pt x="119" y="620" on="1"/>
        <pt x="159" y="672" on="0"/>
        <pt x="292" y="730" on="0"/>
        <pt x="444" y="730" on="0"/>
        <pt x="555" y="709" on="0"/>
        <pt x="626" y="673" on="1"/>
        <pt x="610" y="500" on="1"/>
        <pt x="513" y="500" on="1"/>
        <pt x="492" y="600" on="1"/>
        <pt x="427" y="625" on="0"/>
        <pt x="273" y="625" on="0"/>
        <pt x="232" y="591" on="1"/>
        <pt x="207" y="570" on="0"/>
        <pt x="176" y="422" on="0"/>
      </contour>
    </TTGlyph>
    <TTGlyph name="Gbreve" xMin="39" yMin="-10" xMax="678" yMax="913">
      <component glyphName="G" x="0" y="0" flags="0x1004"/>
      <component glyphName="breve" x="158" y="190" flags="0x1004"/>
    </TTGlyph>
    <TTGlyph name="Gcircumflex" xMin="39" yMin="-10" xMax="678" yMax="918">
      <contour>
        <pt x="176" y="359" on="1"/>
        <pt x="176" y="242" on="0"/>
        <pt x="273" y="96" on="0"/>
        <pt x="370" y="96" on="1"/>
        <pt x="438" y="96" on="0"/>
        <pt x="493" y="116" on="1"/>
        <pt x="493" y="212" on="1"/>
        <pt x="493" y="231" on="0"/>
        <pt x="482" y="247" on="0"/>
        <pt x="464" y="250" on="1"/>
        <pt x="412" y="259" on="1"/>
        <pt x="412" y="338" on="1"/>
        <pt x="678" y="338" on="1"/>
        <pt x="678" y="259" on="1"/>
        <pt x="644" y="252" on="1"/>
        <pt x="625" y="248" on="0"/>
        <pt x="617" y="235" on="0"/>
        <pt x="617" y="214" on="1"/>
        <pt x="617" y="51" on="1"/>
        <pt x="471" y="-10" on="0"/>
        <pt x="355" y="-10" on="1"/>
        <pt x="191" y="-10" on="0"/>
        <pt x="39" y="174" on="0"/>
        <pt x="39" y="352" on="1"/>
        <pt x="39" y="514" on="0"/>
        <pt x="119" y="620" on="1"/>
        <pt x="159" y="672" on="0"/>
        <pt x="292" y="730" on="0"/>
        <pt x="444" y="730" on="0"/>
        <pt x="555" y="709" on="0"/>
        <pt x="626" y="673" on="1"/>
        <pt x="610" y="500" on="1"/>
        <pt x="513" y="500" on="1"/>
        <pt x="492" y="600" on="1"/>
        <pt x="427" y="625" on="0"/>
        <pt x="273" y="625" on="0"/>
        <pt x="232" y="591" on="1"/>
        <pt x="207" y="570" on="0"/>
        <pt x="176" y="422" on="0"/>
      </contour>
      <contour>
        <pt x="297" y="918" on="1"/>
        <pt x="406" y="918" on="1"/>
        <pt x="524" y="792" on="1"/>
        <pt x="465" y="744" on="1"/>
        <pt x="351" y="842" on="1"/>
        <pt x="237" y="744" on="1"/>
        <pt x="178" y="792" on="1"/>
      </contour>
    </TTGlyph>
    <TTGlyph name="Gcommaaccent" xMin="39" yMin="-261" xMax="678" yMax="730">
      <contour>
        <pt x="176" y="359" on="1"/>
        <pt x="176" y="242" on="0"/>
        <pt x="273" y="96" on="0"/>
        <pt x="370" y="96" on="1"/>
        <pt x="438" y="96" on="0"/>
        <pt x="493" y="116" on="1"/>
        <pt x="493" y="212" on="1"/>
        <pt x="493" y="231" on="0"/>
        <pt x="482" y="247" on="0"/>
        <pt x="464" y="250" on="1"/>
        <pt x="412" y="259" on="1"/>
        <pt x="412" y="338" on="1"/>
        <pt x="678" y="338" on="1"/>
        <pt x="678" y="259" on="1"/>
        <pt x="644" y="252" on="1"/>
        <pt x="625" y="248" on="0"/>
        <pt x="617" y="235" on="0"/>
        <pt x="617" y="214" on="1"/>
        <pt x="617" y="51" on="1"/>
        <pt x="471" y="-10" on="0"/>
        <pt x="355" y="-10" on="1"/>
        <pt x="191" y="-10" on="0"/>
        <pt x="39" y="174" on="0"/>
        <pt x="39" y="352" on="1"/>
        <pt x="39" y="514" on="0"/>
        <pt x="119" y="620" on="1"/>
        <pt x="159" y="672" on="0"/>
        <pt x="292" y="730" on="0"/>
        <pt x="444" y="730" on="0"/>
        <pt x="555" y="709" on="0"/>
        <pt x="626" y="673" on="1"/>
        <pt x="610" y="500" on="1"/>
        <pt x="513" y="500" on="1"/>
        <pt x="492" y="600" on="1"/>
        <pt x="427" y="625" on="0"/>
        <pt x="273" y="625" on="0"/>
        <pt x="232" y="591" on="1"/>
        <pt x="207" y="570" on="0"/>
        <pt x="176" y="422" on="0"/>
      </contour>
      <contour>
        <pt x="434" y="-105" on="1"/>
        <pt x="434" y="-156" on="0"/>
        <pt x="368" y="-242" on="0"/>
        <pt x="325" y="-261" on="1"/>
        <pt x="292" y="-227" on="1"/>
        <pt x="318" y="-211" on="0"/>
        <pt x="357" y="-171" on="0"/>
        <pt x="357" y="-156" on="1"/>
        <pt x="352" y="-159" on="0"/>
        <pt x="346" y="-159" on="1"/>
        <pt x="315" y="-159" on="0"/>
        <pt x="282" y="-122" on="0"/>
        <pt x="282" y="-95" on="1"/>
        <pt x="282" y="-32" on="0"/>
        <pt x="355" y="-32" on="1"/>
        <pt x="395" y="-32" on="0"/>
        <pt x="434" y="-73" on="0"/>
      </contour>
    </TTGlyph>
    <TTGlyph name="Gdotaccent" xMin="39" yMin="-10" xMax="678" yMax="922">
      <component glyphName="G" x="0" y="0" flags="0x1004"/>
      <component glyphName="dotaccent" x="227" y="212" flags="0x1004"/>
    </TTGlyph>
    <TTGlyph name="H" xMin="48" yMin="0" xMax="744" yMax="720">
      <contour>
        <pt x="667" y="594" on="1"/>
        <pt x="667" y="126" on="1"/>
        <pt x="667" y="107" on="0"/>
        <pt x="678" y="92" on="0"/>
        <pt x="696" y="88" on="1"/>
        <pt x="744" y="79" on="1"/>
        <pt x="744" y="0" on="1"/>
        <pt x="458" y="0" on="1"/>
        <pt x="458" y="79" on="1"/>
        <pt x="511" y="88" on="1"/>
        <pt x="529" y="91" on="0"/>
        <pt x="540" y="106" on="0"/>
        <pt x="540" y="126" on="1"/>
        <pt x="540" y="326" on="1"/>
        <pt x="252" y="326" on="1"/>
        <pt x="252" y="126" on="1"/>
        <pt x="252" y="106" on="0"/>
        <pt x="263" y="91" on="0"/>
        <pt x="281" y="88" on="1"/>
        <pt x="334" y="79" on="1"/>
        <pt x="334" y="0" on="1"/>
        <pt x="48" y="0" on="1"/>
        <pt x="48" y="79" on="1"/>
        <pt x="96" y="88" on="1"/>
        <pt x="114" y="92" on="0"/>
        <pt x="125" y="107" on="0"/>
        <pt x="125" y="126" on="1"/>
        <pt x="125" y="594" on="1"/>
        <pt x="125" y="613" on="0"/>
        <pt x="114" y="628" on="0"/>
        <pt x="96" y="632" on="1"/>
        <pt x="48" y="641" on="1"/>
        <pt x="48" y="720" on="1"/>
        <pt x="334" y="720" on="1"/>
        <pt x="334" y="641" on="1"/>
        <pt x="281" y="632" on="1"/>
        <pt x="263" y="629" on="0"/>
        <pt x="252" y="614" on="0"/>
        <pt x="252" y="594" on="1"/>
        <pt x="252" y="428" on="1"/>
        <pt x="540" y="428" on="1"/>
        <pt x="540" y="594" on="1"/>
        <pt x="540" y="614" on="0"/>
        <pt x="529" y="629" on="0"/>
        <pt x="511" y="632" on="1"/>
        <pt x="458" y="641" on="1"/>
        <pt x="458" y="720" on="1"/>
        <pt x="744" y="720" on="1"/>
        <pt x="744" y="641" on="1"/>
        <pt x="696" y="632" on="1"/>
        <pt x="678" y="628" on="0"/>
        <pt x="667" y="613" on="0"/>
      </contour>
    </TTGlyph>
    <TTGlyph name="Hbar" xMin="48" yMin="0" xMax="744" yMax="720">
      <contour>
        <pt x="56" y="488" on="1"/>
        <pt x="56" y="578" on="1"/>
        <pt x="736" y="578" on="1"/>
        <pt x="736" y="488" on="1"/>
      </contour>
      <contour>
        <pt x="667" y="594" on="1"/>
        <pt x="667" y="126" on="1"/>
        <pt x="667" y="107" on="0"/>
        <pt x="678" y="92" on="0"/>
        <pt x="696" y="88" on="1"/>
        <pt x="744" y="79" on="1"/>
        <pt x="744" y="0" on="1"/>
        <pt x="458" y="0" on="1"/>
        <pt x="458" y="79" on="1"/>
        <pt x="511" y="88" on="1"/>
        <pt x="529" y="91" on="0"/>
        <pt x="540" y="106" on="0"/>
        <pt x="540" y="126" on="1"/>
        <pt x="540" y="326" on="1"/>
        <pt x="252" y="326" on="1"/>
        <pt x="252" y="126" on="1"/>
        <pt x="252" y="106" on="0"/>
        <pt x="263" y="91" on="0"/>
        <pt x="281" y="88" on="1"/>
        <pt x="334" y="79" on="1"/>
        <pt x="334" y="0" on="1"/>
        <pt x="48" y="0" on="1"/>
        <pt x="48" y="79" on="1"/>
        <pt x="96" y="88" on="1"/>
        <pt x="114" y="92" on="0"/>
        <pt x="125" y="107" on="0"/>
        <pt x="125" y="126" on="1"/>
        <pt x="125" y="594" on="1"/>
        <pt x="125" y="613" on="0"/>
        <pt x="114" y="628" on="0"/>
        <pt x="96" y="632" on="1"/>
        <pt x="48" y="641" on="1"/>
        <pt x="48" y="720" on="1"/>
        <pt x="334" y="720" on="1"/>
        <pt x="334" y="641" on="1"/>
        <pt x="281" y="632" on="1"/>
        <pt x="263" y="629" on="0"/>
        <pt x="252" y="614" on="0"/>
        <pt x="252" y="594" on="1"/>
        <pt x="252" y="428" on="1"/>
        <pt x="540" y="428" on="1"/>
        <pt x="540" y="594" on="1"/>
        <pt x="540" y="614" on="0"/>
        <pt x="529" y="629" on="0"/>
        <pt x="511" y="632" on="1"/>
        <pt x="458" y="641" on="1"/>
        <pt x="458" y="720" on="1"/>
        <pt x="744" y="720" on="1"/>
        <pt x="744" y="641" on="1"/>
        <pt x="696" y="632" on="1"/>
        <pt x="678" y="628" on="0"/>
        <pt x="667" y="613" on="0"/>
      </contour>
    </TTGlyph>
    <TTGlyph name="Hcircumflex" xMin="48" yMin="0" xMax="744" yMax="916">
      <contour>
        <pt x="667" y="594" on="1"/>
        <pt x="667" y="126" on="1"/>
        <pt x="667" y="107" on="0"/>
        <pt x="678" y="92" on="0"/>
        <pt x="696" y="88" on="1"/>
        <pt x="744" y="79" on="1"/>
        <pt x="744" y="0" on="1"/>
        <pt x="458" y="0" on="1"/>
        <pt x="458" y="79" on="1"/>
        <pt x="511" y="88" on="1"/>
        <pt x="529" y="91" on="0"/>
        <pt x="540" y="106" on="0"/>
        <pt x="540" y="126" on="1"/>
        <pt x="540" y="326" on="1"/>
        <pt x="252" y="326" on="1"/>
        <pt x="252" y="126" on="1"/>
        <pt x="252" y="106" on="0"/>
        <pt x="263" y="91" on="0"/>
        <pt x="281" y="88" on="1"/>
        <pt x="334" y="79" on="1"/>
        <pt x="334" y="0" on="1"/>
        <pt x="48" y="0" on="1"/>
        <pt x="48" y="79" on="1"/>
        <pt x="96" y="88" on="1"/>
        <pt x="114" y="92" on="0"/>
        <pt x="125" y="107" on="0"/>
        <pt x="125" y="126" on="1"/>
        <pt x="125" y="594" on="1"/>
        <pt x="125" y="613" on="0"/>
        <pt x="114" y="628" on="0"/>
        <pt x="96" y="632" on="1"/>
        <pt x="48" y="641" on="1"/>
        <pt x="48" y="720" on="1"/>
        <pt x="334" y="720" on="1"/>
        <pt x="334" y="641" on="1"/>
        <pt x="281" y="632" on="1"/>
        <pt x="263" y="629" on="0"/>
        <pt x="252" y="614" on="0"/>
        <pt x="252" y="594" on="1"/>
        <pt x="252" y="428" on="1"/>
        <pt x="540" y="428" on="1"/>
        <pt x="540" y="594" on="1"/>
        <pt x="540" y="614" on="0"/>
        <pt x="529" y="629" on="0"/>
        <pt x="511" y="632" on="1"/>
        <pt x="458" y="641" on="1"/>
        <pt x="458" y="720" on="1"/>
        <pt x="744" y="720" on="1"/>
        <pt x="744" y="641" on="1"/>
        <pt x="696" y="632" on="1"/>
        <pt x="678" y="628" on="0"/>
        <pt x="667" y="613" on="0"/>
      </contour>
      <contour>
        <pt x="342" y="916" on="1"/>
        <pt x="451" y="916" on="1"/>
        <pt x="569" y="790" on="1"/>
        <pt x="510" y="742" on="1"/>
        <pt x="396" y="840" on="1"/>
        <pt x="282" y="742" on="1"/>
        <pt x="223" y="790" on="1"/>
      </contour>
    </TTGlyph>
    <TTGlyph name="I" xMin="48" yMin="0" xMax="329" yMax="720">
      <contour>
        <pt x="329" y="79" on="1"/>
        <pt x="329" y="0" on="1"/>
        <pt x="48" y="0" on="1"/>
        <pt x="48" y="79" on="1"/>
        <pt x="96" y="88" on="1"/>
        <pt x="114" y="92" on="0"/>
        <pt x="125" y="107" on="0"/>
        <pt x="125" y="126" on="1"/>
        <pt x="125" y="594" on="1"/>
        <pt x="125" y="613" on="0"/>
        <pt x="114" y="628" on="0"/>
        <pt x="96" y="632" on="1"/>
        <pt x="48" y="641" on="1"/>
        <pt x="48" y="720" on="1"/>
        <pt x="329" y="720" on="1"/>
        <pt x="329" y="641" on="1"/>
        <pt x="281" y="632" on="1"/>
        <pt x="263" y="628" on="0"/>
        <pt x="252" y="613" on="0"/>
        <pt x="252" y="594" on="1"/>
        <pt x="252" y="126" on="1"/>
        <pt x="252" y="107" on="0"/>
        <pt x="263" y="92" on="0"/>
        <pt x="281" y="88" on="1"/>
      </contour>
    </TTGlyph>
    <TTGlyph name="IJ" xMin="48" yMin="-156" xMax="699" yMax="720">
      <contour>
        <pt x="329" y="79" on="1"/>
        <pt x="329" y="0" on="1"/>
        <pt x="48" y="0" on="1"/>
        <pt x="48" y="79" on="1"/>
        <pt x="96" y="88" on="1"/>
        <pt x="114" y="92" on="0"/>
        <pt x="125" y="107" on="0"/>
        <pt x="125" y="126" on="1"/>
        <pt x="125" y="594" on="1"/>
        <pt x="125" y="613" on="0"/>
        <pt x="114" y="628" on="0"/>
        <pt x="96" y="632" on="1"/>
        <pt x="48" y="641" on="1"/>
        <pt x="48" y="720" on="1"/>
        <pt x="329" y="720" on="1"/>
        <pt x="329" y="641" on="1"/>
        <pt x="281" y="632" on="1"/>
        <pt x="263" y="628" on="0"/>
        <pt x="252" y="613" on="0"/>
        <pt x="252" y="594" on="1"/>
        <pt x="252" y="126" on="1"/>
        <pt x="252" y="107" on="0"/>
        <pt x="263" y="92" on="0"/>
        <pt x="281" y="88" on="1"/>
      </contour>
      <contour>
        <pt x="402" y="-156" on="1"/>
        <pt x="342" y="-75" on="1"/>
        <pt x="440" y="-14" on="0"/>
        <pt x="495" y="76" on="0"/>
        <pt x="495" y="179" on="1"/>
        <pt x="495" y="594" on="1"/>
        <pt x="495" y="613" on="0"/>
        <pt x="484" y="628" on="0"/>
        <pt x="466" y="632" on="1"/>
        <pt x="418" y="641" on="1"/>
        <pt x="418" y="720" on="1"/>
        <pt x="699" y="720" on="1"/>
        <pt x="699" y="641" on="1"/>
        <pt x="651" y="632" on="1"/>
        <pt x="633" y="628" on="0"/>
        <pt x="622" y="613" on="0"/>
        <pt x="622" y="594" on="1"/>
        <pt x="622" y="148" on="1"/>
        <pt x="622" y="101" on="0"/>
        <pt x="616" y="37" on="0"/>
        <pt x="593" y="-19" on="0"/>
        <pt x="567" y="-55" on="0"/>
        <pt x="538" y="-76" on="1"/>
        <pt x="494" y="-109" on="0"/>
      </contour>
    </TTGlyph>
    <TTGlyph name="Iacute" xMin="48" yMin="0" xMax="349" yMax="944">
      <contour>
        <pt x="329" y="79" on="1"/>
        <pt x="329" y="0" on="1"/>
        <pt x="48" y="0" on="1"/>
        <pt x="48" y="79" on="1"/>
        <pt x="96" y="88" on="1"/>
        <pt x="114" y="92" on="0"/>
        <pt x="125" y="107" on="0"/>
        <pt x="125" y="126" on="1"/>
        <pt x="125" y="594" on="1"/>
        <pt x="125" y="613" on="0"/>
        <pt x="114" y="628" on="0"/>
        <pt x="96" y="632" on="1"/>
        <pt x="48" y="641" on="1"/>
        <pt x="48" y="720" on="1"/>
        <pt x="329" y="720" on="1"/>
        <pt x="329" y="641" on="1"/>
        <pt x="281" y="632" on="1"/>
        <pt x="263" y="628" on="0"/>
        <pt x="252" y="613" on="0"/>
        <pt x="252" y="594" on="1"/>
        <pt x="252" y="126" on="1"/>
        <pt x="252" y="107" on="0"/>
        <pt x="263" y="92" on="0"/>
        <pt x="281" y="88" on="1"/>
      </contour>
      <contour>
        <pt x="286" y="944" on="1"/>
        <pt x="349" y="858" on="1"/>
        <pt x="207" y="764" on="1"/>
        <pt x="191" y="754" on="0"/>
        <pt x="177" y="754" on="1"/>
        <pt x="144" y="754" on="0"/>
        <pt x="115" y="796" on="1"/>
      </contour>
    </TTGlyph>
    <TTGlyph name="Ibreve" xMin="22" yMin="0" xMax="349" yMax="913">
      <contour>
        <pt x="329" y="79" on="1"/>
        <pt x="329" y="0" on="1"/>
        <pt x="48" y="0" on="1"/>
        <pt x="48" y="79" on="1"/>
        <pt x="96" y="88" on="1"/>
        <pt x="114" y="92" on="0"/>
        <pt x="125" y="107" on="0"/>
        <pt x="125" y="126" on="1"/>
        <pt x="125" y="594" on="1"/>
        <pt x="125" y="613" on="0"/>
        <pt x="114" y="628" on="0"/>
        <pt x="96" y="632" on="1"/>
        <pt x="48" y="641" on="1"/>
        <pt x="48" y="720" on="1"/>
        <pt x="329" y="720" on="1"/>
        <pt x="329" y="641" on="1"/>
        <pt x="281" y="632" on="1"/>
        <pt x="263" y="628" on="0"/>
        <pt x="252" y="613" on="0"/>
        <pt x="252" y="594" on="1"/>
        <pt x="252" y="126" on="1"/>
        <pt x="252" y="107" on="0"/>
        <pt x="263" y="92" on="0"/>
        <pt x="281" y="88" on="1"/>
      </contour>
      <contour>
        <pt x="290" y="913" on="1"/>
        <pt x="349" y="894" on="1"/>
        <pt x="331" y="836" on="0"/>
        <pt x="249" y="763" on="0"/>
        <pt x="125" y="763" on="0"/>
        <pt x="41" y="836" on="0"/>
        <pt x="22" y="894" on="1"/>
        <pt x="86" y="913" on="1"/>
        <pt x="125" y="849" on="0"/>
        <pt x="251" y="849" on="0"/>
      </contour>
    </TTGlyph>
    <TTGlyph name="Icircumflex" xMin="15" yMin="0" xMax="361" yMax="918">
      <contour>
        <pt x="329" y="79" on="1"/>
        <pt x="329" y="0" on="1"/>
        <pt x="48" y="0" on="1"/>
        <pt x="48" y="79" on="1"/>
        <pt x="96" y="88" on="1"/>
        <pt x="114" y="92" on="0"/>
        <pt x="125" y="107" on="0"/>
        <pt x="125" y="126" on="1"/>
        <pt x="125" y="594" on="1"/>
        <pt x="125" y="613" on="0"/>
        <pt x="114" y="628" on="0"/>
        <pt x="96" y="632" on="1"/>
        <pt x="48" y="641" on="1"/>
        <pt x="48" y="720" on="1"/>
        <pt x="329" y="720" on="1"/>
        <pt x="329" y="641" on="1"/>
        <pt x="281" y="632" on="1"/>
        <pt x="263" y="628" on="0"/>
        <pt x="252" y="613" on="0"/>
        <pt x="252" y="594" on="1"/>
        <pt x="252" y="126" on="1"/>
        <pt x="252" y="107" on="0"/>
        <pt x="263" y="92" on="0"/>
        <pt x="281" y="88" on="1"/>
      </contour>
      <contour>
        <pt x="134" y="918" on="1"/>
        <pt x="243" y="918" on="1"/>
        <pt x="361" y="792" on="1"/>
        <pt x="302" y="744" on="1"/>
        <pt x="188" y="842" on="1"/>
        <pt x="74" y="744" on="1"/>
        <pt x="15" y="792" on="1"/>
      </contour>
    </TTGlyph>
    <TTGlyph name="Idieresis" xMin="9" yMin="0" xMax="365" yMax="888">
      <contour>
        <pt x="329" y="79" on="1"/>
        <pt x="329" y="0" on="1"/>
        <pt x="48" y="0" on="1"/>
        <pt x="48" y="79" on="1"/>
        <pt x="96" y="88" on="1"/>
        <pt x="114" y="92" on="0"/>
        <pt x="125" y="107" on="0"/>
        <pt x="125" y="126" on="1"/>
        <pt x="125" y="594" on="1"/>
        <pt x="125" y="613" on="0"/>
        <pt x="114" y="628" on="0"/>
        <pt x="96" y="632" on="1"/>
        <pt x="48" y="641" on="1"/>
        <pt x="48" y="720" on="1"/>
        <pt x="329" y="720" on="1"/>
        <pt x="329" y="641" on="1"/>
        <pt x="281" y="632" on="1"/>
        <pt x="263" y="628" on="0"/>
        <pt x="252" y="613" on="0"/>
        <pt x="252" y="594" on="1"/>
        <pt x="252" y="126" on="1"/>
        <pt x="252" y="107" on="0"/>
        <pt x="263" y="92" on="0"/>
        <pt x="281" y="88" on="1"/>
      </contour>
      <contour>
        <pt x="126" y="888" on="0"/>
        <pt x="150" y="855" on="0"/>
        <pt x="150" y="786" on="0"/>
        <pt x="115" y="757" on="0"/>
        <pt x="43" y="757" on="0"/>
        <pt x="9" y="783" on="0"/>
        <pt x="9" y="854" on="0"/>
        <pt x="40" y="888" on="0"/>
      </contour>
      <contour>
        <pt x="341" y="888" on="0"/>
        <pt x="365" y="855" on="0"/>
        <pt x="365" y="786" on="0"/>
        <pt x="330" y="757" on="0"/>
        <pt x="258" y="757" on="0"/>
        <pt x="224" y="783" on="0"/>
        <pt x="224" y="854" on="0"/>
        <pt x="255" y="888" on="0"/>
      </contour>
    </TTGlyph>
    <TTGlyph name="Idotaccent" xMin="48" yMin="0" xMax="329" yMax="902">
      <contour>
        <pt x="329" y="79" on="1"/>
        <pt x="329" y="0" on="1"/>
        <pt x="48" y="0" on="1"/>
        <pt x="48" y="79" on="1"/>
        <pt x="96" y="88" on="1"/>
        <pt x="114" y="92" on="0"/>
        <pt x="125" y="107" on="0"/>
        <pt x="125" y="126" on="1"/>
        <pt x="125" y="594" on="1"/>
        <pt x="125" y="613" on="0"/>
        <pt x="114" y="628" on="0"/>
        <pt x="96" y="632" on="1"/>
        <pt x="48" y="641" on="1"/>
        <pt x="48" y="720" on="1"/>
        <pt x="329" y="720" on="1"/>
        <pt x="329" y="641" on="1"/>
        <pt x="281" y="632" on="1"/>
        <pt x="263" y="628" on="0"/>
        <pt x="252" y="613" on="0"/>
        <pt x="252" y="594" on="1"/>
        <pt x="252" y="126" on="1"/>
        <pt x="252" y="107" on="0"/>
        <pt x="263" y="92" on="0"/>
        <pt x="281" y="88" on="1"/>
      </contour>
      <contour>
        <pt x="244" y="902" on="0"/>
        <pt x="272" y="863" on="0"/>
        <pt x="272" y="781" on="0"/>
        <pt x="231" y="747" on="0"/>
        <pt x="147" y="747" on="0"/>
        <pt x="107" y="778" on="0"/>
        <pt x="107" y="862" on="0"/>
        <pt x="143" y="902" on="0"/>
      </contour>
    </TTGlyph>
    <TTGlyph name="Igrave" xMin="24" yMin="0" xMax="329" yMax="945">
      <contour>
        <pt x="329" y="79" on="1"/>
        <pt x="329" y="0" on="1"/>
        <pt x="48" y="0" on="1"/>
        <pt x="48" y="79" on="1"/>
        <pt x="96" y="88" on="1"/>
        <pt x="114" y="92" on="0"/>
        <pt x="125" y="107" on="0"/>
        <pt x="125" y="126" on="1"/>
        <pt x="125" y="594" on="1"/>
        <pt x="125" y="613" on="0"/>
        <pt x="114" y="628" on="0"/>
        <pt x="96" y="632" on="1"/>
        <pt x="48" y="641" on="1"/>
        <pt x="48" y="720" on="1"/>
        <pt x="329" y="720" on="1"/>
        <pt x="329" y="641" on="1"/>
        <pt x="281" y="632" on="1"/>
        <pt x="263" y="628" on="0"/>
        <pt x="252" y="613" on="0"/>
        <pt x="252" y="594" on="1"/>
        <pt x="252" y="126" on="1"/>
        <pt x="252" y="107" on="0"/>
        <pt x="263" y="92" on="0"/>
        <pt x="281" y="88" on="1"/>
      </contour>
      <contour>
        <pt x="24" y="859" on="1"/>
        <pt x="87" y="945" on="1"/>
        <pt x="258" y="797" on="1"/>
        <pt x="229" y="755" on="0"/>
        <pt x="196" y="755" on="1"/>
        <pt x="182" y="755" on="0"/>
        <pt x="166" y="765" on="1"/>
      </contour>
    </TTGlyph>
    <TTGlyph name="Imacron" xMin="43" yMin="0" xMax="340" yMax="889">
      <component glyphName="I" x="0" y="0" flags="0x1004"/>
      <component glyphName="macron" x="-5" y="190" flags="0x1004"/>
    </TTGlyph>
    <TTGlyph name="Iogonek" xMin="48" yMin="-230" xMax="332" yMax="720">
      <component glyphName="I" x="0" y="0" flags="0x1004"/>
      <component glyphName="ogonek" x="101" y="0" flags="0x1004"/>
    </TTGlyph>
    <TTGlyph name="Itilde" xMin="19" yMin="0" xMax="351" yMax="899">
      <component glyphName="I" x="0" y="0" flags="0x1004"/>
      <component glyphName="tilde" x="-14" y="190" flags="0x1004"/>
    </TTGlyph>
    <TTGlyph name="J" xMin="-35" yMin="-156" xMax="322" yMax="720">
      <contour>
        <pt x="25" y="-156" on="1"/>
        <pt x="-35" y="-75" on="1"/>
        <pt x="63" y="-14" on="0"/>
        <pt x="118" y="76" on="0"/>
        <pt x="118" y="179" on="1"/>
        <pt x="118" y="594" on="1"/>
        <pt x="118" y="613" on="0"/>
        <pt x="107" y="628" on="0"/>
        <pt x="89" y="632" on="1"/>
        <pt x="41" y="641" on="1"/>
        <pt x="41" y="720" on="1"/>
        <pt x="322" y="720" on="1"/>
        <pt x="322" y="641" on="1"/>
        <pt x="274" y="632" on="1"/>
        <pt x="256" y="628" on="0"/>
        <pt x="245" y="613" on="0"/>
        <pt x="245" y="594" on="1"/>
        <pt x="245" y="148" on="1"/>
        <pt x="245" y="101" on="0"/>
        <pt x="239" y="37" on="0"/>
        <pt x="216" y="-19" on="0"/>
        <pt x="190" y="-55" on="0"/>
        <pt x="161" y="-76" on="1"/>
        <pt x="117" y="-109" on="0"/>
      </contour>
    </TTGlyph>
    <TTGlyph name="Jcircumflex" xMin="-35" yMin="-156" xMax="361" yMax="918">
      <contour>
        <pt x="25" y="-156" on="1"/>
        <pt x="-35" y="-75" on="1"/>
        <pt x="63" y="-14" on="0"/>
        <pt x="118" y="76" on="0"/>
        <pt x="118" y="179" on="1"/>
        <pt x="118" y="594" on="1"/>
        <pt x="118" y="613" on="0"/>
        <pt x="107" y="628" on="0"/>
        <pt x="89" y="632" on="1"/>
        <pt x="41" y="641" on="1"/>
        <pt x="41" y="720" on="1"/>
        <pt x="322" y="720" on="1"/>
        <pt x="322" y="641" on="1"/>
        <pt x="274" y="632" on="1"/>
        <pt x="256" y="628" on="0"/>
        <pt x="245" y="613" on="0"/>
        <pt x="245" y="594" on="1"/>
        <pt x="245" y="148" on="1"/>
        <pt x="245" y="101" on="0"/>
        <pt x="239" y="37" on="0"/>
        <pt x="216" y="-19" on="0"/>
        <pt x="190" y="-55" on="0"/>
        <pt x="161" y="-76" on="1"/>
        <pt x="117" y="-109" on="0"/>
      </contour>
      <contour>
        <pt x="134" y="918" on="1"/>
        <pt x="243" y="918" on="1"/>
        <pt x="361" y="792" on="1"/>
        <pt x="302" y="744" on="1"/>
        <pt x="188" y="842" on="1"/>
        <pt x="74" y="744" on="1"/>
        <pt x="15" y="792" on="1"/>
      </contour>
    </TTGlyph>
    <TTGlyph name="K" xMin="48" yMin="-10" xMax="695" yMax="720">
      <contour>
        <pt x="562" y="601" on="1"/>
        <pt x="379" y="401" on="1"/>
        <pt x="548" y="168" on="1"/>
        <pt x="580" y="123" on="0"/>
        <pt x="621" y="94" on="0"/>
        <pt x="672" y="94" on="0"/>
        <pt x="695" y="104" on="1"/>
        <pt x="687" y="12" on="1"/>
        <pt x="651" y="-10" on="0"/>
        <pt x="547" y="-10" on="0"/>
        <pt x="478" y="43" on="0"/>
        <pt x="442" y="97" on="1"/>
        <pt x="252" y="378" on="1"/>
        <pt x="252" y="126" on="1"/>
        <pt x="252" y="106" on="0"/>
        <pt x="263" y="91" on="0"/>
        <pt x="281" y="88" on="1"/>
        <pt x="333" y="79" on="1"/>
        <pt x="333" y="0" on="1"/>
        <pt x="48" y="0" on="1"/>
        <pt x="48" y="79" on="1"/>
        <pt x="96" y="88" on="1"/>
        <pt x="114" y="92" on="0"/>
        <pt x="125" y="107" on="0"/>
        <pt x="125" y="126" on="1"/>
        <pt x="125" y="594" on="1"/>
        <pt x="125" y="613" on="0"/>
        <pt x="114" y="628" on="0"/>
        <pt x="96" y="632" on="1"/>
        <pt x="48" y="641" on="1"/>
        <pt x="48" y="720" on="1"/>
        <pt x="333" y="720" on="1"/>
        <pt x="333" y="641" on="1"/>
        <pt x="281" y="632" on="1"/>
        <pt x="263" y="629" on="0"/>
        <pt x="252" y="614" on="0"/>
        <pt x="252" y="594" on="1"/>
        <pt x="252" y="410" on="1"/>
        <pt x="490" y="676" on="1"/>
        <pt x="528" y="720" on="0"/>
        <pt x="589" y="720" on="1"/>
        <pt x="654" y="720" on="1"/>
        <pt x="654" y="632" on="1"/>
        <pt x="630" y="632" on="0"/>
        <pt x="618" y="631" on="1"/>
        <pt x="587" y="628" on="0"/>
      </contour>
    </TTGlyph>
    <TTGlyph name="Kcommaaccent" xMin="48" yMin="-261" xMax="695" yMax="720">
      <contour>
        <pt x="562" y="601" on="1"/>
        <pt x="379" y="401" on="1"/>
        <pt x="548" y="168" on="1"/>
        <pt x="580" y="123" on="0"/>
        <pt x="621" y="94" on="0"/>
        <pt x="672" y="94" on="0"/>
        <pt x="695" y="104" on="1"/>
        <pt x="687" y="12" on="1"/>
        <pt x="651" y="-10" on="0"/>
        <pt x="547" y="-10" on="0"/>
        <pt x="478" y="43" on="0"/>
        <pt x="442" y="97" on="1"/>
        <pt x="252" y="378" on="1"/>
        <pt x="252" y="126" on="1"/>
        <pt x="252" y="106" on="0"/>
        <pt x="263" y="91" on="0"/>
        <pt x="281" y="88" on="1"/>
        <pt x="333" y="79" on="1"/>
        <pt x="333" y="0" on="1"/>
        <pt x="48" y="0" on="1"/>
        <pt x="48" y="79" on="1"/>
        <pt x="96" y="88" on="1"/>
        <pt x="114" y="92" on="0"/>
        <pt x="125" y="107" on="0"/>
        <pt x="125" y="126" on="1"/>
        <pt x="125" y="594" on="1"/>
        <pt x="125" y="613" on="0"/>
        <pt x="114" y="628" on="0"/>
        <pt x="96" y="632" on="1"/>
        <pt x="48" y="641" on="1"/>
        <pt x="48" y="720" on="1"/>
        <pt x="333" y="720" on="1"/>
        <pt x="333" y="641" on="1"/>
        <pt x="281" y="632" on="1"/>
        <pt x="263" y="629" on="0"/>
        <pt x="252" y="614" on="0"/>
        <pt x="252" y="594" on="1"/>
        <pt x="252" y="410" on="1"/>
        <pt x="490" y="676" on="1"/>
        <pt x="528" y="720" on="0"/>
        <pt x="589" y="720" on="1"/>
        <pt x="654" y="720" on="1"/>
        <pt x="654" y="632" on="1"/>
        <pt x="630" y="632" on="0"/>
        <pt x="618" y="631" on="1"/>
        <pt x="587" y="628" on="0"/>
      </contour>
      <contour>
        <pt x="426" y="-105" on="1"/>
        <pt x="426" y="-156" on="0"/>
        <pt x="360" y="-242" on="0"/>
        <pt x="317" y="-261" on="1"/>
        <pt x="284" y="-227" on="1"/>
        <pt x="310" y="-211" on="0"/>
        <pt x="349" y="-171" on="0"/>
        <pt x="349" y="-156" on="1"/>
        <pt x="344" y="-159" on="0"/>
        <pt x="338" y="-159" on="1"/>
        <pt x="307" y="-159" on="0"/>
        <pt x="274" y="-122" on="0"/>
        <pt x="274" y="-95" on="1"/>
        <pt x="274" y="-32" on="0"/>
        <pt x="347" y="-32" on="1"/>
        <pt x="387" y="-32" on="0"/>
        <pt x="426" y="-73" on="0"/>
      </contour>
    </TTGlyph>
    <TTGlyph name="L" xMin="48" yMin="0" xMax="545" yMax="720">
      <contour>
        <pt x="545" y="0" on="1"/>
        <pt x="48" y="0" on="1"/>
        <pt x="48" y="79" on="1"/>
        <pt x="96" y="88" on="1"/>
        <pt x="114" y="92" on="0"/>
        <pt x="125" y="107" on="0"/>
        <pt x="125" y="126" on="1"/>
        <pt x="125" y="594" on="1"/>
        <pt x="125" y="613" on="0"/>
        <pt x="114" y="628" on="0"/>
        <pt x="96" y="632" on="1"/>
        <pt x="48" y="641" on="1"/>
        <pt x="48" y="720" on="1"/>
        <pt x="336" y="720" on="1"/>
        <pt x="336" y="641" on="1"/>
        <pt x="281" y="632" on="1"/>
        <pt x="263" y="629" on="0"/>
        <pt x="252" y="614" on="0"/>
        <pt x="252" y="594" on="1"/>
        <pt x="252" y="104" on="1"/>
        <pt x="407" y="104" on="1"/>
        <pt x="426" y="104" on="0"/>
        <pt x="444" y="115" on="0"/>
        <pt x="445" y="133" on="1"/>
        <pt x="452" y="203" on="1"/>
        <pt x="538" y="203" on="1"/>
      </contour>
    </TTGlyph>
    <TTGlyph name="Lacute" xMin="48" yMin="0" xMax="545" yMax="944">
      <contour>
        <pt x="545" y="0" on="1"/>
        <pt x="48" y="0" on="1"/>
        <pt x="48" y="79" on="1"/>
        <pt x="96" y="88" on="1"/>
        <pt x="114" y="92" on="0"/>
        <pt x="125" y="107" on="0"/>
        <pt x="125" y="126" on="1"/>
        <pt x="125" y="594" on="1"/>
        <pt x="125" y="613" on="0"/>
        <pt x="114" y="628" on="0"/>
        <pt x="96" y="632" on="1"/>
        <pt x="48" y="641" on="1"/>
        <pt x="48" y="720" on="1"/>
        <pt x="336" y="720" on="1"/>
        <pt x="336" y="641" on="1"/>
        <pt x="281" y="632" on="1"/>
        <pt x="263" y="629" on="0"/>
        <pt x="252" y="614" on="0"/>
        <pt x="252" y="594" on="1"/>
        <pt x="252" y="104" on="1"/>
        <pt x="407" y="104" on="1"/>
        <pt x="426" y="104" on="0"/>
        <pt x="444" y="115" on="0"/>
        <pt x="445" y="133" on="1"/>
        <pt x="452" y="203" on="1"/>
        <pt x="538" y="203" on="1"/>
      </contour>
      <contour>
        <pt x="295" y="944" on="1"/>
        <pt x="358" y="858" on="1"/>
        <pt x="216" y="764" on="1"/>
        <pt x="200" y="754" on="0"/>
        <pt x="186" y="754" on="1"/>
        <pt x="153" y="754" on="0"/>
        <pt x="124" y="796" on="1"/>
      </contour>
    </TTGlyph>
    <TTGlyph name="Lcaron" xMin="48" yMin="0" xMax="545" yMax="763">
      <contour>
        <pt x="538" y="690" on="1"/>
        <pt x="538" y="639" on="0"/>
        <pt x="472" y="553" on="0"/>
        <pt x="429" y="534" on="1"/>
        <pt x="396" y="568" on="1"/>
        <pt x="422" y="584" on="0"/>
        <pt x="461" y="624" on="0"/>
        <pt x="461" y="639" on="1"/>
        <pt x="455" y="636" on="0"/>
        <pt x="450" y="636" on="1"/>
        <pt x="419" y="636" on="0"/>
        <pt x="386" y="673" on="0"/>
        <pt x="386" y="700" on="1"/>
        <pt x="386" y="763" on="0"/>
        <pt x="459" y="763" on="1"/>
        <pt x="499" y="763" on="0"/>
        <pt x="538" y="722" on="0"/>
      </contour>
      <contour>
        <pt x="545" y="0" on="1"/>
        <pt x="48" y="0" on="1"/>
        <pt x="48" y="79" on="1"/>
        <pt x="96" y="88" on="1"/>
        <pt x="114" y="92" on="0"/>
        <pt x="125" y="107" on="0"/>
        <pt x="125" y="126" on="1"/>
        <pt x="125" y="594" on="1"/>
        <pt x="125" y="613" on="0"/>
        <pt x="114" y="628" on="0"/>
        <pt x="96" y="632" on="1"/>
        <pt x="48" y="641" on="1"/>
        <pt x="48" y="720" on="1"/>
        <pt x="336" y="720" on="1"/>
        <pt x="336" y="641" on="1"/>
        <pt x="281" y="632" on="1"/>
        <pt x="263" y="629" on="0"/>
        <pt x="252" y="614" on="0"/>
        <pt x="252" y="594" on="1"/>
        <pt x="252" y="104" on="1"/>
        <pt x="407" y="104" on="1"/>
        <pt x="426" y="104" on="0"/>
        <pt x="444" y="115" on="0"/>
        <pt x="445" y="133" on="1"/>
        <pt x="452" y="203" on="1"/>
        <pt x="538" y="203" on="1"/>
      </contour>
    </TTGlyph>
    <TTGlyph name="Lcommaaccent" xMin="48" yMin="-261" xMax="545" yMax="720">
      <contour>
        <pt x="545" y="0" on="1"/>
        <pt x="48" y="0" on="1"/>
        <pt x="48" y="79" on="1"/>
        <pt x="96" y="88" on="1"/>
        <pt x="114" y="92" on="0"/>
        <pt x="125" y="107" on="0"/>
        <pt x="125" y="126" on="1"/>
        <pt x="125" y="594" on="1"/>
        <pt x="125" y="613" on="0"/>
        <pt x="114" y="628" on="0"/>
        <pt x="96" y="632" on="1"/>
        <pt x="48" y="641" on="1"/>
        <pt x="48" y="720" on="1"/>
        <pt x="336" y="720" on="1"/>
        <pt x="336" y="641" on="1"/>
        <pt x="281" y="632" on="1"/>
        <pt x="263" y="629" on="0"/>
        <pt x="252" y="614" on="0"/>
        <pt x="252" y="594" on="1"/>
        <pt x="252" y="104" on="1"/>
        <pt x="407" y="104" on="1"/>
        <pt x="426" y="104" on="0"/>
        <pt x="444" y="115" on="0"/>
        <pt x="445" y="133" on="1"/>
        <pt x="452" y="203" on="1"/>
        <pt x="538" y="203" on="1"/>
      </contour>
      <contour>
        <pt x="356" y="-105" on="1"/>
        <pt x="356" y="-156" on="0"/>
        <pt x="290" y="-242" on="0"/>
        <pt x="247" y="-261" on="1"/>
        <pt x="214" y="-227" on="1"/>
        <pt x="240" y="-211" on="0"/>
        <pt x="279" y="-171" on="0"/>
        <pt x="279" y="-156" on="1"/>
        <pt x="274" y="-159" on="0"/>
        <pt x="268" y="-159" on="1"/>
        <pt x="237" y="-159" on="0"/>
        <pt x="204" y="-122" on="0"/>
        <pt x="204" y="-95" on="1"/>
        <pt x="204" y="-32" on="0"/>
        <pt x="277" y="-32" on="1"/>
        <pt x="317" y="-32" on="0"/>
        <pt x="356" y="-73" on="0"/>
      </contour>
    </TTGlyph>
    <TTGlyph name="Ldot" xMin="48" yMin="0" xMax="545" yMax="720">
      <component glyphName="L" x="0" y="0" flags="0x1004"/>
      <component glyphName="periodcentered" x="273" y="82" flags="0x1004"/>
    </TTGlyph>
    <TTGlyph name="Lslash" xMin="48" yMin="0" xMax="545" yMax="720">
      <contour>
        <pt x="51" y="222" on="1"/>
        <pt x="51" y="322" on="1"/>
        <pt x="391" y="518" on="1"/>
        <pt x="391" y="419" on="1"/>
      </contour>
      <contour>
        <pt x="545" y="0" on="1"/>
        <pt x="48" y="0" on="1"/>
        <pt x="48" y="79" on="1"/>
        <pt x="96" y="88" on="1"/>
        <pt x="114" y="92" on="0"/>
        <pt x="125" y="107" on="0"/>
        <pt x="125" y="126" on="1"/>
        <pt x="125" y="594" on="1"/>
        <pt x="125" y="613" on="0"/>
        <pt x="114" y="628" on="0"/>
        <pt x="96" y="632" on="1"/>
        <pt x="48" y="641" on="1"/>
        <pt x="48" y="720" on="1"/>
        <pt x="336" y="720" on="1"/>
        <pt x="336" y="641" on="1"/>
        <pt x="281" y="632" on="1"/>
        <pt x="263" y="629" on="0"/>
        <pt x="252" y="614" on="0"/>
        <pt x="252" y="594" on="1"/>
        <pt x="252" y="104" on="1"/>
        <pt x="407" y="104" on="1"/>
        <pt x="426" y="104" on="0"/>
        <pt x="444" y="115" on="0"/>
        <pt x="445" y="133" on="1"/>
        <pt x="452" y="203" on="1"/>
        <pt x="538" y="203" on="1"/>
      </contour>
    </TTGlyph>
    <TTGlyph name="M" xMin="31" yMin="0" xMax="952" yMax="720">
      <contour>
        <pt x="263" y="461" on="1"/>
        <pt x="243" y="525" on="1"/>
        <pt x="243" y="460" on="1"/>
        <pt x="221" y="119" on="1"/>
        <pt x="220" y="89" on="0"/>
        <pt x="251" y="85" on="1"/>
        <pt x="298" y="79" on="1"/>
        <pt x="298" y="0" on="1"/>
        <pt x="31" y="0" on="1"/>
        <pt x="31" y="79" on="1"/>
        <pt x="79" y="88" on="1"/>
        <pt x="97" y="92" on="0"/>
        <pt x="106" y="105" on="0"/>
        <pt x="108" y="125" on="1"/>
        <pt x="148" y="605" on="1"/>
        <pt x="151" y="631" on="0"/>
        <pt x="118" y="635" on="1"/>
        <pt x="71" y="641" on="1"/>
        <pt x="71" y="720" on="1"/>
        <pt x="302" y="720" on="1"/>
        <pt x="481" y="210" on="1"/>
        <pt x="492" y="158" on="1"/>
        <pt x="502" y="210" on="1"/>
        <pt x="668" y="720" on="1"/>
        <pt x="908" y="720" on="1"/>
        <pt x="908" y="641" on="1"/>
        <pt x="857" y="635" on="1"/>
        <pt x="832" y="632" on="0"/>
        <pt x="828" y="620" on="1"/>
        <pt x="826" y="615" on="0"/>
        <pt x="826" y="606" on="0"/>
        <pt x="826" y="603" on="1"/>
        <pt x="869" y="125" on="1"/>
        <pt x="871" y="105" on="0"/>
        <pt x="880" y="91" on="0"/>
        <pt x="898" y="88" on="1"/>
        <pt x="952" y="79" on="1"/>
        <pt x="952" y="0" on="1"/>
        <pt x="666" y="0" on="1"/>
        <pt x="666" y="79" on="1"/>
        <pt x="715" y="85" on="1"/>
        <pt x="747" y="89" on="0"/>
        <pt x="744" y="117" on="1"/>
        <pt x="716" y="460" on="1"/>
        <pt x="714" y="525" on="1"/>
        <pt x="699" y="463" on="1"/>
        <pt x="543" y="0" on="1"/>
        <pt x="427" y="0" on="1"/>
      </contour>
    </TTGlyph>
    <TTGlyph name="Macute" xMin="31" yMin="0" xMax="952" yMax="944">
      <contour>
        <pt x="263" y="461" on="1"/>
        <pt x="243" y="525" on="1"/>
        <pt x="243" y="460" on="1"/>
        <pt x="221" y="119" on="1"/>
        <pt x="220" y="89" on="0"/>
        <pt x="251" y="85" on="1"/>
        <pt x="298" y="79" on="1"/>
        <pt x="298" y="0" on="1"/>
        <pt x="31" y="0" on="1"/>
        <pt x="31" y="79" on="1"/>
        <pt x="79" y="88" on="1"/>
        <pt x="97" y="92" on="0"/>
        <pt x="106" y="105" on="0"/>
        <pt x="108" y="125" on="1"/>
        <pt x="148" y="605" on="1"/>
        <pt x="151" y="631" on="0"/>
        <pt x="118" y="635" on="1"/>
        <pt x="71" y="641" on="1"/>
        <pt x="71" y="720" on="1"/>
        <pt x="302" y="720" on="1"/>
        <pt x="481" y="210" on="1"/>
        <pt x="492" y="158" on="1"/>
        <pt x="502" y="210" on="1"/>
        <pt x="668" y="720" on="1"/>
        <pt x="908" y="720" on="1"/>
        <pt x="908" y="641" on="1"/>
        <pt x="857" y="635" on="1"/>
        <pt x="832" y="632" on="0"/>
        <pt x="828" y="620" on="1"/>
        <pt x="826" y="615" on="0"/>
        <pt x="826" y="606" on="0"/>
        <pt x="826" y="603" on="1"/>
        <pt x="869" y="125" on="1"/>
        <pt x="871" y="105" on="0"/>
        <pt x="880" y="91" on="0"/>
        <pt x="898" y="88" on="1"/>
        <pt x="952" y="79" on="1"/>
        <pt x="952" y="0" on="1"/>
        <pt x="666" y="0" on="1"/>
        <pt x="666" y="79" on="1"/>
        <pt x="715" y="85" on="1"/>
        <pt x="747" y="89" on="0"/>
        <pt x="744" y="117" on="1"/>
        <pt x="716" y="460" on="1"/>
        <pt x="714" y="525" on="1"/>
        <pt x="699" y="463" on="1"/>
        <pt x="543" y="0" on="1"/>
        <pt x="427" y="0" on="1"/>
      </contour>
      <contour>
        <pt x="590" y="944" on="1"/>
        <pt x="653" y="858" on="1"/>
        <pt x="511" y="764" on="1"/>
        <pt x="495" y="754" on="0"/>
        <pt x="481" y="754" on="1"/>
        <pt x="448" y="754" on="0"/>
        <pt x="419" y="796" on="1"/>
      </contour>
    </TTGlyph>
    <TTGlyph name="N" xMin="48" yMin="0" xMax="767" yMax="720">
      <contour>
        <pt x="49" y="720" on="1"/>
        <pt x="257" y="720" on="1"/>
        <pt x="564" y="229" on="1"/>
        <pt x="564" y="595" on="1"/>
        <pt x="564" y="615" on="0"/>
        <pt x="554" y="633" on="0"/>
        <pt x="536" y="635" on="1"/>
        <pt x="489" y="641" on="1"/>
        <pt x="489" y="720" on="1"/>
        <pt x="767" y="720" on="1"/>
        <pt x="767" y="641" on="1"/>
        <pt x="720" y="635" on="1"/>
        <pt x="702" y="633" on="0"/>
        <pt x="691" y="615" on="0"/>
        <pt x="691" y="595" on="1"/>
        <pt x="691" y="0" on="1"/>
        <pt x="559" y="0" on="1"/>
        <pt x="252" y="491" on="1"/>
        <pt x="252" y="126" on="1"/>
        <pt x="252" y="106" on="0"/>
        <pt x="263" y="90" on="0"/>
        <pt x="281" y="88" on="1"/>
        <pt x="329" y="79" on="1"/>
        <pt x="329" y="0" on="1"/>
        <pt x="48" y="0" on="1"/>
        <pt x="48" y="79" on="1"/>
        <pt x="96" y="88" on="1"/>
        <pt x="114" y="91" on="0"/>
        <pt x="125" y="106" on="0"/>
        <pt x="125" y="126" on="1"/>
        <pt x="125" y="595" on="1"/>
        <pt x="125" y="615" on="0"/>
        <pt x="114" y="633" on="0"/>
        <pt x="96" y="635" on="1"/>
        <pt x="49" y="641" on="1"/>
      </contour>
    </TTGlyph>
    <TTGlyph name="Nacute" xMin="48" yMin="0" xMax="767" yMax="944">
      <contour>
        <pt x="49" y="720" on="1"/>
        <pt x="257" y="720" on="1"/>
        <pt x="564" y="229" on="1"/>
        <pt x="564" y="595" on="1"/>
        <pt x="564" y="615" on="0"/>
        <pt x="554" y="633" on="0"/>
        <pt x="536" y="635" on="1"/>
        <pt x="489" y="641" on="1"/>
        <pt x="489" y="720" on="1"/>
        <pt x="767" y="720" on="1"/>
        <pt x="767" y="641" on="1"/>
        <pt x="720" y="635" on="1"/>
        <pt x="702" y="633" on="0"/>
        <pt x="691" y="615" on="0"/>
        <pt x="691" y="595" on="1"/>
        <pt x="691" y="0" on="1"/>
        <pt x="559" y="0" on="1"/>
        <pt x="252" y="491" on="1"/>
        <pt x="252" y="126" on="1"/>
        <pt x="252" y="106" on="0"/>
        <pt x="263" y="90" on="0"/>
        <pt x="281" y="88" on="1"/>
        <pt x="329" y="79" on="1"/>
        <pt x="329" y="0" on="1"/>
        <pt x="48" y="0" on="1"/>
        <pt x="48" y="79" on="1"/>
        <pt x="96" y="88" on="1"/>
        <pt x="114" y="91" on="0"/>
        <pt x="125" y="106" on="0"/>
        <pt x="125" y="126" on="1"/>
        <pt x="125" y="595" on="1"/>
        <pt x="125" y="615" on="0"/>
        <pt x="114" y="633" on="0"/>
        <pt x="96" y="635" on="1"/>
        <pt x="49" y="641" on="1"/>
      </contour>
      <contour>
        <pt x="506" y="944" on="1"/>
        <pt x="569" y="858" on="1"/>
        <pt x="427" y="764" on="1"/>
        <pt x="411" y="754" on="0"/>
        <pt x="397" y="754" on="1"/>
        <pt x="364" y="754" on="0"/>
        <pt x="335" y="796" on="1"/>
      </contour>
    </TTGlyph>
    <TTGlyph name="Ncaron" xMin="48" yMin="0" xMax="767" yMax="928">
      <contour>
        <pt x="49" y="720" on="1"/>
        <pt x="257" y="720" on="1"/>
        <pt x="564" y="229" on="1"/>
        <pt x="564" y="595" on="1"/>
        <pt x="564" y="615" on="0"/>
        <pt x="554" y="633" on="0"/>
        <pt x="536" y="635" on="1"/>
        <pt x="489" y="641" on="1"/>
        <pt x="489" y="720" on="1"/>
        <pt x="767" y="720" on="1"/>
        <pt x="767" y="641" on="1"/>
        <pt x="720" y="635" on="1"/>
        <pt x="702" y="633" on="0"/>
        <pt x="691" y="615" on="0"/>
        <pt x="691" y="595" on="1"/>
        <pt x="691" y="0" on="1"/>
        <pt x="559" y="0" on="1"/>
        <pt x="252" y="491" on="1"/>
        <pt x="252" y="126" on="1"/>
        <pt x="252" y="106" on="0"/>
        <pt x="263" y="90" on="0"/>
        <pt x="281" y="88" on="1"/>
        <pt x="329" y="79" on="1"/>
        <pt x="329" y="0" on="1"/>
        <pt x="48" y="0" on="1"/>
        <pt x="48" y="79" on="1"/>
        <pt x="96" y="88" on="1"/>
        <pt x="114" y="91" on="0"/>
        <pt x="125" y="106" on="0"/>
        <pt x="125" y="126" on="1"/>
        <pt x="125" y="595" on="1"/>
        <pt x="125" y="615" on="0"/>
        <pt x="114" y="633" on="0"/>
        <pt x="96" y="635" on="1"/>
        <pt x="49" y="641" on="1"/>
      </contour>
      <contour>
        <pt x="462" y="754" on="1"/>
        <pt x="353" y="754" on="1"/>
        <pt x="234" y="880" on="1"/>
        <pt x="293" y="928" on="1"/>
        <pt x="407" y="830" on="1"/>
        <pt x="521" y="928" on="1"/>
        <pt x="580" y="880" on="1"/>
      </contour>
    </TTGlyph>
    <TTGlyph name="Ncommaaccent" xMin="48" yMin="-261" xMax="767" yMax="720">
      <contour>
        <pt x="49" y="720" on="1"/>
        <pt x="257" y="720" on="1"/>
        <pt x="564" y="229" on="1"/>
        <pt x="564" y="595" on="1"/>
        <pt x="564" y="615" on="0"/>
        <pt x="554" y="633" on="0"/>
        <pt x="536" y="635" on="1"/>
        <pt x="489" y="641" on="1"/>
        <pt x="489" y="720" on="1"/>
        <pt x="767" y="720" on="1"/>
        <pt x="767" y="641" on="1"/>
        <pt x="720" y="635" on="1"/>
        <pt x="702" y="633" on="0"/>
        <pt x="691" y="615" on="0"/>
        <pt x="691" y="595" on="1"/>
        <pt x="691" y="0" on="1"/>
        <pt x="559" y="0" on="1"/>
        <pt x="252" y="491" on="1"/>
        <pt x="252" y="126" on="1"/>
        <pt x="252" y="106" on="0"/>
        <pt x="263" y="90" on="0"/>
        <pt x="281" y="88" on="1"/>
        <pt x="329" y="79" on="1"/>
        <pt x="329" y="0" on="1"/>
        <pt x="48" y="0" on="1"/>
        <pt x="48" y="79" on="1"/>
        <pt x="96" y="88" on="1"/>
        <pt x="114" y="91" on="0"/>
        <pt x="125" y="106" on="0"/>
        <pt x="125" y="126" on="1"/>
        <pt x="125" y="595" on="1"/>
        <pt x="125" y="615" on="0"/>
        <pt x="114" y="633" on="0"/>
        <pt x="96" y="635" on="1"/>
        <pt x="49" y="641" on="1"/>
      </contour>
      <contour>
        <pt x="489" y="-105" on="1"/>
        <pt x="489" y="-156" on="0"/>
        <pt x="423" y="-242" on="0"/>
        <pt x="380" y="-261" on="1"/>
        <pt x="347" y="-227" on="1"/>
        <pt x="373" y="-211" on="0"/>
        <pt x="412" y="-171" on="0"/>
        <pt x="412" y="-156" on="1"/>
        <pt x="407" y="-159" on="0"/>
        <pt x="401" y="-159" on="1"/>
        <pt x="370" y="-159" on="0"/>
        <pt x="337" y="-122" on="0"/>
        <pt x="337" y="-95" on="1"/>
        <pt x="337" y="-32" on="0"/>
        <pt x="410" y="-32" on="1"/>
        <pt x="450" y="-32" on="0"/>
        <pt x="489" y="-73" on="0"/>
      </contour>
    </TTGlyph>
    <TTGlyph name="Ntilde" xMin="48" yMin="0" xMax="767" yMax="898">
      <component glyphName="N" x="0" y="0" flags="0x1004"/>
      <component glyphName="tilde" x="208" y="189" flags="0x1004"/>
    </TTGlyph>
    <TTGlyph name="O" xMin="39" yMin="-10" xMax="702" yMax="730">
      <contour>
        <pt x="622" y="104" on="1"/>
        <pt x="581" y="51" on="0"/>
        <pt x="440" y="-10" on="0"/>
        <pt x="347" y="-10" on="1"/>
        <pt x="187" y="-10" on="0"/>
        <pt x="39" y="188" on="0"/>
        <pt x="39" y="360" on="1"/>
        <pt x="39" y="511" on="0"/>
        <pt x="120" y="616" on="1"/>
        <pt x="160" y="669" on="0"/>
        <pt x="301" y="730" on="0"/>
        <pt x="394" y="730" on="1"/>
        <pt x="554" y="730" on="0"/>
        <pt x="702" y="532" on="0"/>
        <pt x="702" y="209" on="0"/>
      </contour>
      <contour>
        <pt x="565" y="489" on="0"/>
        <pt x="458" y="626" on="0"/>
        <pt x="271" y="626" on="0"/>
        <pt x="233" y="591" on="1"/>
        <pt x="206" y="566" on="0"/>
        <pt x="176" y="425" on="0"/>
        <pt x="176" y="354" on="1"/>
        <pt x="176" y="231" on="0"/>
        <pt x="283" y="94" on="0"/>
        <pt x="472" y="94" on="0"/>
        <pt x="508" y="129" on="1"/>
        <pt x="534" y="154" on="0"/>
        <pt x="565" y="296" on="0"/>
        <pt x="565" y="366" on="1"/>
      </contour>
    </TTGlyph>
    <TTGlyph name="OE" xMin="39" yMin="-10" xMax="1014" yMax="730">
      <contour>
        <pt x="1014" y="0" on="1"/>
        <pt x="560" y="0" on="1"/>
        <pt x="560" y="73" on="1"/>
        <pt x="482" y="-10" on="0"/>
        <pt x="347" y="-10" on="1"/>
        <pt x="187" y="-10" on="0"/>
        <pt x="39" y="188" on="0"/>
        <pt x="39" y="360" on="1"/>
        <pt x="39" y="511" on="0"/>
        <pt x="120" y="616" on="1"/>
        <pt x="160" y="669" on="0"/>
        <pt x="301" y="730" on="0"/>
        <pt x="497" y="730" on="0"/>
        <pt x="560" y="670" on="1"/>
        <pt x="560" y="720" on="1"/>
        <pt x="1010" y="720" on="1"/>
        <pt x="1003" y="522" on="1"/>
        <pt x="919" y="522" on="1"/>
        <pt x="912" y="587" on="1"/>
        <pt x="910" y="605" on="0"/>
        <pt x="893" y="616" on="0"/>
        <pt x="874" y="616" on="1"/>
        <pt x="687" y="616" on="1"/>
        <pt x="687" y="426" on="1"/>
        <pt x="898" y="426" on="1"/>
        <pt x="898" y="322" on="1"/>
        <pt x="687" y="322" on="1"/>
        <pt x="687" y="104" on="1"/>
        <pt x="875" y="104" on="1"/>
        <pt x="894" y="104" on="0"/>
        <pt x="912" y="115" on="0"/>
        <pt x="913" y="133" on="1"/>
        <pt x="920" y="203" on="1"/>
        <pt x="1007" y="203" on="1"/>
      </contour>
      <contour>
        <pt x="560" y="495" on="0"/>
        <pt x="454" y="626" on="0"/>
        <pt x="271" y="626" on="0"/>
        <pt x="233" y="591" on="1"/>
        <pt x="206" y="566" on="0"/>
        <pt x="176" y="425" on="0"/>
        <pt x="176" y="354" on="1"/>
        <pt x="176" y="231" on="0"/>
        <pt x="283" y="94" on="0"/>
        <pt x="468" y="94" on="0"/>
        <pt x="503" y="129" on="1"/>
        <pt x="528" y="153" on="0"/>
        <pt x="558" y="284" on="0"/>
        <pt x="560" y="353" on="1"/>
        <pt x="560" y="378" on="1"/>
      </contour>
    </TTGlyph>
    <TTGlyph name="Oacute" xMin="39" yMin="-10" xMax="702" yMax="944">
      <contour>
        <pt x="622" y="104" on="1"/>
        <pt x="581" y="51" on="0"/>
        <pt x="440" y="-10" on="0"/>
        <pt x="347" y="-10" on="1"/>
        <pt x="187" y="-10" on="0"/>
        <pt x="39" y="188" on="0"/>
        <pt x="39" y="360" on="1"/>
        <pt x="39" y="511" on="0"/>
        <pt x="120" y="616" on="1"/>
        <pt x="160" y="669" on="0"/>
        <pt x="301" y="730" on="0"/>
        <pt x="394" y="730" on="1"/>
        <pt x="554" y="730" on="0"/>
        <pt x="702" y="532" on="0"/>
        <pt x="702" y="209" on="0"/>
      </contour>
      <contour>
        <pt x="565" y="489" on="0"/>
        <pt x="458" y="626" on="0"/>
        <pt x="271" y="626" on="0"/>
        <pt x="233" y="591" on="1"/>
        <pt x="206" y="566" on="0"/>
        <pt x="176" y="425" on="0"/>
        <pt x="176" y="354" on="1"/>
        <pt x="176" y="231" on="0"/>
        <pt x="283" y="94" on="0"/>
        <pt x="472" y="94" on="0"/>
        <pt x="508" y="129" on="1"/>
        <pt x="534" y="154" on="0"/>
        <pt x="565" y="296" on="0"/>
        <pt x="565" y="366" on="1"/>
      </contour>
      <contour>
        <pt x="469" y="944" on="1"/>
        <pt x="532" y="858" on="1"/>
        <pt x="390" y="764" on="1"/>
        <pt x="374" y="754" on="0"/>
        <pt x="360" y="754" on="1"/>
        <pt x="327" y="754" on="0"/>
        <pt x="298" y="796" on="1"/>
      </contour>
    </TTGlyph>
    <TTGlyph name="Obreve" xMin="39" yMin="-10" xMax="702" yMax="913">
      <component glyphName="O" x="0" y="0" flags="0x1004"/>
      <component glyphName="breve" x="178" y="190" flags="0x1004"/>
    </TTGlyph>
    <TTGlyph name="Ocircumflex" xMin="39" yMin="-10" xMax="702" yMax="918">
      <contour>
        <pt x="622" y="104" on="1"/>
        <pt x="581" y="51" on="0"/>
        <pt x="440" y="-10" on="0"/>
        <pt x="347" y="-10" on="1"/>
        <pt x="187" y="-10" on="0"/>
        <pt x="39" y="188" on="0"/>
        <pt x="39" y="360" on="1"/>
        <pt x="39" y="511" on="0"/>
        <pt x="120" y="616" on="1"/>
        <pt x="160" y="669" on="0"/>
        <pt x="301" y="730" on="0"/>
        <pt x="394" y="730" on="1"/>
        <pt x="554" y="730" on="0"/>
        <pt x="702" y="532" on="0"/>
        <pt x="702" y="209" on="0"/>
      </contour>
      <contour>
        <pt x="565" y="489" on="0"/>
        <pt x="458" y="626" on="0"/>
        <pt x="271" y="626" on="0"/>
        <pt x="233" y="591" on="1"/>
        <pt x="206" y="566" on="0"/>
        <pt x="176" y="425" on="0"/>
        <pt x="176" y="354" on="1"/>
        <pt x="176" y="231" on="0"/>
        <pt x="283" y="94" on="0"/>
        <pt x="472" y="94" on="0"/>
        <pt x="508" y="129" on="1"/>
        <pt x="534" y="154" on="0"/>
        <pt x="565" y="296" on="0"/>
        <pt x="565" y="366" on="1"/>
      </contour>
      <contour>
        <pt x="317" y="918" on="1"/>
        <pt x="426" y="918" on="1"/>
        <pt x="544" y="792" on="1"/>
        <pt x="485" y="744" on="1"/>
        <pt x="371" y="842" on="1"/>
        <pt x="257" y="744" on="1"/>
        <pt x="198" y="792" on="1"/>
      </contour>
    </TTGlyph>
    <TTGlyph name="Odieresis" xMin="39" yMin="-10" xMax="702" yMax="888">
      <component glyphName="O" x="0" y="0" flags="0x1004"/>
      <component glyphName="dieresis" x="89" y="190" flags="0x1004"/>
    </TTGlyph>
    <TTGlyph name="Ograve" xMin="39" yMin="-10" xMax="702" yMax="945">
      <contour>
        <pt x="622" y="104" on="1"/>
        <pt x="581" y="51" on="0"/>
        <pt x="440" y="-10" on="0"/>
        <pt x="347" y="-10" on="1"/>
        <pt x="187" y="-10" on="0"/>
        <pt x="39" y="188" on="0"/>
        <pt x="39" y="360" on="1"/>
        <pt x="39" y="511" on="0"/>
        <pt x="120" y="616" on="1"/>
        <pt x="160" y="669" on="0"/>
        <pt x="301" y="730" on="0"/>
        <pt x="394" y="730" on="1"/>
        <pt x="554" y="730" on="0"/>
        <pt x="702" y="532" on="0"/>
        <pt x="702" y="209" on="0"/>
      </contour>
      <contour>
        <pt x="565" y="489" on="0"/>
        <pt x="458" y="626" on="0"/>
        <pt x="271" y="626" on="0"/>
        <pt x="233" y="591" on="1"/>
        <pt x="206" y="566" on="0"/>
        <pt x="176" y="425" on="0"/>
        <pt x="176" y="354" on="1"/>
        <pt x="176" y="231" on="0"/>
        <pt x="283" y="94" on="0"/>
        <pt x="472" y="94" on="0"/>
        <pt x="508" y="129" on="1"/>
        <pt x="534" y="154" on="0"/>
        <pt x="565" y="296" on="0"/>
        <pt x="565" y="366" on="1"/>
      </contour>
      <contour>
        <pt x="207" y="859" on="1"/>
        <pt x="270" y="945" on="1"/>
        <pt x="441" y="797" on="1"/>
        <pt x="412" y="755" on="0"/>
        <pt x="379" y="755" on="1"/>
        <pt x="365" y="755" on="0"/>
        <pt x="349" y="765" on="1"/>
      </contour>
    </TTGlyph>
    <TTGlyph name="Ohorn" xMin="39" yMin="-10" xMax="805" yMax="796">
      <contour>
        <pt x="693" y="733" on="1"/>
        <pt x="693" y="688" on="0"/>
        <pt x="644" y="649" on="0"/>
        <pt x="601" y="641" on="1"/>
        <pt x="606" y="580" on="1"/>
        <pt x="653" y="586" on="0"/>
        <pt x="736" y="617" on="0"/>
        <pt x="805" y="690" on="0"/>
        <pt x="805" y="741" on="1"/>
        <pt x="805" y="770" on="0"/>
        <pt x="798" y="796" on="1"/>
        <pt x="685" y="784" on="1"/>
      </contour>
      <contour>
        <pt x="622" y="104" on="1"/>
        <pt x="581" y="51" on="0"/>
        <pt x="440" y="-10" on="0"/>
        <pt x="347" y="-10" on="1"/>
        <pt x="187" y="-10" on="0"/>
        <pt x="39" y="188" on="0"/>
        <pt x="39" y="360" on="1"/>
        <pt x="39" y="511" on="0"/>
        <pt x="120" y="616" on="1"/>
        <pt x="160" y="669" on="0"/>
        <pt x="301" y="730" on="0"/>
        <pt x="394" y="730" on="1"/>
        <pt x="554" y="730" on="0"/>
        <pt x="702" y="532" on="0"/>
        <pt x="702" y="209" on="0"/>
      </contour>
      <contour>
        <pt x="565" y="489" on="0"/>
        <pt x="458" y="626" on="0"/>
        <pt x="271" y="626" on="0"/>
        <pt x="233" y="591" on="1"/>
        <pt x="206" y="566" on="0"/>
        <pt x="176" y="425" on="0"/>
        <pt x="176" y="354" on="1"/>
        <pt x="176" y="231" on="0"/>
        <pt x="283" y="94" on="0"/>
        <pt x="472" y="94" on="0"/>
        <pt x="508" y="129" on="1"/>
        <pt x="534" y="154" on="0"/>
        <pt x="565" y="296" on="0"/>
        <pt x="565" y="366" on="1"/>
      </contour>
    </TTGlyph>
    <TTGlyph name="Ohungarumlaut" xMin="39" yMin="-10" xMax="702" yMax="956">
      <component glyphName="O" x="0" y="0" flags="0x1004"/>
      <component glyphName="hungarumlaut" x="166" y="190" flags="0x1004"/>
    </TTGlyph>
    <TTGlyph name="Omacron" xMin="39" yMin="-10" xMax="702" yMax="889">
      <contour>
        <pt x="622" y="104" on="1"/>
        <pt x="581" y="51" on="0"/>
        <pt x="440" y="-10" on="0"/>
        <pt x="347" y="-10" on="1"/>
        <pt x="187" y="-10" on="0"/>
        <pt x="39" y="188" on="0"/>
        <pt x="39" y="360" on="1"/>
        <pt x="39" y="511" on="0"/>
        <pt x="120" y="616" on="1"/>
        <pt x="160" y="669" on="0"/>
        <pt x="301" y="730" on="0"/>
        <pt x="394" y="730" on="1"/>
        <pt x="554" y="730" on="0"/>
        <pt x="702" y="532" on="0"/>
        <pt x="702" y="209" on="0"/>
      </contour>
      <contour>
        <pt x="565" y="489" on="0"/>
        <pt x="458" y="626" on="0"/>
        <pt x="271" y="626" on="0"/>
        <pt x="233" y="591" on="1"/>
        <pt x="206" y="566" on="0"/>
        <pt x="176" y="425" on="0"/>
        <pt x="176" y="354" on="1"/>
        <pt x="176" y="231" on="0"/>
        <pt x="283" y="94" on="0"/>
        <pt x="472" y="94" on="0"/>
        <pt x="508" y="129" on="1"/>
        <pt x="534" y="154" on="0"/>
        <pt x="565" y="296" on="0"/>
        <pt x="565" y="366" on="1"/>
      </contour>
      <contour>
        <pt x="226" y="792" on="1"/>
        <pt x="241" y="889" on="1"/>
        <pt x="523" y="889" on="1"/>
        <pt x="508" y="792" on="1"/>
      </contour>
    </TTGlyph>
    <TTGlyph name="Oslash" xMin="39" yMin="-61" xMax="702" yMax="787">
      <contour>
        <pt x="213" y="-61" on="1"/>
        <pt x="128" y="-20" on="1"/>
        <pt x="158" y="45" on="1"/>
        <pt x="39" y="133" on="0"/>
        <pt x="39" y="360" on="1"/>
        <pt x="39" y="511" on="0"/>
        <pt x="120" y="616" on="1"/>
        <pt x="160" y="669" on="0"/>
        <pt x="301" y="730" on="0"/>
        <pt x="394" y="730" on="1"/>
        <pt x="430" y="730" on="0"/>
        <pt x="470" y="723" on="1"/>
        <pt x="500" y="787" on="1"/>
        <pt x="585" y="746" on="1"/>
        <pt x="559" y="690" on="1"/>
        <pt x="702" y="607" on="0"/>
        <pt x="702" y="360" on="1"/>
        <pt x="702" y="209" on="0"/>
        <pt x="622" y="104" on="1"/>
        <pt x="581" y="51" on="0"/>
        <pt x="440" y="-10" on="0"/>
        <pt x="347" y="-10" on="1"/>
        <pt x="292" y="-10" on="0"/>
        <pt x="242" y="3" on="1"/>
      </contour>
      <contour>
        <pt x="565" y="366" on="1"/>
        <pt x="565" y="500" on="0"/>
        <pt x="503" y="568" on="1"/>
        <pt x="292" y="112" on="1"/>
        <pt x="331" y="94" on="0"/>
        <pt x="383" y="94" on="1"/>
        <pt x="472" y="94" on="0"/>
        <pt x="508" y="129" on="1"/>
        <pt x="534" y="154" on="0"/>
        <pt x="565" y="296" on="0"/>
      </contour>
      <contour>
        <pt x="358" y="626" on="1"/>
        <pt x="271" y="626" on="0"/>
        <pt x="233" y="591" on="1"/>
        <pt x="206" y="566" on="0"/>
        <pt x="176" y="425" on="0"/>
        <pt x="176" y="354" on="1"/>
        <pt x="176" y="242" on="0"/>
        <pt x="219" y="177" on="1"/>
        <pt x="422" y="617" on="1"/>
        <pt x="392" y="626" on="0"/>
      </contour>
    </TTGlyph>
    <TTGlyph name="Oslashacute" xMin="39" yMin="-61" xMax="702" yMax="944">
      <contour>
        <pt x="213" y="-61" on="1"/>
        <pt x="128" y="-20" on="1"/>
        <pt x="158" y="45" on="1"/>
        <pt x="39" y="133" on="0"/>
        <pt x="39" y="360" on="1"/>
        <pt x="39" y="511" on="0"/>
        <pt x="120" y="616" on="1"/>
        <pt x="160" y="669" on="0"/>
        <pt x="301" y="730" on="0"/>
        <pt x="394" y="730" on="1"/>
        <pt x="430" y="730" on="0"/>
        <pt x="470" y="723" on="1"/>
        <pt x="500" y="787" on="1"/>
        <pt x="585" y="746" on="1"/>
        <pt x="559" y="690" on="1"/>
        <pt x="702" y="607" on="0"/>
        <pt x="702" y="360" on="1"/>
        <pt x="702" y="209" on="0"/>
        <pt x="622" y="104" on="1"/>
        <pt x="581" y="51" on="0"/>
        <pt x="440" y="-10" on="0"/>
        <pt x="347" y="-10" on="1"/>
        <pt x="292" y="-10" on="0"/>
        <pt x="242" y="3" on="1"/>
      </contour>
      <contour>
        <pt x="565" y="366" on="1"/>
        <pt x="565" y="500" on="0"/>
        <pt x="503" y="568" on="1"/>
        <pt x="292" y="112" on="1"/>
        <pt x="331" y="94" on="0"/>
        <pt x="383" y="94" on="1"/>
        <pt x="472" y="94" on="0"/>
        <pt x="508" y="129" on="1"/>
        <pt x="534" y="154" on="0"/>
        <pt x="565" y="296" on="0"/>
      </contour>
      <contour>
        <pt x="358" y="626" on="1"/>
        <pt x="271" y="626" on="0"/>
        <pt x="233" y="591" on="1"/>
        <pt x="206" y="566" on="0"/>
        <pt x="176" y="425" on="0"/>
        <pt x="176" y="354" on="1"/>
        <pt x="176" y="242" on="0"/>
        <pt x="219" y="177" on="1"/>
        <pt x="422" y="617" on="1"/>
        <pt x="392" y="626" on="0"/>
      </contour>
      <contour>
        <pt x="456" y="944" on="1"/>
        <pt x="519" y="858" on="1"/>
        <pt x="377" y="764" on="1"/>
        <pt x="361" y="754" on="0"/>
        <pt x="347" y="754" on="1"/>
        <pt x="314" y="754" on="0"/>
        <pt x="285" y="796" on="1"/>
      </contour>
    </TTGlyph>
    <TTGlyph name="Otilde" xMin="39" yMin="-10" xMax="702" yMax="899">
      <contour>
        <pt x="622" y="104" on="1"/>
        <pt x="581" y="51" on="0"/>
        <pt x="440" y="-10" on="0"/>
        <pt x="347" y="-10" on="1"/>
        <pt x="187" y="-10" on="0"/>
        <pt x="39" y="188" on="0"/>
        <pt x="39" y="360" on="1"/>
        <pt x="39" y="511" on="0"/>
        <pt x="120" y="616" on="1"/>
        <pt x="160" y="669" on="0"/>
        <pt x="301" y="730" on="0"/>
        <pt x="394" y="730" on="1"/>
        <pt x="554" y="730" on="0"/>
        <pt x="702" y="532" on="0"/>
        <pt x="702" y="209" on="0"/>
      </contour>
      <contour>
        <pt x="565" y="489" on="0"/>
        <pt x="458" y="626" on="0"/>
        <pt x="271" y="626" on="0"/>
        <pt x="233" y="591" on="1"/>
        <pt x="206" y="566" on="0"/>
        <pt x="176" y="425" on="0"/>
        <pt x="176" y="354" on="1"/>
        <pt x="176" y="231" on="0"/>
        <pt x="283" y="94" on="0"/>
        <pt x="472" y="94" on="0"/>
        <pt x="508" y="129" on="1"/>
        <pt x="534" y="154" on="0"/>
        <pt x="565" y="296" on="0"/>
        <pt x="565" y="366" on="1"/>
      </contour>
      <contour>
        <pt x="402" y="760" on="0"/>
        <pt x="313" y="797" on="0"/>
        <pt x="258" y="797" on="0"/>
        <pt x="218" y="770" on="1"/>
        <pt x="194" y="830" on="1"/>
        <pt x="240" y="899" on="0"/>
        <pt x="298" y="899" on="1"/>
        <pt x="328" y="899" on="0"/>
        <pt x="416" y="864" on="0"/>
        <pt x="468" y="864" on="0"/>
        <pt x="502" y="888" on="1"/>
        <pt x="526" y="828" on="1"/>
        <pt x="483" y="760" on="0"/>
        <pt x="429" y="760" on="1"/>
      </contour>
    </TTGlyph>
    <TTGlyph name="P" xMin="48" yMin="0" xMax="570" yMax="720">
      <contour>
        <pt x="252" y="620" on="1"/>
        <pt x="252" y="374" on="1"/>
        <pt x="306" y="374" on="1"/>
        <pt x="374" y="374" on="0"/>
        <pt x="399" y="395" on="1"/>
        <pt x="433" y="424" on="0"/>
        <pt x="433" y="519" on="1"/>
        <pt x="433" y="620" on="0"/>
        <pt x="313" y="620" on="1"/>
      </contour>
      <contour>
        <pt x="125" y="126" on="1"/>
        <pt x="125" y="594" on="1"/>
        <pt x="125" y="613" on="0"/>
        <pt x="114" y="628" on="0"/>
        <pt x="96" y="632" on="1"/>
        <pt x="48" y="641" on="1"/>
        <pt x="48" y="720" on="1"/>
        <pt x="322" y="720" on="1"/>
        <pt x="444" y="720" on="0"/>
        <pt x="570" y="639" on="0"/>
        <pt x="570" y="416" on="0"/>
        <pt x="412" y="274" on="0"/>
        <pt x="309" y="274" on="1"/>
        <pt x="252" y="274" on="1"/>
        <pt x="252" y="126" on="1"/>
        <pt x="252" y="106" on="0"/>
        <pt x="264" y="90" on="0"/>
        <pt x="282" y="88" on="1"/>
        <pt x="348" y="80" on="1"/>
        <pt x="348" y="0" on="1"/>
        <pt x="48" y="0" on="1"/>
        <pt x="48" y="79" on="1"/>
        <pt x="96" y="88" on="1"/>
        <pt x="114" y="92" on="0"/>
        <pt x="125" y="107" on="0"/>
      </contour>
    </TTGlyph>
    <TTGlyph name="Q" xMin="39" yMin="-210" xMax="722" yMax="730">
      <contour>
        <pt x="239" y="-162" on="1"/>
        <pt x="209" y="-82" on="1"/>
        <pt x="275" y="-49" on="0"/>
        <pt x="401" y="-49" on="0"/>
        <pt x="586" y="-104" on="0"/>
        <pt x="654" y="-104" on="0"/>
        <pt x="700" y="-82" on="1"/>
        <pt x="722" y="-159" on="1"/>
        <pt x="669" y="-210" on="0"/>
        <pt x="598" y="-210" on="1"/>
        <pt x="548" y="-210" on="0"/>
        <pt x="363" y="-149" on="0"/>
        <pt x="314" y="-149" on="1"/>
        <pt x="291" y="-149" on="0"/>
      </contour>
      <contour>
        <pt x="622" y="104" on="1"/>
        <pt x="581" y="51" on="0"/>
        <pt x="440" y="-10" on="0"/>
        <pt x="347" y="-10" on="1"/>
        <pt x="187" y="-10" on="0"/>
        <pt x="39" y="188" on="0"/>
        <pt x="39" y="360" on="1"/>
        <pt x="39" y="511" on="0"/>
        <pt x="120" y="616" on="1"/>
        <pt x="160" y="669" on="0"/>
        <pt x="301" y="730" on="0"/>
        <pt x="394" y="730" on="1"/>
        <pt x="554" y="730" on="0"/>
        <pt x="702" y="532" on="0"/>
        <pt x="702" y="209" on="0"/>
      </contour>
      <contour>
        <pt x="565" y="489" on="0"/>
        <pt x="458" y="626" on="0"/>
        <pt x="271" y="626" on="0"/>
        <pt x="233" y="591" on="1"/>
        <pt x="206" y="566" on="0"/>
        <pt x="176" y="425" on="0"/>
        <pt x="176" y="354" on="1"/>
        <pt x="176" y="231" on="0"/>
        <pt x="283" y="94" on="0"/>
        <pt x="472" y="94" on="0"/>
        <pt x="508" y="129" on="1"/>
        <pt x="534" y="154" on="0"/>
        <pt x="565" y="296" on="0"/>
        <pt x="565" y="366" on="1"/>
      </contour>
    </TTGlyph>
    <TTGlyph name="R" xMin="48" yMin="-10" xMax="669" yMax="720">
      <contour>
        <pt x="252" y="620" on="1"/>
        <pt x="252" y="407" on="1"/>
        <pt x="321" y="407" on="1"/>
        <pt x="379" y="407" on="0"/>
        <pt x="399" y="423" on="1"/>
        <pt x="429" y="448" on="0"/>
        <pt x="429" y="530" on="1"/>
        <pt x="429" y="620" on="0"/>
        <pt x="312" y="620" on="1"/>
      </contour>
      <contour>
        <pt x="252" y="307" on="1"/>
        <pt x="252" y="126" on="1"/>
        <pt x="252" y="106" on="0"/>
        <pt x="264" y="90" on="0"/>
        <pt x="282" y="88" on="1"/>
        <pt x="338" y="80" on="1"/>
        <pt x="338" y="0" on="1"/>
        <pt x="48" y="0" on="1"/>
        <pt x="48" y="79" on="1"/>
        <pt x="96" y="88" on="1"/>
        <pt x="114" y="90" on="0"/>
        <pt x="125" y="106" on="0"/>
        <pt x="125" y="126" on="1"/>
        <pt x="125" y="594" on="1"/>
        <pt x="125" y="614" on="0"/>
        <pt x="114" y="629" on="0"/>
        <pt x="96" y="632" on="1"/>
        <pt x="48" y="641" on="1"/>
        <pt x="48" y="720" on="1"/>
        <pt x="327" y="720" on="1"/>
        <pt x="443" y="720" on="0"/>
        <pt x="566" y="638" on="0"/>
        <pt x="566" y="540" on="1"/>
        <pt x="566" y="484" on="0"/>
        <pt x="532" y="401" on="0"/>
        <pt x="505" y="378" on="1"/>
        <pt x="457" y="338" on="0"/>
        <pt x="406" y="330" on="1"/>
        <pt x="440" y="325" on="0"/>
        <pt x="459" y="293" on="1"/>
        <pt x="545" y="152" on="1"/>
        <pt x="580" y="94" on="0"/>
        <pt x="623" y="94" on="1"/>
        <pt x="653" y="94" on="0"/>
        <pt x="669" y="102" on="1"/>
        <pt x="659" y="12" on="1"/>
        <pt x="619" y="-10" on="0"/>
        <pt x="565" y="-10" on="1"/>
        <pt x="493" y="-10" on="0"/>
        <pt x="443" y="74" on="1"/>
        <pt x="324" y="272" on="1"/>
        <pt x="301" y="307" on="0"/>
        <pt x="280" y="307" on="1"/>
      </contour>
    </TTGlyph>
    <TTGlyph name="Racute" xMin="48" yMin="-10" xMax="669" yMax="944">
      <contour>
        <pt x="252" y="620" on="1"/>
        <pt x="252" y="407" on="1"/>
        <pt x="321" y="407" on="1"/>
        <pt x="379" y="407" on="0"/>
        <pt x="399" y="423" on="1"/>
        <pt x="429" y="448" on="0"/>
        <pt x="429" y="530" on="1"/>
        <pt x="429" y="620" on="0"/>
        <pt x="312" y="620" on="1"/>
      </contour>
      <contour>
        <pt x="252" y="307" on="1"/>
        <pt x="252" y="126" on="1"/>
        <pt x="252" y="106" on="0"/>
        <pt x="264" y="90" on="0"/>
        <pt x="282" y="88" on="1"/>
        <pt x="338" y="80" on="1"/>
        <pt x="338" y="0" on="1"/>
        <pt x="48" y="0" on="1"/>
        <pt x="48" y="79" on="1"/>
        <pt x="96" y="88" on="1"/>
        <pt x="114" y="90" on="0"/>
        <pt x="125" y="106" on="0"/>
        <pt x="125" y="126" on="1"/>
        <pt x="125" y="594" on="1"/>
        <pt x="125" y="614" on="0"/>
        <pt x="114" y="629" on="0"/>
        <pt x="96" y="632" on="1"/>
        <pt x="48" y="641" on="1"/>
        <pt x="48" y="720" on="1"/>
        <pt x="327" y="720" on="1"/>
        <pt x="443" y="720" on="0"/>
        <pt x="566" y="638" on="0"/>
        <pt x="566" y="540" on="1"/>
        <pt x="566" y="484" on="0"/>
        <pt x="532" y="401" on="0"/>
        <pt x="505" y="378" on="1"/>
        <pt x="457" y="338" on="0"/>
        <pt x="406" y="330" on="1"/>
        <pt x="440" y="325" on="0"/>
        <pt x="459" y="293" on="1"/>
        <pt x="545" y="152" on="1"/>
        <pt x="580" y="94" on="0"/>
        <pt x="623" y="94" on="1"/>
        <pt x="653" y="94" on="0"/>
        <pt x="669" y="102" on="1"/>
        <pt x="659" y="12" on="1"/>
        <pt x="619" y="-10" on="0"/>
        <pt x="565" y="-10" on="1"/>
        <pt x="493" y="-10" on="0"/>
        <pt x="443" y="74" on="1"/>
        <pt x="324" y="272" on="1"/>
        <pt x="301" y="307" on="0"/>
        <pt x="280" y="307" on="1"/>
      </contour>
      <contour>
        <pt x="389" y="944" on="1"/>
        <pt x="452" y="858" on="1"/>
        <pt x="310" y="764" on="1"/>
        <pt x="294" y="754" on="0"/>
        <pt x="280" y="754" on="1"/>
        <pt x="247" y="754" on="0"/>
        <pt x="218" y="796" on="1"/>
      </contour>
    </TTGlyph>
    <TTGlyph name="Rcaron" xMin="48" yMin="-10" xMax="669" yMax="928">
      <contour>
        <pt x="252" y="620" on="1"/>
        <pt x="252" y="407" on="1"/>
        <pt x="321" y="407" on="1"/>
        <pt x="379" y="407" on="0"/>
        <pt x="399" y="423" on="1"/>
        <pt x="429" y="448" on="0"/>
        <pt x="429" y="530" on="1"/>
        <pt x="429" y="620" on="0"/>
        <pt x="312" y="620" on="1"/>
      </contour>
      <contour>
        <pt x="252" y="307" on="1"/>
        <pt x="252" y="126" on="1"/>
        <pt x="252" y="106" on="0"/>
        <pt x="264" y="90" on="0"/>
        <pt x="282" y="88" on="1"/>
        <pt x="338" y="80" on="1"/>
        <pt x="338" y="0" on="1"/>
        <pt x="48" y="0" on="1"/>
        <pt x="48" y="79" on="1"/>
        <pt x="96" y="88" on="1"/>
        <pt x="114" y="90" on="0"/>
        <pt x="125" y="106" on="0"/>
        <pt x="125" y="126" on="1"/>
        <pt x="125" y="594" on="1"/>
        <pt x="125" y="614" on="0"/>
        <pt x="114" y="629" on="0"/>
        <pt x="96" y="632" on="1"/>
        <pt x="48" y="641" on="1"/>
        <pt x="48" y="720" on="1"/>
        <pt x="327" y="720" on="1"/>
        <pt x="443" y="720" on="0"/>
        <pt x="566" y="638" on="0"/>
        <pt x="566" y="540" on="1"/>
        <pt x="566" y="484" on="0"/>
        <pt x="532" y="401" on="0"/>
        <pt x="505" y="378" on="1"/>
        <pt x="457" y="338" on="0"/>
        <pt x="406" y="330" on="1"/>
        <pt x="440" y="325" on="0"/>
        <pt x="459" y="293" on="1"/>
        <pt x="545" y="152" on="1"/>
        <pt x="580" y="94" on="0"/>
        <pt x="623" y="94" on="1"/>
        <pt x="653" y="94" on="0"/>
        <pt x="669" y="102" on="1"/>
        <pt x="659" y="12" on="1"/>
        <pt x="619" y="-10" on="0"/>
        <pt x="565" y="-10" on="1"/>
        <pt x="493" y="-10" on="0"/>
        <pt x="443" y="74" on="1"/>
        <pt x="324" y="272" on="1"/>
        <pt x="301" y="307" on="0"/>
        <pt x="280" y="307" on="1"/>
      </contour>
      <contour>
        <pt x="350" y="754" on="1"/>
        <pt x="241" y="754" on="1"/>
        <pt x="122" y="880" on="1"/>
        <pt x="181" y="928" on="1"/>
        <pt x="295" y="830" on="1"/>
        <pt x="409" y="928" on="1"/>
        <pt x="468" y="880" on="1"/>
      </contour>
    </TTGlyph>
    <TTGlyph name="Rcommaaccent" xMin="48" yMin="-261" xMax="669" yMax="720">
      <contour>
        <pt x="252" y="620" on="1"/>
        <pt x="252" y="407" on="1"/>
        <pt x="321" y="407" on="1"/>
        <pt x="379" y="407" on="0"/>
        <pt x="399" y="423" on="1"/>
        <pt x="429" y="448" on="0"/>
        <pt x="429" y="530" on="1"/>
        <pt x="429" y="620" on="0"/>
        <pt x="312" y="620" on="1"/>
      </contour>
      <contour>
        <pt x="252" y="307" on="1"/>
        <pt x="252" y="126" on="1"/>
        <pt x="252" y="106" on="0"/>
        <pt x="264" y="90" on="0"/>
        <pt x="282" y="88" on="1"/>
        <pt x="338" y="80" on="1"/>
        <pt x="338" y="0" on="1"/>
        <pt x="48" y="0" on="1"/>
        <pt x="48" y="79" on="1"/>
        <pt x="96" y="88" on="1"/>
        <pt x="114" y="90" on="0"/>
        <pt x="125" y="106" on="0"/>
        <pt x="125" y="126" on="1"/>
        <pt x="125" y="594" on="1"/>
        <pt x="125" y="614" on="0"/>
        <pt x="114" y="629" on="0"/>
        <pt x="96" y="632" on="1"/>
        <pt x="48" y="641" on="1"/>
        <pt x="48" y="720" on="1"/>
        <pt x="327" y="720" on="1"/>
        <pt x="443" y="720" on="0"/>
        <pt x="566" y="638" on="0"/>
        <pt x="566" y="540" on="1"/>
        <pt x="566" y="484" on="0"/>
        <pt x="532" y="401" on="0"/>
        <pt x="505" y="378" on="1"/>
        <pt x="457" y="338" on="0"/>
        <pt x="406" y="330" on="1"/>
        <pt x="440" y="325" on="0"/>
        <pt x="459" y="293" on="1"/>
        <pt x="545" y="152" on="1"/>
        <pt x="580" y="94" on="0"/>
        <pt x="623" y="94" on="1"/>
        <pt x="653" y="94" on="0"/>
        <pt x="669" y="102" on="1"/>
        <pt x="659" y="12" on="1"/>
        <pt x="619" y="-10" on="0"/>
        <pt x="565" y="-10" on="1"/>
        <pt x="493" y="-10" on="0"/>
        <pt x="443" y="74" on="1"/>
        <pt x="324" y="272" on="1"/>
        <pt x="301" y="307" on="0"/>
        <pt x="280" y="307" on="1"/>
      </contour>
      <contour>
        <pt x="451" y="-105" on="1"/>
        <pt x="451" y="-156" on="0"/>
        <pt x="385" y="-242" on="0"/>
        <pt x="342" y="-261" on="1"/>
        <pt x="309" y="-227" on="1"/>
        <pt x="335" y="-211" on="0"/>
        <pt x="374" y="-171" on="0"/>
        <pt x="374" y="-156" on="1"/>
        <pt x="370" y="-159" on="0"/>
        <pt x="363" y="-159" on="1"/>
        <pt x="332" y="-159" on="0"/>
        <pt x="299" y="-122" on="0"/>
        <pt x="299" y="-95" on="1"/>
        <pt x="299" y="-32" on="0"/>
        <pt x="372" y="-32" on="1"/>
        <pt x="412" y="-32" on="0"/>
        <pt x="451" y="-73" on="0"/>
      </contour>
    </TTGlyph>
    <TTGlyph name="S" xMin="43" yMin="-10" xMax="541" yMax="729">
      <contour>
        <pt x="155" y="207" on="1"/>
        <pt x="168" y="116" on="1"/>
        <pt x="223" y="86" on="0"/>
        <pt x="342" y="86" on="0"/>
        <pt x="412" y="137" on="0"/>
        <pt x="412" y="222" on="0"/>
        <pt x="371" y="268" on="0"/>
        <pt x="309" y="291" on="1"/>
        <pt x="187" y="337" on="1"/>
        <pt x="48" y="390" on="0"/>
        <pt x="48" y="539" on="1"/>
        <pt x="48" y="625" on="0"/>
        <pt x="172" y="729" on="0"/>
        <pt x="387" y="729" on="0"/>
        <pt x="510" y="702" on="1"/>
        <pt x="496" y="537" on="1"/>
        <pt x="399" y="537" on="1"/>
        <pt x="384" y="616" on="1"/>
        <pt x="334" y="636" on="0"/>
        <pt x="276" y="636" on="1"/>
        <pt x="180" y="636" on="0"/>
        <pt x="180" y="551" on="1"/>
        <pt x="180" y="475" on="0"/>
        <pt x="272" y="441" on="1"/>
        <pt x="357" y="411" on="1"/>
        <pt x="436" y="383" on="0"/>
        <pt x="484" y="344" on="1"/>
        <pt x="541" y="296" on="0"/>
        <pt x="541" y="106" on="0"/>
        <pt x="398" y="-10" on="0"/>
        <pt x="266" y="-10" on="1"/>
        <pt x="175" y="-10" on="0"/>
        <pt x="112" y="12" on="1"/>
        <pt x="90" y="19" on="0"/>
        <pt x="43" y="36" on="1"/>
        <pt x="55" y="207" on="1"/>
      </contour>
    </TTGlyph>
    <TTGlyph name="Sacute" xMin="43" yMin="-10" xMax="541" yMax="944">
      <contour>
        <pt x="155" y="207" on="1"/>
        <pt x="168" y="116" on="1"/>
        <pt x="223" y="86" on="0"/>
        <pt x="342" y="86" on="0"/>
        <pt x="412" y="137" on="0"/>
        <pt x="412" y="222" on="0"/>
        <pt x="371" y="268" on="0"/>
        <pt x="309" y="291" on="1"/>
        <pt x="187" y="337" on="1"/>
        <pt x="48" y="390" on="0"/>
        <pt x="48" y="539" on="1"/>
        <pt x="48" y="625" on="0"/>
        <pt x="172" y="729" on="0"/>
        <pt x="387" y="729" on="0"/>
        <pt x="510" y="702" on="1"/>
        <pt x="496" y="537" on="1"/>
        <pt x="399" y="537" on="1"/>
        <pt x="384" y="616" on="1"/>
        <pt x="334" y="636" on="0"/>
        <pt x="276" y="636" on="1"/>
        <pt x="180" y="636" on="0"/>
        <pt x="180" y="551" on="1"/>
        <pt x="180" y="475" on="0"/>
        <pt x="272" y="441" on="1"/>
        <pt x="357" y="411" on="1"/>
        <pt x="436" y="383" on="0"/>
        <pt x="484" y="344" on="1"/>
        <pt x="541" y="296" on="0"/>
        <pt x="541" y="106" on="0"/>
        <pt x="398" y="-10" on="0"/>
        <pt x="266" y="-10" on="1"/>
        <pt x="175" y="-10" on="0"/>
        <pt x="112" y="12" on="1"/>
        <pt x="90" y="19" on="0"/>
        <pt x="43" y="36" on="1"/>
        <pt x="55" y="207" on="1"/>
      </contour>
      <contour>
        <pt x="393" y="944" on="1"/>
        <pt x="456" y="858" on="1"/>
        <pt x="314" y="764" on="1"/>
        <pt x="298" y="754" on="0"/>
        <pt x="284" y="754" on="1"/>
        <pt x="251" y="754" on="0"/>
        <pt x="222" y="796" on="1"/>
      </contour>
    </TTGlyph>
    <TTGlyph name="Scaron" xMin="43" yMin="-10" xMax="541" yMax="928">
      <contour>
        <pt x="155" y="207" on="1"/>
        <pt x="168" y="116" on="1"/>
        <pt x="223" y="86" on="0"/>
        <pt x="342" y="86" on="0"/>
        <pt x="412" y="137" on="0"/>
        <pt x="412" y="222" on="0"/>
        <pt x="371" y="268" on="0"/>
        <pt x="309" y="291" on="1"/>
        <pt x="187" y="337" on="1"/>
        <pt x="48" y="390" on="0"/>
        <pt x="48" y="539" on="1"/>
        <pt x="48" y="625" on="0"/>
        <pt x="172" y="729" on="0"/>
        <pt x="387" y="729" on="0"/>
        <pt x="510" y="702" on="1"/>
        <pt x="496" y="537" on="1"/>
        <pt x="399" y="537" on="1"/>
        <pt x="384" y="616" on="1"/>
        <pt x="334" y="636" on="0"/>
        <pt x="276" y="636" on="1"/>
        <pt x="180" y="636" on="0"/>
        <pt x="180" y="551" on="1"/>
        <pt x="180" y="475" on="0"/>
        <pt x="272" y="441" on="1"/>
        <pt x="357" y="411" on="1"/>
        <pt x="436" y="383" on="0"/>
        <pt x="484" y="344" on="1"/>
        <pt x="541" y="296" on="0"/>
        <pt x="541" y="106" on="0"/>
        <pt x="398" y="-10" on="0"/>
        <pt x="266" y="-10" on="1"/>
        <pt x="175" y="-10" on="0"/>
        <pt x="112" y="12" on="1"/>
        <pt x="90" y="19" on="0"/>
        <pt x="43" y="36" on="1"/>
        <pt x="55" y="207" on="1"/>
      </contour>
      <contour>
        <pt x="349" y="754" on="1"/>
        <pt x="240" y="754" on="1"/>
        <pt x="121" y="880" on="1"/>
        <pt x="180" y="928" on="1"/>
        <pt x="294" y="830" on="1"/>
        <pt x="408" y="928" on="1"/>
        <pt x="467" y="880" on="1"/>
      </contour>
    </TTGlyph>
    <TTGlyph name="Scedilla" xMin="43" yMin="-235" xMax="541" yMax="729">
      <component glyphName="S" x="0" y="0" flags="0x1004"/>
      <component glyphName="cedilla" x="99" y="0" flags="0x1004"/>
    </TTGlyph>
    <TTGlyph name="Scircumflex" xMin="43" yMin="-10" xMax="541" yMax="918">
      <contour>
        <pt x="155" y="207" on="1"/>
        <pt x="168" y="116" on="1"/>
        <pt x="223" y="86" on="0"/>
        <pt x="342" y="86" on="0"/>
        <pt x="412" y="137" on="0"/>
        <pt x="412" y="222" on="0"/>
        <pt x="371" y="268" on="0"/>
        <pt x="309" y="291" on="1"/>
        <pt x="187" y="337" on="1"/>
        <pt x="48" y="390" on="0"/>
        <pt x="48" y="539" on="1"/>
        <pt x="48" y="625" on="0"/>
        <pt x="172" y="729" on="0"/>
        <pt x="387" y="729" on="0"/>
        <pt x="510" y="702" on="1"/>
        <pt x="496" y="537" on="1"/>
        <pt x="399" y="537" on="1"/>
        <pt x="384" y="616" on="1"/>
        <pt x="334" y="636" on="0"/>
        <pt x="276" y="636" on="1"/>
        <pt x="180" y="636" on="0"/>
        <pt x="180" y="551" on="1"/>
        <pt x="180" y="475" on="0"/>
        <pt x="272" y="441" on="1"/>
        <pt x="357" y="411" on="1"/>
        <pt x="436" y="383" on="0"/>
        <pt x="484" y="344" on="1"/>
        <pt x="541" y="296" on="0"/>
        <pt x="541" y="106" on="0"/>
        <pt x="398" y="-10" on="0"/>
        <pt x="266" y="-10" on="1"/>
        <pt x="175" y="-10" on="0"/>
        <pt x="112" y="12" on="1"/>
        <pt x="90" y="19" on="0"/>
        <pt x="43" y="36" on="1"/>
        <pt x="55" y="207" on="1"/>
      </contour>
      <contour>
        <pt x="241" y="918" on="1"/>
        <pt x="350" y="918" on="1"/>
        <pt x="468" y="792" on="1"/>
        <pt x="409" y="744" on="1"/>
        <pt x="295" y="842" on="1"/>
        <pt x="181" y="744" on="1"/>
        <pt x="122" y="792" on="1"/>
      </contour>
    </TTGlyph>
    <TTGlyph name="Scommaaccent" xMin="43" yMin="-261" xMax="541" yMax="729">
      <contour>
        <pt x="155" y="207" on="1"/>
        <pt x="168" y="116" on="1"/>
        <pt x="223" y="86" on="0"/>
        <pt x="342" y="86" on="0"/>
        <pt x="412" y="137" on="0"/>
        <pt x="412" y="222" on="0"/>
        <pt x="371" y="268" on="0"/>
        <pt x="309" y="291" on="1"/>
        <pt x="187" y="337" on="1"/>
        <pt x="48" y="390" on="0"/>
        <pt x="48" y="539" on="1"/>
        <pt x="48" y="625" on="0"/>
        <pt x="172" y="729" on="0"/>
        <pt x="387" y="729" on="0"/>
        <pt x="510" y="702" on="1"/>
        <pt x="496" y="537" on="1"/>
        <pt x="399" y="537" on="1"/>
        <pt x="384" y="616" on="1"/>
        <pt x="334" y="636" on="0"/>
        <pt x="276" y="636" on="1"/>
        <pt x="180" y="636" on="0"/>
        <pt x="180" y="551" on="1"/>
        <pt x="180" y="475" on="0"/>
        <pt x="272" y="441" on="1"/>
        <pt x="357" y="411" on="1"/>
        <pt x="436" y="383" on="0"/>
        <pt x="484" y="344" on="1"/>
        <pt x="541" y="296" on="0"/>
        <pt x="541" y="106" on="0"/>
        <pt x="398" y="-10" on="0"/>
        <pt x="266" y="-10" on="1"/>
        <pt x="175" y="-10" on="0"/>
        <pt x="112" y="12" on="1"/>
        <pt x="90" y="19" on="0"/>
        <pt x="43" y="36" on="1"/>
        <pt x="55" y="207" on="1"/>
      </contour>
      <contour>
        <pt x="345" y="-105" on="1"/>
        <pt x="345" y="-156" on="0"/>
        <pt x="279" y="-242" on="0"/>
        <pt x="236" y="-261" on="1"/>
        <pt x="203" y="-227" on="1"/>
        <pt x="229" y="-211" on="0"/>
        <pt x="268" y="-171" on="0"/>
        <pt x="268" y="-156" on="1"/>
        <pt x="264" y="-159" on="0"/>
        <pt x="257" y="-159" on="1"/>
        <pt x="226" y="-159" on="0"/>
        <pt x="193" y="-122" on="0"/>
        <pt x="193" y="-95" on="1"/>
        <pt x="193" y="-32" on="0"/>
        <pt x="266" y="-32" on="1"/>
        <pt x="306" y="-32" on="0"/>
        <pt x="345" y="-73" on="0"/>
      </contour>
    </TTGlyph>
    <TTGlyph name="T" xMin="12" yMin="0" xMax="615" yMax="720">
      <contour>
        <pt x="479" y="620" on="1"/>
        <pt x="377" y="620" on="1"/>
        <pt x="377" y="126" on="1"/>
        <pt x="377" y="106" on="0"/>
        <pt x="388" y="91" on="0"/>
        <pt x="406" y="88" on="1"/>
        <pt x="458" y="79" on="1"/>
        <pt x="458" y="0" on="1"/>
        <pt x="169" y="0" on="1"/>
        <pt x="169" y="79" on="1"/>
        <pt x="221" y="88" on="1"/>
        <pt x="239" y="91" on="0"/>
        <pt x="250" y="106" on="0"/>
        <pt x="250" y="126" on="1"/>
        <pt x="250" y="620" on="1"/>
        <pt x="147" y="620" on="1"/>
        <pt x="128" y="620" on="0"/>
        <pt x="112" y="609" on="0"/>
        <pt x="110" y="591" on="1"/>
        <pt x="103" y="523" on="1"/>
        <pt x="19" y="523" on="1"/>
        <pt x="12" y="720" on="1"/>
        <pt x="615" y="720" on="1"/>
        <pt x="608" y="523" on="1"/>
        <pt x="524" y="523" on="1"/>
        <pt x="517" y="591" on="1"/>
        <pt x="515" y="609" on="0"/>
        <pt x="498" y="620" on="0"/>
      </contour>
    </TTGlyph>
    <TTGlyph name="Tbar" xMin="12" yMin="0" xMax="615" yMax="720">
      <contour>
        <pt x="107" y="304" on="1"/>
        <pt x="107" y="412" on="1"/>
        <pt x="519" y="412" on="1"/>
        <pt x="519" y="304" on="1"/>
      </contour>
      <contour>
        <pt x="479" y="620" on="1"/>
        <pt x="377" y="620" on="1"/>
        <pt x="377" y="126" on="1"/>
        <pt x="377" y="106" on="0"/>
        <pt x="388" y="91" on="0"/>
        <pt x="406" y="88" on="1"/>
        <pt x="458" y="79" on="1"/>
        <pt x="458" y="0" on="1"/>
        <pt x="169" y="0" on="1"/>
        <pt x="169" y="79" on="1"/>
        <pt x="221" y="88" on="1"/>
        <pt x="239" y="91" on="0"/>
        <pt x="250" y="106" on="0"/>
        <pt x="250" y="126" on="1"/>
        <pt x="250" y="620" on="1"/>
        <pt x="147" y="620" on="1"/>
        <pt x="128" y="620" on="0"/>
        <pt x="112" y="609" on="0"/>
        <pt x="110" y="591" on="1"/>
        <pt x="103" y="523" on="1"/>
        <pt x="19" y="523" on="1"/>
        <pt x="12" y="720" on="1"/>
        <pt x="615" y="720" on="1"/>
        <pt x="608" y="523" on="1"/>
        <pt x="524" y="523" on="1"/>
        <pt x="517" y="591" on="1"/>
        <pt x="515" y="609" on="0"/>
        <pt x="498" y="620" on="0"/>
      </contour>
    </TTGlyph>
    <TTGlyph name="Tcaron" xMin="12" yMin="0" xMax="615" yMax="928">
      <contour>
        <pt x="479" y="620" on="1"/>
        <pt x="377" y="620" on="1"/>
        <pt x="377" y="126" on="1"/>
        <pt x="377" y="106" on="0"/>
        <pt x="388" y="91" on="0"/>
        <pt x="406" y="88" on="1"/>
        <pt x="458" y="79" on="1"/>
        <pt x="458" y="0" on="1"/>
        <pt x="169" y="0" on="1"/>
        <pt x="169" y="79" on="1"/>
        <pt x="221" y="88" on="1"/>
        <pt x="239" y="91" on="0"/>
        <pt x="250" y="106" on="0"/>
        <pt x="250" y="126" on="1"/>
        <pt x="250" y="620" on="1"/>
        <pt x="147" y="620" on="1"/>
        <pt x="128" y="620" on="0"/>
        <pt x="112" y="609" on="0"/>
        <pt x="110" y="591" on="1"/>
        <pt x="103" y="523" on="1"/>
        <pt x="19" y="523" on="1"/>
        <pt x="12" y="720" on="1"/>
        <pt x="615" y="720" on="1"/>
        <pt x="608" y="523" on="1"/>
        <pt x="524" y="523" on="1"/>
        <pt x="517" y="591" on="1"/>
        <pt x="515" y="609" on="0"/>
        <pt x="498" y="620" on="0"/>
      </contour>
      <contour>
        <pt x="367" y="754" on="1"/>
        <pt x="258" y="754" on="1"/>
        <pt x="139" y="880" on="1"/>
        <pt x="198" y="928" on="1"/>
        <pt x="312" y="830" on="1"/>
        <pt x="426" y="928" on="1"/>
        <pt x="485" y="880" on="1"/>
      </contour>
    </TTGlyph>
    <TTGlyph name="Tcedilla" xMin="12" yMin="-235" xMax="615" yMax="720">
      <contour>
        <pt x="479" y="620" on="1"/>
        <pt x="377" y="620" on="1"/>
        <pt x="377" y="126" on="1"/>
        <pt x="377" y="106" on="0"/>
        <pt x="388" y="91" on="0"/>
        <pt x="406" y="88" on="1"/>
        <pt x="458" y="79" on="1"/>
        <pt x="458" y="0" on="1"/>
        <pt x="169" y="0" on="1"/>
        <pt x="169" y="79" on="1"/>
        <pt x="221" y="88" on="1"/>
        <pt x="239" y="91" on="0"/>
        <pt x="250" y="106" on="0"/>
        <pt x="250" y="126" on="1"/>
        <pt x="250" y="620" on="1"/>
        <pt x="147" y="620" on="1"/>
        <pt x="128" y="620" on="0"/>
        <pt x="112" y="609" on="0"/>
        <pt x="110" y="591" on="1"/>
        <pt x="103" y="523" on="1"/>
        <pt x="19" y="523" on="1"/>
        <pt x="12" y="720" on="1"/>
        <pt x="615" y="720" on="1"/>
        <pt x="608" y="523" on="1"/>
        <pt x="524" y="523" on="1"/>
        <pt x="517" y="591" on="1"/>
        <pt x="515" y="609" on="0"/>
        <pt x="498" y="620" on="0"/>
      </contour>
      <contour>
        <pt x="267" y="13" on="1"/>
        <pt x="337" y="1" on="1"/>
        <pt x="337" y="-57" on="1"/>
        <pt x="364" y="-66" on="1"/>
        <pt x="396" y="-77" on="0"/>
        <pt x="418" y="-107" on="0"/>
        <pt x="418" y="-134" on="1"/>
        <pt x="418" y="-182" on="0"/>
        <pt x="347" y="-235" on="0"/>
        <pt x="255" y="-235" on="0"/>
        <pt x="207" y="-214" on="1"/>
        <pt x="224" y="-165" on="1"/>
        <pt x="259" y="-179" on="0"/>
        <pt x="296" y="-179" on="1"/>
        <pt x="330" y="-179" on="0"/>
        <pt x="330" y="-141" on="1"/>
        <pt x="330" y="-118" on="0"/>
        <pt x="300" y="-110" on="1"/>
        <pt x="243" y="-97" on="1"/>
      </contour>
    </TTGlyph>
    <TTGlyph name="Tcommaaccent" xMin="12" yMin="-261" xMax="615" yMax="720">
      <contour>
        <pt x="479" y="620" on="1"/>
        <pt x="377" y="620" on="1"/>
        <pt x="377" y="126" on="1"/>
        <pt x="377" y="106" on="0"/>
        <pt x="388" y="91" on="0"/>
        <pt x="406" y="88" on="1"/>
        <pt x="458" y="79" on="1"/>
        <pt x="458" y="0" on="1"/>
        <pt x="169" y="0" on="1"/>
        <pt x="169" y="79" on="1"/>
        <pt x="221" y="88" on="1"/>
        <pt x="239" y="91" on="0"/>
        <pt x="250" y="106" on="0"/>
        <pt x="250" y="126" on="1"/>
        <pt x="250" y="620" on="1"/>
        <pt x="147" y="620" on="1"/>
        <pt x="128" y="620" on="0"/>
        <pt x="112" y="609" on="0"/>
        <pt x="110" y="591" on="1"/>
        <pt x="103" y="523" on="1"/>
        <pt x="19" y="523" on="1"/>
        <pt x="12" y="720" on="1"/>
        <pt x="615" y="720" on="1"/>
        <pt x="608" y="523" on="1"/>
        <pt x="524" y="523" on="1"/>
        <pt x="517" y="591" on="1"/>
        <pt x="515" y="609" on="0"/>
        <pt x="498" y="620" on="0"/>
      </contour>
      <contour>
        <pt x="392" y="-105" on="1"/>
        <pt x="392" y="-156" on="0"/>
        <pt x="326" y="-242" on="0"/>
        <pt x="283" y="-261" on="1"/>
        <pt x="250" y="-227" on="1"/>
        <pt x="276" y="-211" on="0"/>
        <pt x="315" y="-171" on="0"/>
        <pt x="315" y="-156" on="1"/>
        <pt x="310" y="-159" on="0"/>
        <pt x="304" y="-159" on="1"/>
        <pt x="273" y="-159" on="0"/>
        <pt x="240" y="-122" on="0"/>
        <pt x="240" y="-95" on="1"/>
        <pt x="240" y="-32" on="0"/>
        <pt x="313" y="-32" on="1"/>
        <pt x="353" y="-32" on="0"/>
        <pt x="392" y="-73" on="0"/>
      </contour>
    </TTGlyph>
    <TTGlyph name="Thorn" xMin="48" yMin="0" xMax="559" yMax="720">
      <contour>
        <pt x="329" y="79" on="1"/>
        <pt x="329" y="0" on="1"/>
        <pt x="48" y="0" on="1"/>
        <pt x="48" y="79" on="1"/>
        <pt x="98" y="88" on="1"/>
        <pt x="116" y="90" on="0"/>
        <pt x="127" y="106" on="0"/>
        <pt x="127" y="126" on="1"/>
        <pt x="127" y="594" on="1"/>
        <pt x="127" y="614" on="0"/>
        <pt x="116" y="629" on="0"/>
        <pt x="98" y="632" on="1"/>
        <pt x="48" y="641" on="1"/>
        <pt x="48" y="720" on="1"/>
        <pt x="329" y="720" on="1"/>
        <pt x="329" y="641" on="1"/>
        <pt x="281" y="632" on="1"/>
        <pt x="263" y="630" on="0"/>
        <pt x="252" y="614" on="0"/>
        <pt x="252" y="594" on="1"/>
        <pt x="252" y="591" on="1"/>
        <pt x="324" y="591" on="1"/>
        <pt x="438" y="591" on="0"/>
        <pt x="559" y="513" on="0"/>
        <pt x="559" y="308" on="0"/>
        <pt x="404" y="180" on="0"/>
        <pt x="303" y="180" on="1"/>
        <pt x="252" y="180" on="1"/>
        <pt x="252" y="126" on="1"/>
        <pt x="252" y="106" on="0"/>
        <pt x="263" y="91" on="0"/>
        <pt x="281" y="88" on="1"/>
      </contour>
      <contour>
        <pt x="252" y="273" on="1"/>
        <pt x="300" y="273" on="1"/>
        <pt x="369" y="273" on="0"/>
        <pt x="394" y="292" on="1"/>
        <pt x="426" y="315" on="0"/>
        <pt x="426" y="409" on="1"/>
        <pt x="426" y="500" on="0"/>
        <pt x="315" y="500" on="1"/>
        <pt x="252" y="500" on="1"/>
      </contour>
    </TTGlyph>
    <TTGlyph name="U" xMin="18" yMin="-10" xMax="707" yMax="720">
      <contour>
        <pt x="630" y="594" on="1"/>
        <pt x="630" y="232" on="1"/>
        <pt x="630" y="181" on="0"/>
        <pt x="597" y="97" on="0"/>
        <pt x="543" y="43" on="0"/>
        <pt x="506" y="24" on="1"/>
        <pt x="438" y="-10" on="0"/>
        <pt x="352" y="-10" on="1"/>
        <pt x="226" y="-10" on="0"/>
        <pt x="95" y="115" on="0"/>
        <pt x="95" y="232" on="1"/>
        <pt x="95" y="594" on="1"/>
        <pt x="95" y="614" on="0"/>
        <pt x="84" y="629" on="0"/>
        <pt x="66" y="632" on="1"/>
        <pt x="18" y="641" on="1"/>
        <pt x="18" y="720" on="1"/>
        <pt x="299" y="720" on="1"/>
        <pt x="299" y="641" on="1"/>
        <pt x="251" y="632" on="1"/>
        <pt x="233" y="630" on="0"/>
        <pt x="222" y="614" on="0"/>
        <pt x="222" y="594" on="1"/>
        <pt x="222" y="248" on="1"/>
        <pt x="222" y="165" on="0"/>
        <pt x="313" y="95" on="0"/>
        <pt x="447" y="95" on="0"/>
        <pt x="507" y="143" on="0"/>
        <pt x="507" y="256" on="1"/>
        <pt x="507" y="594" on="1"/>
        <pt x="507" y="614" on="0"/>
        <pt x="496" y="629" on="0"/>
        <pt x="478" y="632" on="1"/>
        <pt x="430" y="641" on="1"/>
        <pt x="430" y="720" on="1"/>
        <pt x="707" y="720" on="1"/>
        <pt x="707" y="641" on="1"/>
        <pt x="659" y="632" on="1"/>
        <pt x="641" y="630" on="0"/>
        <pt x="630" y="614" on="0"/>
      </contour>
    </TTGlyph>
    <TTGlyph name="Uacute" xMin="18" yMin="-10" xMax="707" yMax="944">
      <contour>
        <pt x="630" y="594" on="1"/>
        <pt x="630" y="232" on="1"/>
        <pt x="630" y="181" on="0"/>
        <pt x="597" y="97" on="0"/>
        <pt x="543" y="43" on="0"/>
        <pt x="506" y="24" on="1"/>
        <pt x="438" y="-10" on="0"/>
        <pt x="352" y="-10" on="1"/>
        <pt x="226" y="-10" on="0"/>
        <pt x="95" y="115" on="0"/>
        <pt x="95" y="232" on="1"/>
        <pt x="95" y="594" on="1"/>
        <pt x="95" y="614" on="0"/>
        <pt x="84" y="629" on="0"/>
        <pt x="66" y="632" on="1"/>
        <pt x="18" y="641" on="1"/>
        <pt x="18" y="720" on="1"/>
        <pt x="299" y="720" on="1"/>
        <pt x="299" y="641" on="1"/>
        <pt x="251" y="632" on="1"/>
        <pt x="233" y="630" on="0"/>
        <pt x="222" y="614" on="0"/>
        <pt x="222" y="594" on="1"/>
        <pt x="222" y="248" on="1"/>
        <pt x="222" y="165" on="0"/>
        <pt x="313" y="95" on="0"/>
        <pt x="447" y="95" on="0"/>
        <pt x="507" y="143" on="0"/>
        <pt x="507" y="256" on="1"/>
        <pt x="507" y="594" on="1"/>
        <pt x="507" y="614" on="0"/>
        <pt x="496" y="629" on="0"/>
        <pt x="478" y="632" on="1"/>
        <pt x="430" y="641" on="1"/>
        <pt x="430" y="720" on="1"/>
        <pt x="707" y="720" on="1"/>
        <pt x="707" y="641" on="1"/>
        <pt x="659" y="632" on="1"/>
        <pt x="641" y="630" on="0"/>
        <pt x="630" y="614" on="0"/>
      </contour>
      <contour>
        <pt x="461" y="944" on="1"/>
        <pt x="524" y="858" on="1"/>
        <pt x="382" y="764" on="1"/>
        <pt x="366" y="754" on="0"/>
        <pt x="352" y="754" on="1"/>
        <pt x="319" y="754" on="0"/>
        <pt x="290" y="796" on="1"/>
      </contour>
    </TTGlyph>
    <TTGlyph name="Ubreve" xMin="18" yMin="-10" xMax="707" yMax="913">
      <contour>
        <pt x="630" y="594" on="1"/>
        <pt x="630" y="232" on="1"/>
        <pt x="630" y="181" on="0"/>
        <pt x="597" y="97" on="0"/>
        <pt x="543" y="43" on="0"/>
        <pt x="506" y="24" on="1"/>
        <pt x="438" y="-10" on="0"/>
        <pt x="352" y="-10" on="1"/>
        <pt x="226" y="-10" on="0"/>
        <pt x="95" y="115" on="0"/>
        <pt x="95" y="232" on="1"/>
        <pt x="95" y="594" on="1"/>
        <pt x="95" y="614" on="0"/>
        <pt x="84" y="629" on="0"/>
        <pt x="66" y="632" on="1"/>
        <pt x="18" y="641" on="1"/>
        <pt x="18" y="720" on="1"/>
        <pt x="299" y="720" on="1"/>
        <pt x="299" y="641" on="1"/>
        <pt x="251" y="632" on="1"/>
        <pt x="233" y="630" on="0"/>
        <pt x="222" y="614" on="0"/>
        <pt x="222" y="594" on="1"/>
        <pt x="222" y="248" on="1"/>
        <pt x="222" y="165" on="0"/>
        <pt x="313" y="95" on="0"/>
        <pt x="447" y="95" on="0"/>
        <pt x="507" y="143" on="0"/>
        <pt x="507" y="256" on="1"/>
        <pt x="507" y="594" on="1"/>
        <pt x="507" y="614" on="0"/>
        <pt x="496" y="629" on="0"/>
        <pt x="478" y="632" on="1"/>
        <pt x="430" y="641" on="1"/>
        <pt x="430" y="720" on="1"/>
        <pt x="707" y="720" on="1"/>
        <pt x="707" y="641" on="1"/>
        <pt x="659" y="632" on="1"/>
        <pt x="641" y="630" on="0"/>
        <pt x="630" y="614" on="0"/>
      </contour>
      <contour>
        <pt x="465" y="913" on="1"/>
        <pt x="524" y="894" on="1"/>
        <pt x="506" y="836" on="0"/>
        <pt x="424" y="763" on="0"/>
        <pt x="300" y="763" on="0"/>
        <pt x="216" y="836" on="0"/>
        <pt x="197" y="894" on="1"/>
        <pt x="261" y="913" on="1"/>
        <pt x="300" y="849" on="0"/>
        <pt x="426" y="849" on="0"/>
      </contour>
    </TTGlyph>
    <TTGlyph name="Ucircumflex" xMin="18" yMin="-10" xMax="707" yMax="918">
      <contour>
        <pt x="630" y="594" on="1"/>
        <pt x="630" y="232" on="1"/>
        <pt x="630" y="181" on="0"/>
        <pt x="597" y="97" on="0"/>
        <pt x="543" y="43" on="0"/>
        <pt x="506" y="24" on="1"/>
        <pt x="438" y="-10" on="0"/>
        <pt x="352" y="-10" on="1"/>
        <pt x="226" y="-10" on="0"/>
        <pt x="95" y="115" on="0"/>
        <pt x="95" y="232" on="1"/>
        <pt x="95" y="594" on="1"/>
        <pt x="95" y="614" on="0"/>
        <pt x="84" y="629" on="0"/>
        <pt x="66" y="632" on="1"/>
        <pt x="18" y="641" on="1"/>
        <pt x="18" y="720" on="1"/>
        <pt x="299" y="720" on="1"/>
        <pt x="299" y="641" on="1"/>
        <pt x="251" y="632" on="1"/>
        <pt x="233" y="630" on="0"/>
        <pt x="222" y="614" on="0"/>
        <pt x="222" y="594" on="1"/>
        <pt x="222" y="248" on="1"/>
        <pt x="222" y="165" on="0"/>
        <pt x="313" y="95" on="0"/>
        <pt x="447" y="95" on="0"/>
        <pt x="507" y="143" on="0"/>
        <pt x="507" y="256" on="1"/>
        <pt x="507" y="594" on="1"/>
        <pt x="507" y="614" on="0"/>
        <pt x="496" y="629" on="0"/>
        <pt x="478" y="632" on="1"/>
        <pt x="430" y="641" on="1"/>
        <pt x="430" y="720" on="1"/>
        <pt x="707" y="720" on="1"/>
        <pt x="707" y="641" on="1"/>
        <pt x="659" y="632" on="1"/>
        <pt x="641" y="630" on="0"/>
        <pt x="630" y="614" on="0"/>
      </contour>
      <contour>
        <pt x="309" y="918" on="1"/>
        <pt x="418" y="918" on="1"/>
        <pt x="536" y="792" on="1"/>
        <pt x="477" y="744" on="1"/>
        <pt x="363" y="842" on="1"/>
        <pt x="249" y="744" on="1"/>
        <pt x="190" y="792" on="1"/>
      </contour>
    </TTGlyph>
    <TTGlyph name="Udieresis" xMin="18" yMin="-10" xMax="707" yMax="888">
      <contour>
        <pt x="630" y="594" on="1"/>
        <pt x="630" y="232" on="1"/>
        <pt x="630" y="181" on="0"/>
        <pt x="597" y="97" on="0"/>
        <pt x="543" y="43" on="0"/>
        <pt x="506" y="24" on="1"/>
        <pt x="438" y="-10" on="0"/>
        <pt x="352" y="-10" on="1"/>
        <pt x="226" y="-10" on="0"/>
        <pt x="95" y="115" on="0"/>
        <pt x="95" y="232" on="1"/>
        <pt x="95" y="594" on="1"/>
        <pt x="95" y="614" on="0"/>
        <pt x="84" y="629" on="0"/>
        <pt x="66" y="632" on="1"/>
        <pt x="18" y="641" on="1"/>
        <pt x="18" y="720" on="1"/>
        <pt x="299" y="720" on="1"/>
        <pt x="299" y="641" on="1"/>
        <pt x="251" y="632" on="1"/>
        <pt x="233" y="630" on="0"/>
        <pt x="222" y="614" on="0"/>
        <pt x="222" y="594" on="1"/>
        <pt x="222" y="248" on="1"/>
        <pt x="222" y="165" on="0"/>
        <pt x="313" y="95" on="0"/>
        <pt x="447" y="95" on="0"/>
        <pt x="507" y="143" on="0"/>
        <pt x="507" y="256" on="1"/>
        <pt x="507" y="594" on="1"/>
        <pt x="507" y="614" on="0"/>
        <pt x="496" y="629" on="0"/>
        <pt x="478" y="632" on="1"/>
        <pt x="430" y="641" on="1"/>
        <pt x="430" y="720" on="1"/>
        <pt x="707" y="720" on="1"/>
        <pt x="707" y="641" on="1"/>
        <pt x="659" y="632" on="1"/>
        <pt x="641" y="630" on="0"/>
        <pt x="630" y="614" on="0"/>
      </contour>
      <contour>
        <pt x="301" y="888" on="0"/>
        <pt x="325" y="855" on="0"/>
        <pt x="325" y="786" on="0"/>
        <pt x="290" y="757" on="0"/>
        <pt x="218" y="757" on="0"/>
        <pt x="184" y="783" on="0"/>
        <pt x="184" y="854" on="0"/>
        <pt x="215" y="888" on="0"/>
      </contour>
      <contour>
        <pt x="516" y="888" on="0"/>
        <pt x="540" y="855" on="0"/>
        <pt x="540" y="786" on="0"/>
        <pt x="505" y="757" on="0"/>
        <pt x="433" y="757" on="0"/>
        <pt x="399" y="783" on="0"/>
        <pt x="399" y="854" on="0"/>
        <pt x="430" y="888" on="0"/>
      </contour>
    </TTGlyph>
    <TTGlyph name="Ugrave" xMin="18" yMin="-10" xMax="707" yMax="945">
      <contour>
        <pt x="630" y="594" on="1"/>
        <pt x="630" y="232" on="1"/>
        <pt x="630" y="181" on="0"/>
        <pt x="597" y="97" on="0"/>
        <pt x="543" y="43" on="0"/>
        <pt x="506" y="24" on="1"/>
        <pt x="438" y="-10" on="0"/>
        <pt x="352" y="-10" on="1"/>
        <pt x="226" y="-10" on="0"/>
        <pt x="95" y="115" on="0"/>
        <pt x="95" y="232" on="1"/>
        <pt x="95" y="594" on="1"/>
        <pt x="95" y="614" on="0"/>
        <pt x="84" y="629" on="0"/>
        <pt x="66" y="632" on="1"/>
        <pt x="18" y="641" on="1"/>
        <pt x="18" y="720" on="1"/>
        <pt x="299" y="720" on="1"/>
        <pt x="299" y="641" on="1"/>
        <pt x="251" y="632" on="1"/>
        <pt x="233" y="630" on="0"/>
        <pt x="222" y="614" on="0"/>
        <pt x="222" y="594" on="1"/>
        <pt x="222" y="248" on="1"/>
        <pt x="222" y="165" on="0"/>
        <pt x="313" y="95" on="0"/>
        <pt x="447" y="95" on="0"/>
        <pt x="507" y="143" on="0"/>
        <pt x="507" y="256" on="1"/>
        <pt x="507" y="594" on="1"/>
        <pt x="507" y="614" on="0"/>
        <pt x="496" y="629" on="0"/>
        <pt x="478" y="632" on="1"/>
        <pt x="430" y="641" on="1"/>
        <pt x="430" y="720" on="1"/>
        <pt x="707" y="720" on="1"/>
        <pt x="707" y="641" on="1"/>
        <pt x="659" y="632" on="1"/>
        <pt x="641" y="630" on="0"/>
        <pt x="630" y="614" on="0"/>
      </contour>
      <contour>
        <pt x="199" y="859" on="1"/>
        <pt x="262" y="945" on="1"/>
        <pt x="433" y="797" on="1"/>
        <pt x="404" y="755" on="0"/>
        <pt x="371" y="755" on="1"/>
        <pt x="357" y="755" on="0"/>
        <pt x="341" y="765" on="1"/>
      </contour>
    </TTGlyph>
    <TTGlyph name="Uhorn" xMin="18" yMin="-10" xMax="825" yMax="836">
      <contour>
        <pt x="713" y="773" on="1"/>
        <pt x="713" y="728" on="0"/>
        <pt x="664" y="689" on="0"/>
        <pt x="621" y="681" on="1"/>
        <pt x="626" y="620" on="1"/>
        <pt x="673" y="626" on="0"/>
        <pt x="756" y="657" on="0"/>
        <pt x="825" y="730" on="0"/>
        <pt x="825" y="781" on="1"/>
        <pt x="825" y="810" on="0"/>
        <pt x="818" y="836" on="1"/>
        <pt x="705" y="824" on="1"/>
      </contour>
      <contour>
        <pt x="630" y="594" on="1"/>
        <pt x="630" y="232" on="1"/>
        <pt x="630" y="181" on="0"/>
        <pt x="597" y="97" on="0"/>
        <pt x="543" y="43" on="0"/>
        <pt x="506" y="24" on="1"/>
        <pt x="438" y="-10" on="0"/>
        <pt x="352" y="-10" on="1"/>
        <pt x="226" y="-10" on="0"/>
        <pt x="95" y="115" on="0"/>
        <pt x="95" y="232" on="1"/>
        <pt x="95" y="594" on="1"/>
        <pt x="95" y="614" on="0"/>
        <pt x="84" y="629" on="0"/>
        <pt x="66" y="632" on="1"/>
        <pt x="18" y="641" on="1"/>
        <pt x="18" y="720" on="1"/>
        <pt x="299" y="720" on="1"/>
        <pt x="299" y="641" on="1"/>
        <pt x="251" y="632" on="1"/>
        <pt x="233" y="630" on="0"/>
        <pt x="222" y="614" on="0"/>
        <pt x="222" y="594" on="1"/>
        <pt x="222" y="248" on="1"/>
        <pt x="222" y="165" on="0"/>
        <pt x="313" y="95" on="0"/>
        <pt x="447" y="95" on="0"/>
        <pt x="507" y="143" on="0"/>
        <pt x="507" y="256" on="1"/>
        <pt x="507" y="594" on="1"/>
        <pt x="507" y="614" on="0"/>
        <pt x="496" y="629" on="0"/>
        <pt x="478" y="632" on="1"/>
        <pt x="430" y="641" on="1"/>
        <pt x="430" y="720" on="1"/>
        <pt x="707" y="720" on="1"/>
        <pt x="707" y="641" on="1"/>
        <pt x="659" y="632" on="1"/>
        <pt x="641" y="630" on="0"/>
        <pt x="630" y="614" on="0"/>
      </contour>
    </TTGlyph>
    <TTGlyph name="Uhungarumlaut" xMin="18" yMin="-10" xMax="707" yMax="956">
      <contour>
        <pt x="630" y="594" on="1"/>
        <pt x="630" y="232" on="1"/>
        <pt x="630" y="181" on="0"/>
        <pt x="597" y="97" on="0"/>
        <pt x="543" y="43" on="0"/>
        <pt x="506" y="24" on="1"/>
        <pt x="438" y="-10" on="0"/>
        <pt x="352" y="-10" on="1"/>
        <pt x="226" y="-10" on="0"/>
        <pt x="95" y="115" on="0"/>
        <pt x="95" y="232" on="1"/>
        <pt x="95" y="594" on="1"/>
        <pt x="95" y="614" on="0"/>
        <pt x="84" y="629" on="0"/>
        <pt x="66" y="632" on="1"/>
        <pt x="18" y="641" on="1"/>
        <pt x="18" y="720" on="1"/>
        <pt x="299" y="720" on="1"/>
        <pt x="299" y="641" on="1"/>
        <pt x="251" y="632" on="1"/>
        <pt x="233" y="630" on="0"/>
        <pt x="222" y="614" on="0"/>
        <pt x="222" y="594" on="1"/>
        <pt x="222" y="248" on="1"/>
        <pt x="222" y="165" on="0"/>
        <pt x="313" y="95" on="0"/>
        <pt x="447" y="95" on="0"/>
        <pt x="507" y="143" on="0"/>
        <pt x="507" y="256" on="1"/>
        <pt x="507" y="594" on="1"/>
        <pt x="507" y="614" on="0"/>
        <pt x="496" y="629" on="0"/>
        <pt x="478" y="632" on="1"/>
        <pt x="430" y="641" on="1"/>
        <pt x="430" y="720" on="1"/>
        <pt x="707" y="720" on="1"/>
        <pt x="707" y="641" on="1"/>
        <pt x="659" y="632" on="1"/>
        <pt x="641" y="630" on="0"/>
        <pt x="630" y="614" on="0"/>
      </contour>
      <contour>
        <pt x="323" y="956" on="1"/>
        <pt x="413" y="898" on="1"/>
        <pt x="314" y="760" on="1"/>
        <pt x="297" y="737" on="0"/>
        <pt x="249" y="737" on="0"/>
        <pt x="218" y="756" on="1"/>
      </contour>
      <contour>
        <pt x="508" y="956" on="1"/>
        <pt x="598" y="898" on="1"/>
        <pt x="500" y="760" on="1"/>
        <pt x="483" y="737" on="0"/>
        <pt x="434" y="737" on="0"/>
        <pt x="403" y="756" on="1"/>
      </contour>
    </TTGlyph>
    <TTGlyph name="Umacron" xMin="18" yMin="-10" xMax="707" yMax="889">
      <component glyphName="U" x="0" y="0" flags="0x1004"/>
      <component glyphName="macron" x="170" y="190" flags="0x1004"/>
    </TTGlyph>
    <TTGlyph name="Uogonek" xMin="18" yMin="-230" xMax="707" yMax="720">
      <contour>
        <pt x="630" y="594" on="1"/>
        <pt x="630" y="232" on="1"/>
        <pt x="630" y="181" on="0"/>
        <pt x="597" y="97" on="0"/>
        <pt x="543" y="43" on="0"/>
        <pt x="506" y="24" on="1"/>
        <pt x="438" y="-10" on="0"/>
        <pt x="352" y="-10" on="1"/>
        <pt x="226" y="-10" on="0"/>
        <pt x="95" y="115" on="0"/>
        <pt x="95" y="232" on="1"/>
        <pt x="95" y="594" on="1"/>
        <pt x="95" y="614" on="0"/>
        <pt x="84" y="629" on="0"/>
        <pt x="66" y="632" on="1"/>
        <pt x="18" y="641" on="1"/>
        <pt x="18" y="720" on="1"/>
        <pt x="299" y="720" on="1"/>
        <pt x="299" y="641" on="1"/>
        <pt x="251" y="632" on="1"/>
        <pt x="233" y="630" on="0"/>
        <pt x="222" y="614" on="0"/>
        <pt x="222" y="594" on="1"/>
        <pt x="222" y="248" on="1"/>
        <pt x="222" y="165" on="0"/>
        <pt x="313" y="95" on="0"/>
        <pt x="447" y="95" on="0"/>
        <pt x="507" y="143" on="0"/>
        <pt x="507" y="256" on="1"/>
        <pt x="507" y="594" on="1"/>
        <pt x="507" y="614" on="0"/>
        <pt x="496" y="629" on="0"/>
        <pt x="478" y="632" on="1"/>
        <pt x="430" y="641" on="1"/>
        <pt x="430" y="720" on="1"/>
        <pt x="707" y="720" on="1"/>
        <pt x="707" y="641" on="1"/>
        <pt x="659" y="632" on="1"/>
        <pt x="641" y="630" on="0"/>
        <pt x="630" y="614" on="0"/>
      </contour>
      <contour>
        <pt x="231" y="-98" on="0"/>
        <pt x="250" y="-70" on="0"/>
        <pt x="260" y="-56" on="0"/>
        <pt x="287" y="-35" on="0"/>
        <pt x="296" y="-27" on="0"/>
        <pt x="332" y="-3" on="0"/>
        <pt x="336" y="0" on="1"/>
        <pt x="440" y="0" on="1"/>
        <pt x="416" y="-11" on="0"/>
        <pt x="370" y="-50" on="1"/>
        <pt x="322" y="-87" on="0"/>
        <pt x="322" y="-117" on="1"/>
        <pt x="322" y="-132" on="0"/>
        <pt x="342" y="-155" on="0"/>
        <pt x="380" y="-155" on="0"/>
        <pt x="426" y="-142" on="1"/>
        <pt x="443" y="-200" on="1"/>
        <pt x="428" y="-207" on="1"/>
        <pt x="377" y="-230" on="0"/>
        <pt x="287" y="-230" on="0"/>
        <pt x="231" y="-169" on="0"/>
      </contour>
    </TTGlyph>
    <TTGlyph name="Uring" xMin="18" yMin="-10" xMax="707" yMax="950">
      <contour>
        <pt x="630" y="594" on="1"/>
        <pt x="630" y="232" on="1"/>
        <pt x="630" y="181" on="0"/>
        <pt x="597" y="97" on="0"/>
        <pt x="543" y="43" on="0"/>
        <pt x="506" y="24" on="1"/>
        <pt x="438" y="-10" on="0"/>
        <pt x="352" y="-10" on="1"/>
        <pt x="226" y="-10" on="0"/>
        <pt x="95" y="115" on="0"/>
        <pt x="95" y="232" on="1"/>
        <pt x="95" y="594" on="1"/>
        <pt x="95" y="614" on="0"/>
        <pt x="84" y="629" on="0"/>
        <pt x="66" y="632" on="1"/>
        <pt x="18" y="641" on="1"/>
        <pt x="18" y="720" on="1"/>
        <pt x="299" y="720" on="1"/>
        <pt x="299" y="641" on="1"/>
        <pt x="251" y="632" on="1"/>
        <pt x="233" y="630" on="0"/>
        <pt x="222" y="614" on="0"/>
        <pt x="222" y="594" on="1"/>
        <pt x="222" y="248" on="1"/>
        <pt x="222" y="165" on="0"/>
        <pt x="313" y="95" on="0"/>
        <pt x="447" y="95" on="0"/>
        <pt x="507" y="143" on="0"/>
        <pt x="507" y="256" on="1"/>
        <pt x="507" y="594" on="1"/>
        <pt x="507" y="614" on="0"/>
        <pt x="496" y="629" on="0"/>
        <pt x="478" y="632" on="1"/>
        <pt x="430" y="641" on="1"/>
        <pt x="430" y="720" on="1"/>
        <pt x="707" y="720" on="1"/>
        <pt x="707" y="641" on="1"/>
        <pt x="659" y="632" on="1"/>
        <pt x="641" y="630" on="0"/>
        <pt x="630" y="614" on="0"/>
      </contour>
      <contour>
        <pt x="473" y="890" on="0"/>
        <pt x="473" y="810" on="0"/>
        <pt x="410" y="747" on="0"/>
        <pt x="309" y="747" on="0"/>
        <pt x="252" y="807" on="0"/>
        <pt x="252" y="887" on="0"/>
        <pt x="315" y="950" on="0"/>
        <pt x="416" y="950" on="0"/>
      </contour>
      <contour>
        <pt x="403" y="852" on="1"/>
        <pt x="403" y="868" on="0"/>
        <pt x="379" y="887" on="0"/>
        <pt x="362" y="887" on="1"/>
        <pt x="322" y="887" on="0"/>
        <pt x="322" y="844" on="1"/>
        <pt x="322" y="828" on="0"/>
        <pt x="346" y="809" on="0"/>
        <pt x="363" y="809" on="1"/>
        <pt x="403" y="809" on="0"/>
      </contour>
    </TTGlyph>
    <TTGlyph name="Utilde" xMin="18" yMin="-10" xMax="707" yMax="899">
      <component glyphName="U" x="0" y="0" flags="0x1004"/>
      <component glyphName="tilde" x="161" y="190" flags="0x1004"/>
    </TTGlyph>
    <TTGlyph name="V" xMin="2" yMin="0" xMax="699" yMax="720">
      <contour>
        <pt x="372" y="159" on="1"/>
        <pt x="379" y="211" on="1"/>
        <pt x="496" y="594" on="1"/>
        <pt x="500" y="608" on="0"/>
        <pt x="500" y="613" on="1"/>
        <pt x="500" y="632" on="0"/>
        <pt x="469" y="636" on="1"/>
        <pt x="421" y="642" on="1"/>
        <pt x="421" y="720" on="1"/>
        <pt x="699" y="720" on="1"/>
        <pt x="699" y="641" on="1"/>
        <pt x="667" y="637" on="1"/>
        <pt x="646" y="635" on="0"/>
        <pt x="628" y="620" on="0"/>
        <pt x="619" y="594" on="1"/>
        <pt x="424" y="0" on="1"/>
        <pt x="305" y="0" on="1"/>
        <pt x="91" y="594" on="1"/>
        <pt x="82" y="618" on="0"/>
        <pt x="56" y="634" on="0"/>
        <pt x="32" y="637" on="1"/>
        <pt x="2" y="641" on="1"/>
        <pt x="2" y="720" on="1"/>
        <pt x="303" y="720" on="1"/>
        <pt x="303" y="642" on="1"/>
        <pt x="255" y="636" on="1"/>
        <pt x="226" y="632" on="0"/>
        <pt x="226" y="615" on="1"/>
        <pt x="226" y="609" on="0"/>
        <pt x="231" y="594" on="1"/>
        <pt x="361" y="212" on="1"/>
      </contour>
    </TTGlyph>
    <TTGlyph name="W" xMin="2" yMin="0" xMax="979" yMax="720">
      <contour>
        <pt x="508" y="397" on="1"/>
        <pt x="499" y="447" on="1"/>
        <pt x="491" y="397" on="1"/>
        <pt x="381" y="0" on="1"/>
        <pt x="248" y="0" on="1"/>
        <pt x="91" y="594" on="1"/>
        <pt x="85" y="618" on="0"/>
        <pt x="59" y="634" on="0"/>
        <pt x="36" y="637" on="1"/>
        <pt x="2" y="641" on="1"/>
        <pt x="2" y="720" on="1"/>
        <pt x="302" y="720" on="1"/>
        <pt x="302" y="642" on="1"/>
        <pt x="250" y="636" on="1"/>
        <pt x="221" y="633" on="0"/>
        <pt x="221" y="614" on="1"/>
        <pt x="221" y="606" on="0"/>
        <pt x="224" y="594" on="1"/>
        <pt x="315" y="238" on="1"/>
        <pt x="324" y="186" on="1"/>
        <pt x="334" y="237" on="1"/>
        <pt x="443" y="636" on="1"/>
        <pt x="573" y="636" on="1"/>
        <pt x="685" y="236" on="1"/>
        <pt x="694" y="186" on="1"/>
        <pt x="703" y="238" on="1"/>
        <pt x="789" y="594" on="1"/>
        <pt x="791" y="606" on="0"/>
        <pt x="791" y="609" on="1"/>
        <pt x="791" y="632" on="0"/>
        <pt x="757" y="636" on="1"/>
        <pt x="709" y="642" on="1"/>
        <pt x="709" y="720" on="1"/>
        <pt x="979" y="720" on="1"/>
        <pt x="979" y="641" on="1"/>
        <pt x="949" y="637" on="1"/>
        <pt x="928" y="635" on="0"/>
        <pt x="910" y="619" on="0"/>
        <pt x="904" y="594" on="1"/>
        <pt x="754" y="0" on="1"/>
        <pt x="621" y="0" on="1"/>
      </contour>
    </TTGlyph>
    <TTGlyph name="Wacute" xMin="2" yMin="0" xMax="979" yMax="944">
      <contour>
        <pt x="508" y="397" on="1"/>
        <pt x="499" y="447" on="1"/>
        <pt x="491" y="397" on="1"/>
        <pt x="381" y="0" on="1"/>
        <pt x="248" y="0" on="1"/>
        <pt x="91" y="594" on="1"/>
        <pt x="85" y="618" on="0"/>
        <pt x="59" y="634" on="0"/>
        <pt x="36" y="637" on="1"/>
        <pt x="2" y="641" on="1"/>
        <pt x="2" y="720" on="1"/>
        <pt x="302" y="720" on="1"/>
        <pt x="302" y="642" on="1"/>
        <pt x="250" y="636" on="1"/>
        <pt x="221" y="633" on="0"/>
        <pt x="221" y="614" on="1"/>
        <pt x="221" y="606" on="0"/>
        <pt x="224" y="594" on="1"/>
        <pt x="315" y="238" on="1"/>
        <pt x="324" y="186" on="1"/>
        <pt x="334" y="237" on="1"/>
        <pt x="443" y="636" on="1"/>
        <pt x="573" y="636" on="1"/>
        <pt x="685" y="236" on="1"/>
        <pt x="694" y="186" on="1"/>
        <pt x="703" y="238" on="1"/>
        <pt x="789" y="594" on="1"/>
        <pt x="791" y="606" on="0"/>
        <pt x="791" y="609" on="1"/>
        <pt x="791" y="632" on="0"/>
        <pt x="757" y="636" on="1"/>
        <pt x="709" y="642" on="1"/>
        <pt x="709" y="720" on="1"/>
        <pt x="979" y="720" on="1"/>
        <pt x="979" y="641" on="1"/>
        <pt x="949" y="637" on="1"/>
        <pt x="928" y="635" on="0"/>
        <pt x="910" y="619" on="0"/>
        <pt x="904" y="594" on="1"/>
        <pt x="754" y="0" on="1"/>
        <pt x="621" y="0" on="1"/>
      </contour>
      <contour>
        <pt x="597" y="944" on="1"/>
        <pt x="660" y="858" on="1"/>
        <pt x="518" y="764" on="1"/>
        <pt x="502" y="754" on="0"/>
        <pt x="488" y="754" on="1"/>
        <pt x="455" y="754" on="0"/>
        <pt x="426" y="796" on="1"/>
      </contour>
    </TTGlyph>
    <TTGlyph name="Wcircumflex" xMin="2" yMin="0" xMax="979" yMax="918">
      <contour>
        <pt x="508" y="397" on="1"/>
        <pt x="499" y="447" on="1"/>
        <pt x="491" y="397" on="1"/>
        <pt x="381" y="0" on="1"/>
        <pt x="248" y="0" on="1"/>
        <pt x="91" y="594" on="1"/>
        <pt x="85" y="618" on="0"/>
        <pt x="59" y="634" on="0"/>
        <pt x="36" y="637" on="1"/>
        <pt x="2" y="641" on="1"/>
        <pt x="2" y="720" on="1"/>
        <pt x="302" y="720" on="1"/>
        <pt x="302" y="642" on="1"/>
        <pt x="250" y="636" on="1"/>
        <pt x="221" y="633" on="0"/>
        <pt x="221" y="614" on="1"/>
        <pt x="221" y="606" on="0"/>
        <pt x="224" y="594" on="1"/>
        <pt x="315" y="238" on="1"/>
        <pt x="324" y="186" on="1"/>
        <pt x="334" y="237" on="1"/>
        <pt x="443" y="636" on="1"/>
        <pt x="573" y="636" on="1"/>
        <pt x="685" y="236" on="1"/>
        <pt x="694" y="186" on="1"/>
        <pt x="703" y="238" on="1"/>
        <pt x="789" y="594" on="1"/>
        <pt x="791" y="606" on="0"/>
        <pt x="791" y="609" on="1"/>
        <pt x="791" y="632" on="0"/>
        <pt x="757" y="636" on="1"/>
        <pt x="709" y="642" on="1"/>
        <pt x="709" y="720" on="1"/>
        <pt x="979" y="720" on="1"/>
        <pt x="979" y="641" on="1"/>
        <pt x="949" y="637" on="1"/>
        <pt x="928" y="635" on="0"/>
        <pt x="910" y="619" on="0"/>
        <pt x="904" y="594" on="1"/>
        <pt x="754" y="0" on="1"/>
        <pt x="621" y="0" on="1"/>
      </contour>
      <contour>
        <pt x="445" y="918" on="1"/>
        <pt x="554" y="918" on="1"/>
        <pt x="672" y="792" on="1"/>
        <pt x="613" y="744" on="1"/>
        <pt x="499" y="842" on="1"/>
        <pt x="385" y="744" on="1"/>
        <pt x="326" y="792" on="1"/>
      </contour>
    </TTGlyph>
    <TTGlyph name="Wgrave" xMin="2" yMin="0" xMax="979" yMax="942">
      <contour>
        <pt x="508" y="397" on="1"/>
        <pt x="499" y="447" on="1"/>
        <pt x="491" y="397" on="1"/>
        <pt x="381" y="0" on="1"/>
        <pt x="248" y="0" on="1"/>
        <pt x="91" y="594" on="1"/>
        <pt x="85" y="618" on="0"/>
        <pt x="59" y="634" on="0"/>
        <pt x="36" y="637" on="1"/>
        <pt x="2" y="641" on="1"/>
        <pt x="2" y="720" on="1"/>
        <pt x="302" y="720" on="1"/>
        <pt x="302" y="642" on="1"/>
        <pt x="250" y="636" on="1"/>
        <pt x="221" y="633" on="0"/>
        <pt x="221" y="614" on="1"/>
        <pt x="221" y="606" on="0"/>
        <pt x="224" y="594" on="1"/>
        <pt x="315" y="238" on="1"/>
        <pt x="324" y="186" on="1"/>
        <pt x="334" y="237" on="1"/>
        <pt x="443" y="636" on="1"/>
        <pt x="573" y="636" on="1"/>
        <pt x="685" y="236" on="1"/>
        <pt x="694" y="186" on="1"/>
        <pt x="703" y="238" on="1"/>
        <pt x="789" y="594" on="1"/>
        <pt x="791" y="606" on="0"/>
        <pt x="791" y="609" on="1"/>
        <pt x="791" y="632" on="0"/>
        <pt x="757" y="636" on="1"/>
        <pt x="709" y="642" on="1"/>
        <pt x="709" y="720" on="1"/>
        <pt x="979" y="720" on="1"/>
        <pt x="979" y="641" on="1"/>
        <pt x="949" y="637" on="1"/>
        <pt x="928" y="635" on="0"/>
        <pt x="910" y="619" on="0"/>
        <pt x="904" y="594" on="1"/>
        <pt x="754" y="0" on="1"/>
        <pt x="621" y="0" on="1"/>
      </contour>
      <contour>
        <pt x="327" y="856" on="1"/>
        <pt x="390" y="942" on="1"/>
        <pt x="561" y="794" on="1"/>
        <pt x="532" y="752" on="0"/>
        <pt x="499" y="752" on="1"/>
        <pt x="485" y="752" on="0"/>
        <pt x="469" y="762" on="1"/>
      </contour>
    </TTGlyph>
    <TTGlyph name="X" xMin="4" yMin="0" xMax="723" yMax="720">
      <contour>
        <pt x="280" y="380" on="1"/>
        <pt x="122" y="594" on="1"/>
        <pt x="119" y="598" on="0"/>
        <pt x="109" y="612" on="0"/>
        <pt x="105" y="617" on="0"/>
        <pt x="98" y="626" on="0"/>
        <pt x="93" y="629" on="0"/>
        <pt x="90" y="632" on="1"/>
        <pt x="83" y="636" on="0"/>
        <pt x="73" y="636" on="1"/>
        <pt x="26" y="641" on="1"/>
        <pt x="26" y="720" on="1"/>
        <pt x="320" y="720" on="1"/>
        <pt x="320" y="642" on="1"/>
        <pt x="283" y="636" on="1"/>
        <pt x="262" y="633" on="0"/>
        <pt x="262" y="613" on="0"/>
        <pt x="276" y="594" on="1"/>
        <pt x="377" y="457" on="1"/>
        <pt x="465" y="594" on="1"/>
        <pt x="479" y="615" on="0"/>
        <pt x="479" y="633" on="0"/>
        <pt x="460" y="636" on="1"/>
        <pt x="427" y="642" on="1"/>
        <pt x="427" y="720" on="1"/>
        <pt x="701" y="720" on="1"/>
        <pt x="701" y="641" on="1"/>
        <pt x="655" y="636" on="1"/>
        <pt x="636" y="634" on="0"/>
        <pt x="613" y="617" on="0"/>
        <pt x="598" y="594" on="1"/>
        <pt x="445" y="366" on="1"/>
        <pt x="623" y="126" on="1"/>
        <pt x="653" y="86" on="0"/>
        <pt x="676" y="84" on="1"/>
        <pt x="723" y="79" on="1"/>
        <pt x="723" y="0" on="1"/>
        <pt x="409" y="0" on="1"/>
        <pt x="409" y="78" on="1"/>
        <pt x="451" y="84" on="1"/>
        <pt x="479" y="88" on="0"/>
        <pt x="479" y="104" on="1"/>
        <pt x="479" y="113" on="0"/>
        <pt x="469" y="126" on="1"/>
        <pt x="347" y="290" on="1"/>
        <pt x="243" y="126" on="1"/>
        <pt x="231" y="107" on="0"/>
        <pt x="231" y="99" on="1"/>
        <pt x="231" y="87" on="0"/>
        <pt x="252" y="84" on="1"/>
        <pt x="295" y="78" on="1"/>
        <pt x="295" y="0" on="1"/>
        <pt x="4" y="0" on="1"/>
        <pt x="4" y="79" on="1"/>
        <pt x="50" y="84" on="1"/>
        <pt x="69" y="86" on="0"/>
        <pt x="93" y="104" on="0"/>
        <pt x="108" y="126" on="1"/>
      </contour>
    </TTGlyph>
    <TTGlyph name="Y" xMin="2" yMin="0" xMax="698" yMax="720">
      <contour>
        <pt x="604" y="594" on="1"/>
        <pt x="412" y="238" on="1"/>
        <pt x="412" y="126" on="1"/>
        <pt x="412" y="106" on="0"/>
        <pt x="423" y="91" on="0"/>
        <pt x="441" y="88" on="1"/>
        <pt x="493" y="79" on="1"/>
        <pt x="493" y="0" on="1"/>
        <pt x="204" y="0" on="1"/>
        <pt x="204" y="79" on="1"/>
        <pt x="256" y="88" on="1"/>
        <pt x="274" y="91" on="0"/>
        <pt x="285" y="106" on="0"/>
        <pt x="285" y="126" on="1"/>
        <pt x="285" y="248" on="1"/>
        <pt x="96" y="594" on="1"/>
        <pt x="84" y="616" on="0"/>
        <pt x="64" y="634" on="0"/>
        <pt x="46" y="636" on="1"/>
        <pt x="2" y="641" on="1"/>
        <pt x="2" y="720" on="1"/>
        <pt x="299" y="720" on="1"/>
        <pt x="299" y="642" on="1"/>
        <pt x="264" y="636" on="1"/>
        <pt x="231" y="631" on="0"/>
        <pt x="231" y="617" on="1"/>
        <pt x="231" y="612" on="0"/>
        <pt x="240" y="594" on="1"/>
        <pt x="361" y="360" on="1"/>
        <pt x="477" y="594" on="1"/>
        <pt x="484" y="607" on="0"/>
        <pt x="484" y="624" on="0"/>
        <pt x="469" y="632" on="0"/>
        <pt x="449" y="635" on="1"/>
        <pt x="414" y="641" on="1"/>
        <pt x="414" y="720" on="1"/>
        <pt x="698" y="720" on="1"/>
        <pt x="698" y="641" on="1"/>
        <pt x="654" y="636" on="1"/>
        <pt x="633" y="632" on="0"/>
        <pt x="617" y="617" on="0"/>
      </contour>
    </TTGlyph>
    <TTGlyph name="Yacute" xMin="2" yMin="0" xMax="698" yMax="944">
      <contour>
        <pt x="604" y="594" on="1"/>
        <pt x="412" y="238" on="1"/>
        <pt x="412" y="126" on="1"/>
        <pt x="412" y="106" on="0"/>
        <pt x="423" y="91" on="0"/>
        <pt x="441" y="88" on="1"/>
        <pt x="493" y="79" on="1"/>
        <pt x="493" y="0" on="1"/>
        <pt x="204" y="0" on="1"/>
        <pt x="204" y="79" on="1"/>
        <pt x="256" y="88" on="1"/>
        <pt x="274" y="91" on="0"/>
        <pt x="285" y="106" on="0"/>
        <pt x="285" y="126" on="1"/>
        <pt x="285" y="248" on="1"/>
        <pt x="96" y="594" on="1"/>
        <pt x="84" y="616" on="0"/>
        <pt x="64" y="634" on="0"/>
        <pt x="46" y="636" on="1"/>
        <pt x="2" y="641" on="1"/>
        <pt x="2" y="720" on="1"/>
        <pt x="299" y="720" on="1"/>
        <pt x="299" y="642" on="1"/>
        <pt x="264" y="636" on="1"/>
        <pt x="231" y="631" on="0"/>
        <pt x="231" y="617" on="1"/>
        <pt x="231" y="612" on="0"/>
        <pt x="240" y="594" on="1"/>
        <pt x="361" y="360" on="1"/>
        <pt x="477" y="594" on="1"/>
        <pt x="484" y="607" on="0"/>
        <pt x="484" y="624" on="0"/>
        <pt x="469" y="632" on="0"/>
        <pt x="449" y="635" on="1"/>
        <pt x="414" y="641" on="1"/>
        <pt x="414" y="720" on="1"/>
        <pt x="698" y="720" on="1"/>
        <pt x="698" y="641" on="1"/>
        <pt x="654" y="636" on="1"/>
        <pt x="633" y="632" on="0"/>
        <pt x="617" y="617" on="0"/>
      </contour>
      <contour>
        <pt x="449" y="944" on="1"/>
        <pt x="512" y="858" on="1"/>
        <pt x="370" y="764" on="1"/>
        <pt x="354" y="754" on="0"/>
        <pt x="340" y="754" on="1"/>
        <pt x="307" y="754" on="0"/>
        <pt x="278" y="796" on="1"/>
      </contour>
    </TTGlyph>
    <TTGlyph name="Ycircumflex" xMin="2" yMin="0" xMax="698" yMax="918">
      <contour>
        <pt x="604" y="594" on="1"/>
        <pt x="412" y="238" on="1"/>
        <pt x="412" y="126" on="1"/>
        <pt x="412" y="106" on="0"/>
        <pt x="423" y="91" on="0"/>
        <pt x="441" y="88" on="1"/>
        <pt x="493" y="79" on="1"/>
        <pt x="493" y="0" on="1"/>
        <pt x="204" y="0" on="1"/>
        <pt x="204" y="79" on="1"/>
        <pt x="256" y="88" on="1"/>
        <pt x="274" y="91" on="0"/>
        <pt x="285" y="106" on="0"/>
        <pt x="285" y="126" on="1"/>
        <pt x="285" y="248" on="1"/>
        <pt x="96" y="594" on="1"/>
        <pt x="84" y="616" on="0"/>
        <pt x="64" y="634" on="0"/>
        <pt x="46" y="636" on="1"/>
        <pt x="2" y="641" on="1"/>
        <pt x="2" y="720" on="1"/>
        <pt x="299" y="720" on="1"/>
        <pt x="299" y="642" on="1"/>
        <pt x="264" y="636" on="1"/>
        <pt x="231" y="631" on="0"/>
        <pt x="231" y="617" on="1"/>
        <pt x="231" y="612" on="0"/>
        <pt x="240" y="594" on="1"/>
        <pt x="361" y="360" on="1"/>
        <pt x="477" y="594" on="1"/>
        <pt x="484" y="607" on="0"/>
        <pt x="484" y="624" on="0"/>
        <pt x="469" y="632" on="0"/>
        <pt x="449" y="635" on="1"/>
        <pt x="414" y="641" on="1"/>
        <pt x="414" y="720" on="1"/>
        <pt x="698" y="720" on="1"/>
        <pt x="698" y="641" on="1"/>
        <pt x="654" y="636" on="1"/>
        <pt x="633" y="632" on="0"/>
        <pt x="617" y="617" on="0"/>
      </contour>
      <contour>
        <pt x="297" y="918" on="1"/>
        <pt x="406" y="918" on="1"/>
        <pt x="524" y="792" on="1"/>
        <pt x="465" y="744" on="1"/>
        <pt x="351" y="842" on="1"/>
        <pt x="237" y="744" on="1"/>
        <pt x="178" y="792" on="1"/>
      </contour>
    </TTGlyph>
    <TTGlyph name="Ydieresis" xMin="2" yMin="0" xMax="698" yMax="888">
      <component glyphName="Y" x="0" y="0" flags="0x1004"/>
      <component glyphName="dieresis" x="75" y="190" flags="0x1004"/>
    </TTGlyph>
    <TTGlyph name="Ygrave" xMin="2" yMin="0" xMax="698" yMax="945">
      <contour>
        <pt x="604" y="594" on="1"/>
        <pt x="412" y="238" on="1"/>
        <pt x="412" y="126" on="1"/>
        <pt x="412" y="106" on="0"/>
        <pt x="423" y="91" on="0"/>
        <pt x="441" y="88" on="1"/>
        <pt x="493" y="79" on="1"/>
        <pt x="493" y="0" on="1"/>
        <pt x="204" y="0" on="1"/>
        <pt x="204" y="79" on="1"/>
        <pt x="256" y="88" on="1"/>
        <pt x="274" y="91" on="0"/>
        <pt x="285" y="106" on="0"/>
        <pt x="285" y="126" on="1"/>
        <pt x="285" y="248" on="1"/>
        <pt x="96" y="594" on="1"/>
        <pt x="84" y="616" on="0"/>
        <pt x="64" y="634" on="0"/>
        <pt x="46" y="636" on="1"/>
        <pt x="2" y="641" on="1"/>
        <pt x="2" y="720" on="1"/>
        <pt x="299" y="720" on="1"/>
        <pt x="299" y="642" on="1"/>
        <pt x="264" y="636" on="1"/>
        <pt x="231" y="631" on="0"/>
        <pt x="231" y="617" on="1"/>
        <pt x="231" y="612" on="0"/>
        <pt x="240" y="594" on="1"/>
        <pt x="361" y="360" on="1"/>
        <pt x="477" y="594" on="1"/>
        <pt x="484" y="607" on="0"/>
        <pt x="484" y="624" on="0"/>
        <pt x="469" y="632" on="0"/>
        <pt x="449" y="635" on="1"/>
        <pt x="414" y="641" on="1"/>
        <pt x="414" y="720" on="1"/>
        <pt x="698" y="720" on="1"/>
        <pt x="698" y="641" on="1"/>
        <pt x="654" y="636" on="1"/>
        <pt x="633" y="632" on="0"/>
        <pt x="617" y="617" on="0"/>
      </contour>
      <contour>
        <pt x="187" y="859" on="1"/>
        <pt x="250" y="945" on="1"/>
        <pt x="421" y="797" on="1"/>
        <pt x="392" y="755" on="0"/>
        <pt x="359" y="755" on="1"/>
        <pt x="345" y="755" on="0"/>
        <pt x="329" y="765" on="1"/>
      </contour>
    </TTGlyph>
    <TTGlyph name="Ytilde" xMin="2" yMin="0" xMax="698" yMax="899">
      <contour>
        <pt x="604" y="594" on="1"/>
        <pt x="412" y="238" on="1"/>
        <pt x="412" y="126" on="1"/>
        <pt x="412" y="106" on="0"/>
        <pt x="423" y="91" on="0"/>
        <pt x="441" y="88" on="1"/>
        <pt x="493" y="79" on="1"/>
        <pt x="493" y="0" on="1"/>
        <pt x="204" y="0" on="1"/>
        <pt x="204" y="79" on="1"/>
        <pt x="256" y="88" on="1"/>
        <pt x="274" y="91" on="0"/>
        <pt x="285" y="106" on="0"/>
        <pt x="285" y="126" on="1"/>
        <pt x="285" y="248" on="1"/>
        <pt x="96" y="594" on="1"/>
        <pt x="84" y="616" on="0"/>
        <pt x="64" y="634" on="0"/>
        <pt x="46" y="636" on="1"/>
        <pt x="2" y="641" on="1"/>
        <pt x="2" y="720" on="1"/>
        <pt x="299" y="720" on="1"/>
        <pt x="299" y="642" on="1"/>
        <pt x="264" y="636" on="1"/>
        <pt x="231" y="631" on="0"/>
        <pt x="231" y="617" on="1"/>
        <pt x="231" y="612" on="0"/>
        <pt x="240" y="594" on="1"/>
        <pt x="361" y="360" on="1"/>
        <pt x="477" y="594" on="1"/>
        <pt x="484" y="607" on="0"/>
        <pt x="484" y="624" on="0"/>
        <pt x="469" y="632" on="0"/>
        <pt x="449" y="635" on="1"/>
        <pt x="414" y="641" on="1"/>
        <pt x="414" y="720" on="1"/>
        <pt x="698" y="720" on="1"/>
        <pt x="698" y="641" on="1"/>
        <pt x="654" y="636" on="1"/>
        <pt x="633" y="632" on="0"/>
        <pt x="617" y="617" on="0"/>
      </contour>
      <contour>
        <pt x="390" y="760" on="0"/>
        <pt x="301" y="797" on="0"/>
        <pt x="246" y="797" on="0"/>
        <pt x="206" y="770" on="1"/>
        <pt x="182" y="830" on="1"/>
        <pt x="228" y="899" on="0"/>
        <pt x="286" y="899" on="1"/>
        <pt x="316" y="899" on="0"/>
        <pt x="404" y="864" on="0"/>
        <pt x="456" y="864" on="0"/>
        <pt x="490" y="888" on="1"/>
        <pt x="514" y="828" on="1"/>
        <pt x="471" y="760" on="0"/>
        <pt x="417" y="760" on="1"/>
      </contour>
    </TTGlyph>
    <TTGlyph name="Z" xMin="43" yMin="0" xMax="580" yMax="720">
      <contour>
        <pt x="401" y="619" on="1"/>
        <pt x="198" y="619" on="1"/>
        <pt x="179" y="619" on="0"/>
        <pt x="161" y="608" on="0"/>
        <pt x="160" y="590" on="1"/>
        <pt x="153" y="520" on="1"/>
        <pt x="66" y="520" on="1"/>
        <pt x="59" y="720" on="1"/>
        <pt x="560" y="720" on="1"/>
        <pt x="560" y="624" on="1"/>
        <pt x="202" y="104" on="1"/>
        <pt x="441" y="104" on="1"/>
        <pt x="460" y="104" on="0"/>
        <pt x="478" y="115" on="0"/>
        <pt x="479" y="133" on="1"/>
        <pt x="486" y="203" on="1"/>
        <pt x="573" y="203" on="1"/>
        <pt x="580" y="0" on="1"/>
        <pt x="43" y="0" on="1"/>
        <pt x="43" y="99" on="1"/>
      </contour>
    </TTGlyph>
    <TTGlyph name="Zacute" xMin="43" yMin="0" xMax="580" yMax="944">
      <contour>
        <pt x="401" y="619" on="1"/>
        <pt x="198" y="619" on="1"/>
        <pt x="179" y="619" on="0"/>
        <pt x="161" y="608" on="0"/>
        <pt x="160" y="590" on="1"/>
        <pt x="153" y="520" on="1"/>
        <pt x="66" y="520" on="1"/>
        <pt x="59" y="720" on="1"/>
        <pt x="560" y="720" on="1"/>
        <pt x="560" y="624" on="1"/>
        <pt x="202" y="104" on="1"/>
        <pt x="441" y="104" on="1"/>
        <pt x="460" y="104" on="0"/>
        <pt x="478" y="115" on="0"/>
        <pt x="479" y="133" on="1"/>
        <pt x="486" y="203" on="1"/>
        <pt x="573" y="203" on="1"/>
        <pt x="580" y="0" on="1"/>
        <pt x="43" y="0" on="1"/>
        <pt x="43" y="99" on="1"/>
      </contour>
      <contour>
        <pt x="409" y="944" on="1"/>
        <pt x="472" y="858" on="1"/>
        <pt x="330" y="764" on="1"/>
        <pt x="314" y="754" on="0"/>
        <pt x="300" y="754" on="1"/>
        <pt x="267" y="754" on="0"/>
        <pt x="238" y="796" on="1"/>
      </contour>
    </TTGlyph>
    <TTGlyph name="Zcaron" xMin="43" yMin="0" xMax="580" yMax="928">
      <contour>
        <pt x="401" y="619" on="1"/>
        <pt x="198" y="619" on="1"/>
        <pt x="179" y="619" on="0"/>
        <pt x="161" y="608" on="0"/>
        <pt x="160" y="590" on="1"/>
        <pt x="153" y="520" on="1"/>
        <pt x="66" y="520" on="1"/>
        <pt x="59" y="720" on="1"/>
        <pt x="560" y="720" on="1"/>
        <pt x="560" y="624" on="1"/>
        <pt x="202" y="104" on="1"/>
        <pt x="441" y="104" on="1"/>
        <pt x="460" y="104" on="0"/>
        <pt x="478" y="115" on="0"/>
        <pt x="479" y="133" on="1"/>
        <pt x="486" y="203" on="1"/>
        <pt x="573" y="203" on="1"/>
        <pt x="580" y="0" on="1"/>
        <pt x="43" y="0" on="1"/>
        <pt x="43" y="99" on="1"/>
      </contour>
      <contour>
        <pt x="365" y="754" on="1"/>
        <pt x="256" y="754" on="1"/>
        <pt x="137" y="880" on="1"/>
        <pt x="196" y="928" on="1"/>
        <pt x="310" y="830" on="1"/>
        <pt x="424" y="928" on="1"/>
        <pt x="483" y="880" on="1"/>
      </contour>
    </TTGlyph>
    <TTGlyph name="Zdotaccent" xMin="43" yMin="0" xMax="580" yMax="922">
      <component glyphName="Z" x="0" y="0" flags="0x1004"/>
      <component glyphName="dotaccent" x="187" y="212" flags="0x1004"/>
    </TTGlyph>
    <TTGlyph name="a" xMin="40" yMin="-10" xMax="522" yMax="495">
      <contour>
        <pt x="449" y="351" on="1"/>
        <pt x="449" y="109" on="1"/>
        <pt x="449" y="83" on="0"/>
        <pt x="471" y="81" on="1"/>
        <pt x="522" y="74" on="1"/>
        <pt x="522" y="0" on="1"/>
        <pt x="343" y="0" on="1"/>
        <pt x="335" y="59" on="1"/>
        <pt x="266" y="-10" on="0"/>
        <pt x="112" y="-10" on="0"/>
        <pt x="40" y="62" on="0"/>
        <pt x="40" y="185" on="0"/>
        <pt x="117" y="263" on="0"/>
        <pt x="190" y="273" on="1"/>
        <pt x="329" y="291" on="1"/>
        <pt x="329" y="349" on="1"/>
        <pt x="329" y="412" on="0"/>
        <pt x="242" y="412" on="1"/>
        <pt x="203" y="412" on="0"/>
        <pt x="167" y="396" on="1"/>
        <pt x="155" y="330" on="1"/>
        <pt x="76" y="330" on="1"/>
        <pt x="67" y="453" on="1"/>
        <pt x="137" y="478" on="0"/>
        <pt x="205" y="495" on="0"/>
        <pt x="248" y="495" on="1"/>
        <pt x="334" y="495" on="0"/>
        <pt x="449" y="424" on="0"/>
      </contour>
      <contour>
        <pt x="329" y="212" on="1"/>
        <pt x="219" y="194" on="1"/>
        <pt x="163" y="184" on="0"/>
        <pt x="163" y="130" on="1"/>
        <pt x="163" y="80" on="0"/>
        <pt x="219" y="80" on="1"/>
        <pt x="247" y="80" on="0"/>
        <pt x="317" y="119" on="0"/>
        <pt x="329" y="134" on="1"/>
      </contour>
    </TTGlyph>
    <TTGlyph name="aacute" xMin="40" yMin="-10" xMax="522" yMax="757">
      <contour>
        <pt x="449" y="351" on="1"/>
        <pt x="449" y="109" on="1"/>
        <pt x="449" y="83" on="0"/>
        <pt x="471" y="81" on="1"/>
        <pt x="522" y="74" on="1"/>
        <pt x="522" y="0" on="1"/>
        <pt x="343" y="0" on="1"/>
        <pt x="335" y="59" on="1"/>
        <pt x="266" y="-10" on="0"/>
        <pt x="112" y="-10" on="0"/>
        <pt x="40" y="62" on="0"/>
        <pt x="40" y="185" on="0"/>
        <pt x="117" y="263" on="0"/>
        <pt x="190" y="273" on="1"/>
        <pt x="329" y="291" on="1"/>
        <pt x="329" y="349" on="1"/>
        <pt x="329" y="412" on="0"/>
        <pt x="242" y="412" on="1"/>
        <pt x="203" y="412" on="0"/>
        <pt x="167" y="396" on="1"/>
        <pt x="155" y="330" on="1"/>
        <pt x="76" y="330" on="1"/>
        <pt x="67" y="453" on="1"/>
        <pt x="137" y="478" on="0"/>
        <pt x="205" y="495" on="0"/>
        <pt x="248" y="495" on="1"/>
        <pt x="334" y="495" on="0"/>
        <pt x="449" y="424" on="0"/>
      </contour>
      <contour>
        <pt x="329" y="212" on="1"/>
        <pt x="219" y="194" on="1"/>
        <pt x="163" y="184" on="0"/>
        <pt x="163" y="130" on="1"/>
        <pt x="163" y="80" on="0"/>
        <pt x="219" y="80" on="1"/>
        <pt x="247" y="80" on="0"/>
        <pt x="317" y="119" on="0"/>
        <pt x="329" y="134" on="1"/>
      </contour>
      <contour>
        <pt x="351" y="757" on="1"/>
        <pt x="425" y="680" on="1"/>
        <pt x="297" y="568" on="1"/>
        <pt x="282" y="554" on="0"/>
        <pt x="235" y="554" on="0"/>
        <pt x="202" y="587" on="1"/>
      </contour>
    </TTGlyph>
    <TTGlyph name="abreve" xMin="40" yMin="-10" xMax="522" yMax="723">
      <component glyphName="a" x="0" y="0" flags="0x1004"/>
      <component glyphName="breve" x="68" y="0" flags="0x1004"/>
    </TTGlyph>
    <TTGlyph name="acircumflex" xMin="40" yMin="-10" xMax="522" yMax="743">
      <component glyphName="a" x="0" y="0" flags="0x1004"/>
      <component glyphName="circumflex" x="84" y="0" flags="0x1004"/>
    </TTGlyph>
    <TTGlyph name="acute" xMin="22" yMin="564" xMax="245" yMax="767">
      <contour>
        <pt x="171" y="767" on="1"/>
        <pt x="245" y="690" on="1"/>
        <pt x="117" y="578" on="1"/>
        <pt x="102" y="564" on="0"/>
        <pt x="55" y="564" on="0"/>
        <pt x="22" y="597" on="1"/>
      </contour>
    </TTGlyph>
    <TTGlyph name="acute.case" xMin="14" yMin="754" xMax="248" yMax="944">
      <contour>
        <pt x="185" y="944" on="1"/>
        <pt x="248" y="858" on="1"/>
        <pt x="106" y="764" on="1"/>
        <pt x="90" y="754" on="0"/>
        <pt x="76" y="754" on="1"/>
        <pt x="43" y="754" on="0"/>
        <pt x="14" y="796" on="1"/>
      </contour>
    </TTGlyph>
    <TTGlyph name="adieresis" xMin="40" yMin="-10" xMax="522" yMax="688">
      <component glyphName="a" x="0" y="0" flags="0x1004"/>
      <component glyphName="dieresis" x="-13" y="-10" flags="0x1004"/>
    </TTGlyph>
    <TTGlyph name="ae" xMin="40" yMin="-10" xMax="759" yMax="495">
      <contour>
        <pt x="183" y="-10" on="1"/>
        <pt x="112" y="-10" on="0"/>
        <pt x="40" y="62" on="0"/>
        <pt x="40" y="185" on="0"/>
        <pt x="117" y="263" on="0"/>
        <pt x="190" y="273" on="1"/>
        <pt x="329" y="291" on="1"/>
        <pt x="329" y="349" on="1"/>
        <pt x="329" y="412" on="0"/>
        <pt x="242" y="412" on="1"/>
        <pt x="203" y="412" on="0"/>
        <pt x="167" y="396" on="1"/>
        <pt x="155" y="330" on="1"/>
        <pt x="76" y="330" on="1"/>
        <pt x="67" y="453" on="1"/>
        <pt x="137" y="478" on="0"/>
        <pt x="205" y="495" on="0"/>
        <pt x="248" y="495" on="1"/>
        <pt x="332" y="495" on="0"/>
        <pt x="444" y="424" on="0"/>
        <pt x="444" y="351" on="1"/>
        <pt x="444" y="101" on="1"/>
        <pt x="366" y="88" on="1"/>
        <pt x="339" y="50" on="0"/>
        <pt x="229" y="-10" on="0"/>
      </contour>
      <contour>
        <pt x="329" y="212" on="1"/>
        <pt x="219" y="194" on="1"/>
        <pt x="163" y="184" on="0"/>
        <pt x="163" y="130" on="1"/>
        <pt x="163" y="80" on="0"/>
        <pt x="219" y="80" on="1"/>
        <pt x="247" y="80" on="0"/>
        <pt x="317" y="119" on="0"/>
        <pt x="329" y="134" on="1"/>
      </contour>
      <contour>
        <pt x="759" y="234" on="1"/>
        <pt x="451" y="212" on="1"/>
        <pt x="459" y="79" on="0"/>
        <pt x="573" y="79" on="1"/>
        <pt x="636" y="79" on="0"/>
        <pt x="738" y="108" on="1"/>
        <pt x="757" y="36" on="1"/>
        <pt x="639" y="-10" on="0"/>
        <pt x="545" y="-10" on="1"/>
        <pt x="405" y="-10" on="0"/>
        <pt x="352" y="95" on="1"/>
        <pt x="376" y="404" on="1"/>
        <pt x="439" y="495" on="0"/>
        <pt x="677" y="495" on="0"/>
        <pt x="759" y="366" on="0"/>
      </contour>
      <contour>
        <pt x="449" y="291" on="1"/>
        <pt x="642" y="307" on="1"/>
        <pt x="640" y="406" on="0"/>
        <pt x="557" y="406" on="1"/>
        <pt x="497" y="406" on="0"/>
        <pt x="458" y="361" on="0"/>
      </contour>
    </TTGlyph>
    <TTGlyph name="aeacute" xMin="44" yMin="-10" xMax="763" yMax="767">
      <contour>
        <pt x="187" y="-10" on="1"/>
        <pt x="116" y="-10" on="0"/>
        <pt x="44" y="62" on="0"/>
        <pt x="44" y="185" on="0"/>
        <pt x="121" y="263" on="0"/>
        <pt x="194" y="273" on="1"/>
        <pt x="333" y="291" on="1"/>
        <pt x="333" y="349" on="1"/>
        <pt x="333" y="412" on="0"/>
        <pt x="246" y="412" on="1"/>
        <pt x="207" y="412" on="0"/>
        <pt x="171" y="396" on="1"/>
        <pt x="159" y="330" on="1"/>
        <pt x="80" y="330" on="1"/>
        <pt x="71" y="453" on="1"/>
        <pt x="141" y="478" on="0"/>
        <pt x="209" y="495" on="0"/>
        <pt x="252" y="495" on="1"/>
        <pt x="336" y="495" on="0"/>
        <pt x="448" y="424" on="0"/>
        <pt x="448" y="351" on="1"/>
        <pt x="448" y="101" on="1"/>
        <pt x="370" y="88" on="1"/>
        <pt x="343" y="50" on="0"/>
        <pt x="233" y="-10" on="0"/>
      </contour>
      <contour>
        <pt x="333" y="212" on="1"/>
        <pt x="223" y="194" on="1"/>
        <pt x="167" y="184" on="0"/>
        <pt x="167" y="130" on="1"/>
        <pt x="167" y="80" on="0"/>
        <pt x="223" y="80" on="1"/>
        <pt x="251" y="80" on="0"/>
        <pt x="321" y="119" on="0"/>
        <pt x="333" y="134" on="1"/>
      </contour>
      <contour>
        <pt x="763" y="234" on="1"/>
        <pt x="455" y="212" on="1"/>
        <pt x="463" y="79" on="0"/>
        <pt x="577" y="79" on="1"/>
        <pt x="640" y="79" on="0"/>
        <pt x="742" y="108" on="1"/>
        <pt x="761" y="36" on="1"/>
        <pt x="643" y="-10" on="0"/>
        <pt x="549" y="-10" on="1"/>
        <pt x="409" y="-10" on="0"/>
        <pt x="356" y="95" on="1"/>
        <pt x="380" y="404" on="1"/>
        <pt x="443" y="495" on="0"/>
        <pt x="681" y="495" on="0"/>
        <pt x="763" y="366" on="0"/>
      </contour>
      <contour>
        <pt x="453" y="291" on="1"/>
        <pt x="646" y="307" on="1"/>
        <pt x="644" y="406" on="0"/>
        <pt x="561" y="406" on="1"/>
        <pt x="501" y="406" on="0"/>
        <pt x="462" y="361" on="0"/>
      </contour>
      <contour>
        <pt x="471" y="767" on="1"/>
        <pt x="545" y="690" on="1"/>
        <pt x="417" y="578" on="1"/>
        <pt x="402" y="564" on="0"/>
        <pt x="355" y="564" on="0"/>
        <pt x="322" y="597" on="1"/>
      </contour>
    </TTGlyph>
    <TTGlyph name="agrave" xMin="40" yMin="-10" xMax="522" yMax="757">
      <component glyphName="a" x="0" y="0" flags="0x1004"/>
      <component glyphName="grave" x="47" y="-10" flags="0x1004"/>
    </TTGlyph>
</ttFont>
